<svg xmlns="http://www.w3.org/2000/svg" xmlns:xlink="http://www.w3.org/1999/xlink" xmlns:lucid="lucid" width="912.86" height="821.86"><g transform="translate(-220 -4.142857142857125)" lucid:page-tab-id="0_0"><path d="M0 0h1870.87v1322.83H0z" fill="#fff"/><path d="M784.43 241h-92.67v-2h92.67m299-4.87l-.92 3.42-2.52 2.53-3.4.92h-71.6v-2h71.32l2.64-.7 1.78-1.8.72-2.63v-50.5h2M1087.07 182.36h-9.27l4.64-14.26z" fill="#c92d39"/><path d="M1088.45 183.36h-12.03l6.02-18.5m-3.26 16.5h6.5l-3.24-10.03M691.78 241h-.6l-.84-2h1.44" fill="#c92d39"/><use xlink:href="#a" transform="matrix(1,0,0,1,784.4349723921093,229.33333333333337) translate(0 14.222222222222223)"/><path d="M240 286c0-3.3 2.7-6 6-6h808c3.3 0 6 2.7 6 6v468c0 3.3-2.7 6-6 6H246c-3.3 0-6-2.7-6-6z" stroke="#5e5e5e" stroke-width="3" fill="#fff"/><path d="M310 406c0-3.3 2.7-6 6-6h108c3.3 0 6 2.7 6 6v88c0 3.3-2.7 6-6 6H316c-3.3 0-6-2.7-6-6z" stroke="#5e5e5e" stroke-width="3" fill="#fff"/><use xlink:href="#b" transform="matrix(1,0,0,1,315,405) translate(10.061728395061728 48.71527777777778)"/><path d="M429.9 381.06c-.4.03-.7.1-1 .26l-13.15 6.48c-.72.34-1.2.95-1.36 1.74l-3.27 14.6c-.15.67-.04 1.35.34 1.96.04.08.08.1.15.2l9.1 11.66c.5.64 1.17 1 1.97 1h14.6c.8 0 1.5-.36 1.98-1l9.1-11.67c.5-.65.68-1.4.5-2.2l-3.27-14.56c-.14-.8-.63-1.4-1.35-1.74l-13.15-6.48c-.42-.2-.8-.3-1.2-.26z" stroke="#000" stroke-opacity="0" stroke-width="3.83" fill="#326ce5"/><path d="M429.88 380c-.4.04-.72.12-1.04.28l-13.88 6.84c-.76.36-1.28 1-1.44 1.84l-3.44 15.4c-.16.72-.04 1.44.36 2.08.04.08.08.12.16.2l9.6 12.32c.52.68 1.24 1.04 2.08 1.04h15.44c.84 0 1.56-.36 2.08-1.04l9.6-12.32c.52-.68.72-1.48.52-2.28l-3.44-15.4c-.16-.84-.68-1.48-1.44-1.84l-13.88-6.84c-.44-.2-.84-.32-1.28-.28zm0 1.08c.44-.04.8.04 1.2.24l13.2 6.48c.68.36 1.16.96 1.36 1.76l3.24 14.56c.16.8 0 1.52-.48 2.16l-9.12 11.68c-.48.64-1.16 1-1.96 1h-14.64c-.8 0-1.48-.36-1.96-1l-9.12-11.68c-.04-.04-.08-.12-.12-.2-.4-.6-.52-1.24-.36-1.96l3.24-14.56c.2-.8.64-1.4 1.36-1.76l13.2-6.48c.32-.16.6-.24.96-.28z" stroke="#000" stroke-opacity="0" stroke-width="3.83" fill="#fff"/><path d="M428 414.02c0 1.2-.4 1.8-1.2 1.8-.52 0-.86-.2-1.03-.6h-.02v1.86h-.54v-4.05-.7h.53v.1c0 .05 0 .12.02.23v.22h.02c.1-.2.23-.36.4-.46.15-.1.36-.15.62-.15.4 0 .7.14.9.43.2.28.3.72.3 1.32zm-.57 0c0-.46-.06-.8-.18-1-.13-.2-.33-.3-.6-.3-.22 0-.4.04-.5.13-.13.1-.23.25-.3.45-.06.2-.1.46-.1.78 0 .45.08.77.22 1 .14.2.36.3.68.3.27 0 .47-.1.6-.3.12-.2.18-.56.18-1.05zM431.5 414.03c0 .6-.14 1.05-.4 1.34-.24.3-.62.44-1.1.44-.48 0-.85-.15-1.1-.45-.24-.3-.36-.74-.36-1.32 0-1.17.5-1.76 1.48-1.76.5 0 .88.15 1.1.43.25.3.37.73.37 1.33zm-.58 0c0-.47-.08-.8-.2-1.02-.14-.2-.37-.3-.7-.3-.3 0-.55.1-.7.32-.13.2-.2.55-.2 1 0 .46.06.8.2 1.03.15.23.37.33.67.33.32 0 .56-.1.7-.32.14-.22.22-.56.22-1.03zM434.27 415.2c-.1.2-.24.37-.4.46-.18.1-.4.14-.63.14-.42 0-.73-.14-.93-.43-.18-.3-.28-.73-.28-1.32 0-1.2.4-1.78 1.22-1.78.25 0 .45.05.62.14.17.1.3.26.4.46V411.08h.55v3.96c0 .35.02.6.03.7h-.52v-.23c-.02-.1-.02-.22-.02-.3zm-1.67-1.17c0 .48.06.82.18 1.03.12.2.32.3.6.3.3 0 .53-.1.67-.33.15-.22.22-.57.22-1.03 0-.45-.07-.8-.22-1-.14-.2-.36-.3-.67-.3-.27 0-.47.1-.6.3-.12.22-.18.56-.18 1.03z" stroke="#000" stroke-opacity="0" fill="#fff"/><path d="M421.97 393.4L430 391l8.03 2.4-8.03 2.4zM421.97 394.32v8.8l7.48 4.27.04-10.78zM438.03 394.32v8.8l-7.48 4.27-.04-10.78z" stroke="#000" stroke-opacity="0" stroke-width="3.77" fill="#fff"/><path d="M490 406c0-3.3 2.7-6 6-6h108c3.3 0 6 2.7 6 6v88c0 3.3-2.7 6-6 6H496c-3.3 0-6-2.7-6-6z" stroke="#5e5e5e" stroke-width="3" fill="#fff"/><use xlink:href="#b" transform="matrix(1,0,0,1,495,405) translate(10.061728395061728 48.71527777777778)"/><path d="M609.9 381.06c-.4.03-.7.1-1 .26l-13.15 6.48c-.72.34-1.2.95-1.36 1.74l-3.27 14.6c-.15.67-.04 1.35.34 1.96.04.08.08.1.15.2l9.1 11.66c.5.64 1.17 1 1.97 1h14.6c.8 0 1.5-.36 1.98-1l9.1-11.67c.5-.65.68-1.4.5-2.2l-3.27-14.56c-.14-.8-.63-1.4-1.35-1.74l-13.15-6.48c-.42-.2-.8-.3-1.2-.26z" stroke="#000" stroke-opacity="0" stroke-width="3.83" fill="#326ce5"/><path d="M609.88 380c-.4.04-.72.12-1.04.28l-13.88 6.84c-.76.36-1.28 1-1.44 1.84l-3.44 15.4c-.16.72-.04 1.44.36 2.08.04.08.08.12.16.2l9.6 12.32c.52.68 1.24 1.04 2.08 1.04h15.44c.84 0 1.56-.36 2.08-1.04l9.6-12.32c.52-.68.72-1.48.52-2.28l-3.44-15.4c-.16-.84-.68-1.48-1.44-1.84l-13.88-6.84c-.44-.2-.84-.32-1.28-.28zm0 1.08c.44-.04.8.04 1.2.24l13.2 6.48c.68.36 1.16.96 1.36 1.76l3.24 14.56c.16.8 0 1.52-.48 2.16l-9.12 11.68c-.48.64-1.16 1-1.96 1h-14.64c-.8 0-1.48-.36-1.96-1l-9.12-11.68c-.04-.04-.08-.12-.12-.2-.4-.6-.52-1.24-.36-1.96l3.24-14.56c.2-.8.64-1.4 1.36-1.76l13.2-6.48c.32-.16.6-.24.96-.28z" stroke="#000" stroke-opacity="0" stroke-width="3.83" fill="#fff"/><path d="M608 414.02c0 1.2-.4 1.8-1.2 1.8-.52 0-.86-.2-1.03-.6h-.02v1.86h-.54v-4.05-.7h.53v.1c0 .05 0 .12.02.23v.22h.02c.1-.2.23-.36.4-.46.15-.1.36-.15.62-.15.4 0 .7.14.9.43.2.28.3.72.3 1.32zm-.57 0c0-.46-.06-.8-.18-1-.13-.2-.33-.3-.6-.3-.22 0-.4.04-.5.13-.13.1-.23.25-.3.45-.06.2-.1.46-.1.78 0 .45.08.77.22 1 .14.2.36.3.68.3.27 0 .47-.1.6-.3.12-.2.18-.56.18-1.05zM611.5 414.03c0 .6-.14 1.05-.4 1.34-.24.3-.62.44-1.1.44-.48 0-.85-.15-1.1-.45-.24-.3-.36-.74-.36-1.32 0-1.17.5-1.76 1.48-1.76.5 0 .88.15 1.1.43.25.3.37.73.37 1.33zm-.58 0c0-.47-.08-.8-.2-1.02-.14-.2-.37-.3-.7-.3-.3 0-.55.1-.7.32-.13.2-.2.55-.2 1 0 .46.06.8.2 1.03.15.23.37.33.67.33.32 0 .56-.1.7-.32.14-.22.22-.56.22-1.03zM614.27 415.2c-.1.2-.24.37-.4.46-.18.1-.4.14-.63.14-.42 0-.73-.14-.93-.43-.18-.3-.28-.73-.28-1.32 0-1.2.4-1.78 1.22-1.78.25 0 .45.05.62.14.17.1.3.26.4.46V411.08h.55v3.96c0 .35.02.6.03.7h-.52v-.23c-.02-.1-.02-.22-.02-.3zm-1.67-1.17c0 .48.06.82.18 1.03.12.2.32.3.6.3.3 0 .53-.1.67-.33.15-.22.22-.57.22-1.03 0-.45-.07-.8-.22-1-.14-.2-.36-.3-.67-.3-.27 0-.47.1-.6.3-.12.22-.18.56-.18 1.03z" stroke="#000" stroke-opacity="0" fill="#fff"/><path d="M601.97 393.4L610 391l8.03 2.4-8.03 2.4zM601.97 394.32v8.8l7.48 4.27.04-10.78zM618.03 394.32v8.8l-7.48 4.27-.04-10.78z" stroke="#000" stroke-opacity="0" stroke-width="3.77" fill="#fff"/><path d="M649.7 221.3c-.93.1-1.7.3-2.45.68l-32.87 16.2c-1.8.85-3.03 2.36-3.4 4.35L602.8 279c-.38 1.7-.1 3.4.86 4.93.1.2.2.28.38.47l22.73 29.18c1.22 1.6 2.93 2.46 4.92 2.46h36.56c2 0 3.7-.85 4.93-2.46l22.74-29.18c1.23-1.6 1.7-3.5 1.23-5.5l-8.14-36.37c-.38-2-1.6-3.5-3.4-4.36l-32.88-16.2c-1.05-.47-2-.75-3.04-.66z" stroke="#000" stroke-opacity="0" stroke-width="3.83" fill="#326ce5"/><path d="M649.7 218.67c-1 .1-1.8.3-2.6.7l-34.7 17.1c-1.9.9-3.2 2.5-3.6 4.6l-8.6 38.5c-.4 1.8-.1 3.6.9 5.2.1.2.2.3.4.5l24 30.8c1.3 1.7 3.1 2.6 5.2 2.6h38.6c2.1 0 3.9-.9 5.2-2.6l24-30.8c1.3-1.7 1.8-3.7 1.3-5.7l-8.6-38.5c-.4-2.1-1.7-3.7-3.6-4.6l-34.7-17.1c-1.1-.5-2.1-.8-3.2-.7zm0 2.7c1.1-.1 2 .1 3 .6l33 16.2c1.7.9 2.9 2.4 3.4 4.4l8.1 36.4c.4 2 0 3.8-1.2 5.4l-22.8 29.2c-1.2 1.6-2.9 2.5-4.9 2.5h-36.6c-2 0-3.7-.9-4.9-2.5l-22.8-29.2c-.1-.1-.2-.3-.3-.5-1-1.5-1.3-3.1-.9-4.9l8.1-36.4c.5-2 1.6-3.5 3.4-4.4l33-16.2c.8-.4 1.5-.6 2.4-.7z" stroke="#000" stroke-opacity="0" stroke-width="3.83" fill="#fff"/><path d="M640.6 297.7v-1.36h1.36v1.36zm0 10.33v-8.52h1.36v8.53zM649.33 308.03v-5.4c0-.56-.05-1-.16-1.3-.1-.32-.28-.55-.5-.68-.25-.13-.6-.2-1.04-.2-.67 0-1.2.23-1.57.7-.38.47-.57 1.1-.57 1.94v4.93h-1.4v-6.7c0-1 0-1.6-.03-1.82h1.3v.23l.02.4c0 .14 0 .42.03.84h.02c.32-.6.68-1 1.1-1.24.4-.26.92-.38 1.54-.38.9 0 1.56.24 1.98.7.42.47.63 1.23.63 2.3v5.68zM655.92 311.37c-.9 0-1.62-.18-2.16-.55-.53-.36-.87-.88-1.03-1.55l1.38-.2c.1.4.3.7.62.9.32.2.73.32 1.24.32 1.37 0 2.05-.84 2.05-2.5v-1.36c-.26.55-.62.96-1.07 1.24-.45.27-1 .4-1.6.4-1 0-1.75-.33-2.23-1.03-.47-.7-.7-1.8-.7-3.27 0-1.5.24-2.62.76-3.33.5-.72 1.28-1.08 2.33-1.08.58 0 1.08.15 1.5.42.44.27.78.65 1 1.17h.03c0-.17 0-.43.03-.83.02-.38.04-.6.06-.64h1.3c-.02.3-.04.88-.04 1.77v6.5c0 2.4-1.15 3.6-3.46 3.6zm2.1-7.6c0-.7-.1-1.3-.28-1.8-.2-.5-.45-.88-.78-1.15-.33-.26-.7-.4-1.13-.4-.7 0-1.22.27-1.54.8-.33.52-.5 1.37-.5 2.54s.16 2 .46 2.5c.3.53.82.78 1.54.78.44 0 .83-.13 1.16-.4.33-.26.6-.63.78-1.12.18-.5.27-1.07.27-1.76z" stroke="#000" stroke-opacity="0" fill="#fff"/><path d="M665.22 290.3h-12.55l-27.32-35.15h-7.87v-11.52h12.8l27.33 35.22h7.62v-9.13l17.3 14.83-17.3 14.9zM651.5 263.2l6.1-7.9h7.62v9.13l17.3-14.82-17.3-14.9v9.14h-12.55l-8.13 10.43zm-19.9 7.77l-6.25 8.03h-7.87v11.53h12.8l8.2-10.6z" stroke="#000" stroke-opacity="0" stroke-width="3.77" fill="#fff"/><path d="M650 319.67v32.92c0 3.3-2.7 6-6 6H376c-3.3 0-6 2.67-6 6V380" stroke="#5e5e5e" stroke-width="2" fill="none"/><path d="M651 319.7h-2v-1.03h2" fill="#5e5e5e"/><path d="M370 395.26L365.36 381h9.28z" stroke="#5e5e5e" stroke-width="2" fill="#5e5e5e"/><path d="M650 319.67v32.92c0 3.3-2.7 6-6 6h-88c-3.3 0-6 2.67-6 6V380" stroke="#333" stroke-width="2" fill="none"/><path d="M651 319.7h-2v-1.03h2" fill="#333"/><path d="M550 395.26L545.36 381h9.28z" stroke="#333" stroke-width="2" fill="#333"/><path d="M610 709.42c0 6.62-26.86 12-60 12s-60-5.38-60-12v-96c0-6.63 26.86-12 60-12s60 5.37 60 12z" stroke="#5e5e5e" stroke-width="3" fill="#fff"/><path d="M610 613.42c0 6.62-26.86 12-60 12s-60-5.38-60-12" stroke="#5e5e5e" stroke-width="3" fill="none"/><path d="M506.2 641.54l1.05 2.04c.2.37.53.7.84 1.03.84.9 1.8 1.9 2.53 2.9 1.8 2.42 3.07 5.12 4.03 8.02.52 1.8.74 3.64.84 5.48 0 5.52-1.9 10.26-5.7 14.2-.65.64-1.28 1.17-2.02 1.7-.32 0-.53-.28-.64-.53-.32-.53-.53-1.06-.63-1.63-.1-.66-.2-1.3-.1-2v-.33c-.1-.03-.42-30.7-.2-30.86z" stroke="#000" stroke-opacity="0" fill="#599636"/><path d="M506.2 641.46c-.12-.08-.12 0-.22.04.1.45-.1.82-.32 1.23-.32.36-.63.65-1.06.98-1.9 1.72-3.5 3.77-4.76 6.1-1.6 3.1-2.54 6.46-2.75 9.97-.12 1.27.4 5.73.84 7.04 1.05 3.44 3.06 6.3 5.6 8.8.64.6 1.27 1.14 1.9 1.67.22 0 .22-.16.33-.28.1-.3.1-.6.2-.87.22-1.15.33-2.25.43-3.35l-.2-31.32z" stroke="#000" stroke-opacity="0" fill="#6cac48"/><path d="M507.25 678.25c0-.5.32-.9.53-1.35-.2-.08-.43-.32-.64-.57-.1-.2-.2-.5-.32-.73-.3-.94-.3-1.92-.42-2.87v-.57c-.1.08-.2.82-.2.94 0 1.02-.12 2.05-.33 3.03-.1.37-.1.77-.42 1.14 0 .04 0 .08.1.17.32 1.18.43 2.37.53 3.6v.44c0 .54 0 .4.43.62.22.04.43.08.54.2.2 0 .2-.12.2-.2l-.1-.74v-2.04c0-.37.1-.7.1-1.07z" stroke="#000" stroke-opacity="0" fill="#c2bfbf"/><path d="M524.18 668.97v2.37c0 .25.2.4.42.45.2.08.43.12.64.12.1.04.1.08.2.2 0 .5-.1.53-.52.53-1.06-.08-2.12-.08-3.28 0h-.1c-.32 0-.32-.04-.32-.37v-.16c0-.12.1-.16.2-.16l.64-.12c.32-.1.43-.25.43-.54.1-.32.1-.65.1-.98v-3.76c0-.2-.1-.4-.33-.53-.2-.12-.52-.25-.74-.33-.1-.04-.2-.04-.3-.08-.23-.08-.23-.3 0-.4.1-.05.2-.05.2-.1.95-.1 1.7-.28 2.54-.6.1-.04.2-.04.2.12v1.02c.12.04.22 0 .22-.04l.94-.6c.43-.26.96-.46 1.5-.54.62-.1 1.15.08 1.68.5.2.2.32.35.53.6.1.2.1.2.3.08.54-.4 1.07-.73 1.7-.98.64-.3 1.28-.33 1.9-.08.65.24 1.07.7 1.4 1.3.2.5.3 1.03.3 1.56v3.76c0 .25.1.4.32.53.32.1.64.17.85.2.2.05.2.05.2.2 0 .5-.1.5-.52.5-1.16-.08-2.22-.08-3.38 0-.22 0-.22 0-.22-.2v-.08c0-.37 0-.37.32-.45l.43-.13c.2-.05.42-.3.42-.54V667.46c0-.24-.1-.45-.1-.7-.43-.85-1.17-1.14-1.9-1.06-.54.04-1.07.3-1.5.57-.1.1-.2.17-.2.33.1.86.1 1.76.1 2.66v1.96c0 .33.1.5.42.57l.63.16c.1 0 .2.04.2.16v.08c0 .4-.1.4-.4.4-1.18-.03-2.23-.03-3.4 0-.32.05-.42 0-.32-.4 0-.2 0-.24.23-.28l.42-.08c.42-.1.63-.2.63-.66v-3.76c0-.33-.1-.65-.3-.98-.23-.53-.75-.78-1.28-.82-.64-.04-1.17.2-1.7.45-.3.2-.42.45-.42.86v2.04zm26.24.1v2.35c.1.2.2.37.43.42.2.04.42.08.74.12.1 0 .1.04.1.16v.12c0 .5 0 .54-.54.5-1.05-.05-2.1-.05-3.17 0l-.43.04c-.1 0-.1-.05-.1-.13v-.57c0-.08.1-.12.1-.12l.63-.12c.32-.1.42-.2.53-.58v-4.62c0-.24-.1-.4-.32-.5-.3-.15-.52-.23-.83-.36l-.22-.08c-.2-.12-.2-.28 0-.45.1-.08.1-.08.22-.12.95-.12 1.8-.33 2.64-.65.12-.04.12 0 .22.08V665.5c0 .08-.1.2 0 .2.1.08.1-.04.2-.08.44-.37.86-.6 1.4-.86.4-.2.84-.32 1.37-.32.94.08 1.57.53 2 1.34.2.45.3.94.3 1.4l.12 1.02v3.1c0 .25.1.37.32.5.32.08.53.12.74.16.2.04.32.08.32.28v.04c-.1.5-.1.5-.53.5-1.17-.1-2.12-.1-3.18 0h-.43c-.1 0-.1 0-.1-.1 0-.2-.1-.35 0-.56 0-.08 0-.12.1-.12l.63-.12c.22-.04.32-.2.43-.4v-3.32c0-.33 0-.66-.1-1-.1-.72-.75-1.2-1.5-1.3-.63-.08-1.15.1-1.68.46-.32.16-.43.4-.43.7v2.04z" stroke="#000" stroke-opacity="0" stroke-width="1.02" fill="#47474a"/><path d="M591.27 665.1c-.1-1.03-.53-1.93-1.16-2.7-.52-.74-1.26-1.28-2.1-1.6-.86-.37-1.8-.5-2.76-.54-.42 0-5.72.1-6.14 0-.1 0-.2.05-.2.13-.12.07-.12.2-.22.3-.1.38-.1.34.2.42.43.04.75.1 1.07.17.2.07.42.23.53.56 0 .16.1 5.07.1 7.36l-.1 1.63c0 .13 0 .25-.1.37 0 .17-.12.3-.33.37-.1.07-.3.15-.53.15-.42.04-.42.04-.52.5l-.1.12c0 .2 0 .2.2.2l4.13.04h1.7l1.05-.15c1.27-.2 2.43-.74 3.4-1.6.62-.53 1.04-1.06 1.36-1.75.42-.78.53-1.64.64-2.5 0-.5 0-1.02-.1-1.5zm-2 2c0 .85-.22 1.75-.65 2.53-.63 1.02-1.48 1.7-2.64 1.96-.42.1-.95.15-1.48.07-.43-.04-.74-.08-1.06-.2-.64-.2-.95-.62-.95-1.23v-8.42c0-.5.2-.6.62-.6.53-.06 1.06-.06 1.6.03.62.04 1.15.16 1.68.4.43.17.74.37 1.17.66.74.66 1.27 1.48 1.48 2.42.2.78.32 1.55.2 2.33zm13.64 1.34v-.24c-.1-.78-.52-1.35-1.15-1.8-.43-.3-.85-.5-1.38-.62-.1-.04-.1-.08-.2-.08 0-.08.1-.08.1-.08.3-.16.52-.3.74-.53.43-.34.75-.8.96-1.36v-.86c0-.78-.43-1.4-1.06-1.84-.63-.45-1.38-.65-2.12-.7h-4.55c-.42 0-.84.05-1.27-.03-.1 0-.2-.04-.3.1-.12.15-.23.36-.23.56-.1.08 0 .16.1.16l.96.13c.3.08.63.28.63.6 0 .25.1.46.1.7l-.1 2.62v5.15c0 .33 0 .62-.1.9 0 .2-.1.37-.33.45-.3.08-.52.17-.84.17-.2-.05-.32.08-.43.2 0 .12 0 .3-.1.4 0 .17 0 .2.2.2.12 0 4.77.1 5.62 0 .53-.03 1.06-.1 1.48-.23.95-.28 1.7-.7 2.33-1.38.53-.57.84-1.23.95-2v-.58zm-6.76-5.72v-1.1c0-.2.1-.33.32-.37.3-.04.74-.04 1.05 0 .33 0 .65.04.97.16.63.17 1.05.54 1.37 1.1.1.3.2.55.2.87 0 .37 0 .78-.2 1.15-.2.53-.63.86-1.16.94-.53.12-2 .04-2.33.04-.2 0-.2 0-.2-.2V664v-1.28zm4.55 7.52c-.22.6-.65 1.06-1.28 1.3-.32.13-.74.2-1.06.17-.42 0-.85 0-1.27-.07-.64-.12-.86-.7-.96-1.1v-3.81c0-.2 0-.28.32-.28h1.27l.84.12c.64.12 1.27.37 1.7.86.3.4.52.86.63 1.4 0 .48 0 .93-.2 1.42z" stroke="#000" stroke-opacity="0" stroke-width="1.02" fill="#c2bfbf"/><path d="M565.24 666.03l.32.04c.42.04.84-.12 1.05-.65v-.78c-.1 0-.2.04-.2.08-.2.16-.42.25-.74.3-.42.03-.95.03-1.48-.18l-.63-.2c-.53-.16-.96-.25-1.5-.2-.73.04-1.36.28-2 .6-.63.38-1.16.9-1.37 1.64-.1.45-.1.9-.1 1.35.1 1.03.63 1.72 1.58 2.1l.2.07c.12.04.12.12 0 .25l-.3.2-.85.53c-.2.12-.2.2-.2.45.1.3.3.5.52.65.1.2.32.3.64.4.1.1.1.1 0 .22l-.85.57c-.2.2-.52.4-.73.7-.32.32-.42.77-.32 1.22.1.52.32.93.74 1.26.3.37.74.57 1.26.7.75.24 1.6.24 2.44.08 1.06-.2 2.1-.7 2.86-1.56.52-.57.84-1.26.95-2.04 0-.98-.63-1.84-1.58-2.05l-.74-.13-2.22-.2c-.32-.04-.53-.08-.74-.2-.32-.17-.32-.5-.2-.7.1-.17.3-.25.5-.25l.44-.04c.95-.12 1.7-.45 2.33-1.1.4-.33.62-.7.73-1.2.2-.56.2-1.2 0-1.83 0-.12 0-.16.2-.12zm-3.4 6.95h.22c.53.04 1.17.08 1.7.2.2.1.42.13.63.25.52.3.73.82.63 1.4-.1.6-.43 1.05-.96 1.38-.3.2-.74.3-1.16.34h-.4c-.54 0-1.07-.04-1.5-.25-.3-.13-.52-.34-.84-.58-.42-.5-.64-1.4 0-2.1.53-.4.95-.68 1.7-.64zm1.6-4.33c-.32.73-.95.94-1.6.85-.62-.08-1.05-.4-1.36-.94-.32-.73-.43-1.47-.22-2.2.1-.58.53-1.03 1.17-1.1.74-.17 1.48.12 1.9.9.22.36.32.85.32 1.5-.1.25-.1.62-.2.95zm-17.67-.98c-.1-.74-.32-1.44-.85-2-.85-.87-1.8-1.23-2.86-1.23-.95 0-1.9.28-2.75.77-.73.5-1.26 1.2-1.58 2.14-.2.82-.2 1.63 0 2.45.43 2.2 2.12 3.14 4.24 3.02.53-.04 1.16-.25 1.7-.5.73-.4 1.37-.98 1.8-1.8.3-.65.4-1.34.4-2.12l-.1-.73zm-1.9 3.1c-.22.66-.75 1.1-1.5 1.2-.62.07-1.15-.1-1.68-.46-.44-.28-.65-.6-.86-1-.63-1.2-.74-2.43-.42-3.7.1-.4.32-.73.63-1.02.53-.45 1.06-.57 1.8-.45.64.17 1.06.5 1.48 1.03.43.53.64 1.14.74 1.8v.85c0 .67 0 1.24-.2 1.77zm32.48-2.98c-.1-.83-.42-1.57-1.06-2.18-.75-.82-1.7-1.18-2.76-1.18-.95 0-1.8.24-2.65.73-.85.5-1.5 1.27-1.7 2.3-.32 1.14-.2 2.24.32 3.3.42.98 1.27 1.6 2.22 1.88 1.16.33 2.22.17 3.28-.32.95-.45 1.6-1.15 2-2.13.22-.53.33-1.14.33-1.84v-.57zm-2 2.8c-.22.74-.65 1.24-1.5 1.36-.52.08-1.16-.08-1.58-.4-.42-.3-.74-.7-.95-1.16-.32-.5-.43-.98-.53-1.5 0-.66 0-1.32.1-1.97 0-.12.1-.25.1-.37.42-.98 1.27-1.43 2.33-1.23.63.17 1.16.54 1.6 1.1.3.58.5 1.2.62 1.85v.78c0 .57 0 1.06-.2 1.55z" stroke="#000" stroke-opacity="0" stroke-width="1.02" fill="#47474a"/><path d="M1049.7 680c-1 .1-1.8.3-2.6.7l-34.7 17.1c-1.9.9-3.2 2.5-3.6 4.6l-8.6 38.5c-.4 1.8-.1 3.6.9 5.2.1.2.2.3.4.5l24 30.8c1.3 1.7 3.1 2.6 5.2 2.6h38.6c2.1 0 3.9-.9 5.2-2.6l24-30.8c1.3-1.7 1.8-3.7 1.3-5.8l-8.6-38.4c-.4-2.1-1.7-3.7-3.6-4.6l-34.7-17.1c-1.1-.5-2.1-.8-3.2-.7z" stroke="#fff" stroke-width="0" fill="#326ce5"/><path d="M1050 693.1c-1.17 0-2.05 1.03-2.05 2.36V696.13c0 .73.14 1.32.22 2 .22 1.46.36 2.72.3 3.9-.16.44-.45.8-.74 1.1v.9c-1.25.14-2.5.3-3.8.58-5.36 1.27-10.05 4.14-13.57 8.06-.22-.15-.66-.45-.73-.6-.37.08-.74.23-1.25-.07-.95-.67-1.76-1.56-2.8-2.67-.5-.5-.8-.95-1.38-1.47-.14-.15-.3-.3-.44-.37-.44-.38-.95-.6-1.46-.6-.66 0-1.25.22-1.7.74-.72.96-.43 2.36.52 3.17l.08.08c.07.08.3.23.36.3.66.44 1.18.74 1.76 1.03 1.25.82 2.27 1.5 3.08 2.3.37.37.37.96.44 1.26l.66.6c-3.6 5.52-5.2 12.4-4.25 19.32l-.88.3c-.22.3-.5.74-.88.88-1.1.37-2.28.52-3.75.67-.66.07-1.24 0-1.98.15-.14 0-.36.07-.58.14-1.26.3-2.06 1.48-1.77 2.6.22 1.17 1.4 1.83 2.64 1.6 0 0 .07 0 .07-.06.22 0 .44-.08.6-.08.65-.22 1.16-.5 1.82-.73 1.4-.52 2.5-.96 3.66-1.1.44-.1.96.28 1.18.43l.88-.22c2.12 6.72 6.44 12.1 12 15.5l-.35.9c.14.35.3.87.14 1.24-.36 1.03-1.1 2.2-1.83 3.47-.44.6-.8 1.03-1.17 1.7-.07.14-.15.44-.22.6-.6 1.17-.15 2.5.88 3 1.03.53 2.27 0 2.86-1.17.06-.15.2-.37.28-.6.3-.65.37-1.24.6-1.9.5-1.4.8-2.96 1.6-3.85.22-.3.5-.36.88-.44l.44-.87c4.84 1.92 10.26 2.36 15.68 1.1 1.18-.3 2.42-.66 3.52-1.1.15.3.44.73.44.8.37.16.8.23 1.1.67.6 1.04.95 2.22 1.4 3.62.2.66.36 1.33.65 2 .07.14.14.36.2.5.6 1.2 1.84 1.78 2.87 1.26 1.03-.5 1.47-1.84.88-3.02-.07-.22-.15-.45-.22-.6-.37-.66-.73-1.1-1.1-1.7-.8-1.32-1.47-2.35-1.9-3.46-.15-.52.07-.9.22-1.25-.15-.08-.3-.6-.37-.82 5.72-3.54 9.97-9.15 11.94-15.57.3 0 .74.15.96.15.3-.2.58-.5 1.1-.44 1.17.15 2.27.6 3.66 1.1.66.23 1.17.53 1.83.75.15.08.37.08.6.16h.06c1.25.3 2.42-.45 2.64-1.55.3-1.17-.5-2.35-1.76-2.65-.13 0-.43-.07-.57-.15-.74-.14-1.32-.07-1.98-.14-1.47-.15-2.64-.3-3.74-.67-.43-.16-.72-.67-.87-.9l-.88-.3c.44-3.24.37-6.56-.44-9.95-.72-3.4-2.04-6.57-3.87-9.3.22-.23.66-.6.73-.67.07-.44 0-.8.44-1.25.8-.74 1.83-1.4 3.08-2.22.58-.36 1.1-.58 1.68-1.02.15-.15.37-.3.52-.37.95-.8 1.17-2.28.5-3.16-.72-.96-2.12-1.04-3.14-.22-.15.14-.3.3-.44.36-.6.52-.88 1.04-1.4 1.55-1.02 1.04-1.83 1.92-2.78 2.6-.44.2-1.03.14-1.25.14l-.8.6c-4.55-4.9-10.63-8-17.3-8.65v-.96c-.3-.22-.66-.44-.73-1.03-.07-1.18.07-2.44.3-3.9.07-.68.2-1.27.2-2v-.67c0-1.33-.87-2.36-2.04-2.36zm-2.64 16.6l-.58 11.3h-.08c0 1.03-.8 1.84-1.83 1.84-.37 0-.73-.15-1.03-.37h-.07l-8.94-6.57c2.78-2.8 6.3-4.8 10.33-5.75.74-.22 1.47-.3 2.2-.45zm5.28 0c4.7.6 9.1 2.8 12.46 6.2l-8.94 6.5c-.8.6-1.9.44-2.5-.37-.3-.3-.44-.66-.44-1.03zm-21.04 10.4l8.2 7.54-.06.07c.73.68.88 1.78.3 2.6-.3.37-.6.5-.96.66h-.07l-10.4 3.17c-.6-5 .6-9.96 3-14.02zm36.72 0c1.25 2.08 2.13 4.3 2.7 6.8.53 2.44.67 4.8.45 7.16l-10.55-3.1v-.07c-.95-.23-1.54-1.27-1.32-2.23.15-.44.3-.74.6-1.03l8.12-7.53zm-20 8.13h3.37l2.04 2.66-.73 3.38-3 1.48-3-1.48-.74-3.4zm10.77 9.15c.06 0 .2 0 .35.08h.08l10.77 1.84c-1.54 4.58-4.62 8.56-8.65 11.22l-4.17-10.48c-.37-.9 0-2 .88-2.44.22-.14.43-.14.73-.22zm-18.26.08c.88 0 1.6.6 1.76 1.47.14.37.07.8-.08 1.18l-4.1 10.42c-3.96-2.58-7.04-6.42-8.65-11.15l10.7-1.9h.37zm9.1 4.57c.28-.07.57 0 .87.15.37.22.67.44.8.8h.1l5.26 9.9c-.73.22-1.4.44-2.12.6-4.03.95-8.06.66-11.73-.67l5.3-9.8c.28-.6.87-.97 1.53-.97z" stroke="#fff" stroke-width=".05" fill="#fff"/><use xlink:href="#c" transform="matrix(1,0,0,1,970,789) translate(51.574999999999996 14.4)"/><path d="M670 406c0-3.3 2.7-6 6-6h108c3.3 0 6 2.7 6 6v88c0 3.3-2.7 6-6 6H676c-3.3 0-6-2.7-6-6z" stroke="#5e5e5e" stroke-width="3" fill="#fff"/><use xlink:href="#b" transform="matrix(1,0,0,1,675,405) translate(10.061728395061728 48.71527777777778)"/><path d="M789.9 381.06c-.4.03-.7.1-1 .26l-13.15 6.48c-.72.34-1.2.95-1.36 1.74l-3.27 14.6c-.15.67-.04 1.35.34 1.96.04.08.08.1.15.2l9.1 11.66c.5.64 1.17 1 1.97 1h14.6c.8 0 1.5-.36 1.98-1l9.1-11.67c.5-.65.68-1.4.5-2.2l-3.27-14.56c-.14-.8-.63-1.4-1.35-1.74l-13.15-6.48c-.42-.2-.8-.3-1.2-.26z" stroke="#000" stroke-opacity="0" stroke-width="3.83" fill="#326ce5"/><path d="M789.88 380c-.4.04-.72.12-1.04.28l-13.88 6.84c-.76.36-1.28 1-1.44 1.84l-3.44 15.4c-.16.72-.04 1.44.36 2.08.04.08.08.12.16.2l9.6 12.32c.52.68 1.24 1.04 2.08 1.04h15.44c.84 0 1.56-.36 2.08-1.04l9.6-12.32c.52-.68.72-1.48.52-2.28l-3.44-15.4c-.16-.84-.68-1.48-1.44-1.84l-13.88-6.84c-.44-.2-.84-.32-1.28-.28zm0 1.08c.44-.04.8.04 1.2.24l13.2 6.48c.68.36 1.16.96 1.36 1.76l3.24 14.56c.16.8 0 1.52-.48 2.16l-9.12 11.68c-.48.64-1.16 1-1.96 1h-14.64c-.8 0-1.48-.36-1.96-1l-9.12-11.68c-.04-.04-.08-.12-.12-.2-.4-.6-.52-1.24-.36-1.96l3.24-14.56c.2-.8.64-1.4 1.36-1.76l13.2-6.48c.32-.16.6-.24.96-.28z" stroke="#000" stroke-opacity="0" stroke-width="3.83" fill="#fff"/><path d="M788 414.02c0 1.2-.4 1.8-1.2 1.8-.52 0-.86-.2-1.03-.6h-.02v1.86h-.54v-4.05-.7h.53v.1c0 .05 0 .12.02.23v.22h.02c.1-.2.23-.36.4-.46.15-.1.36-.15.62-.15.4 0 .7.14.9.43.2.28.3.72.3 1.32zm-.57 0c0-.46-.06-.8-.18-1-.13-.2-.33-.3-.6-.3-.22 0-.4.04-.5.13-.13.1-.23.25-.3.45-.06.2-.1.46-.1.78 0 .45.08.77.22 1 .14.2.36.3.68.3.27 0 .47-.1.6-.3.12-.2.18-.56.18-1.05zM791.5 414.03c0 .6-.14 1.05-.4 1.34-.24.3-.62.44-1.1.44-.48 0-.85-.15-1.1-.45-.24-.3-.36-.74-.36-1.32 0-1.17.5-1.76 1.48-1.76.5 0 .88.15 1.1.43.25.3.37.73.37 1.33zm-.58 0c0-.47-.08-.8-.2-1.02-.14-.2-.37-.3-.7-.3-.3 0-.55.1-.7.32-.13.2-.2.55-.2 1 0 .46.06.8.2 1.03.15.23.37.33.67.33.32 0 .56-.1.7-.32.14-.22.22-.56.22-1.03zM794.27 415.2c-.1.2-.24.37-.4.46-.18.1-.4.14-.63.14-.42 0-.73-.14-.93-.43-.18-.3-.28-.73-.28-1.32 0-1.2.4-1.78 1.22-1.78.25 0 .45.05.62.14.17.1.3.26.4.46V411.08h.55v3.96c0 .35.02.6.03.7h-.52v-.23c-.02-.1-.02-.22-.02-.3zm-1.67-1.17c0 .48.06.82.18 1.03.12.2.32.3.6.3.3 0 .53-.1.67-.33.15-.22.22-.57.22-1.03 0-.45-.07-.8-.22-1-.14-.2-.36-.3-.67-.3-.27 0-.47.1-.6.3-.12.22-.18.56-.18 1.03z" stroke="#000" stroke-opacity="0" fill="#fff"/><path d="M781.97 393.4L790 391l8.03 2.4-8.03 2.4zM781.97 394.32v8.8l7.48 4.27.04-10.78zM798.03 394.32v8.8l-7.48 4.27-.04-10.78z" stroke="#000" stroke-opacity="0" stroke-width="3.77" fill="#fff"/><path d="M860 406c0-3.3 2.7-6 6-6h108c3.3 0 6 2.7 6 6v88c0 3.3-2.7 6-6 6H866c-3.3 0-6-2.7-6-6z" stroke="#5e5e5e" stroke-width="3" fill="#fff"/><use xlink:href="#b" transform="matrix(1,0,0,1,865,405) translate(10.061728395061728 48.71527777777778)"/><path d="M979.9 381.06c-.4.03-.7.1-1 .26l-13.15 6.48c-.72.34-1.2.95-1.36 1.74l-3.27 14.6c-.15.67-.04 1.35.34 1.96.04.08.08.1.15.2l9.1 11.66c.5.64 1.17 1 1.97 1h14.6c.8 0 1.5-.36 1.98-1l9.1-11.67c.5-.65.68-1.4.5-2.2l-3.27-14.56c-.14-.8-.63-1.4-1.35-1.74l-13.15-6.48c-.42-.2-.8-.3-1.2-.26z" stroke="#000" stroke-opacity="0" stroke-width="3.83" fill="#326ce5"/><path d="M979.88 380c-.4.04-.72.12-1.04.28l-13.88 6.84c-.76.36-1.28 1-1.44 1.84l-3.44 15.4c-.16.72-.04 1.44.36 2.08.04.08.08.12.16.2l9.6 12.32c.52.68 1.24 1.04 2.08 1.04h15.44c.84 0 1.56-.36 2.08-1.04l9.6-12.32c.52-.68.72-1.48.52-2.28l-3.44-15.4c-.16-.84-.68-1.48-1.44-1.84l-13.88-6.84c-.44-.2-.84-.32-1.28-.28zm0 1.08c.44-.04.8.04 1.2.24l13.2 6.48c.68.36 1.16.96 1.36 1.76l3.24 14.56c.16.8 0 1.52-.48 2.16l-9.12 11.68c-.48.64-1.16 1-1.96 1h-14.64c-.8 0-1.48-.36-1.96-1l-9.12-11.68c-.04-.04-.08-.12-.12-.2-.4-.6-.52-1.24-.36-1.96l3.24-14.56c.2-.8.64-1.4 1.36-1.76l13.2-6.48c.32-.16.6-.24.96-.28z" stroke="#000" stroke-opacity="0" stroke-width="3.83" fill="#fff"/><path d="M978 414.02c0 1.2-.4 1.8-1.2 1.8-.52 0-.86-.2-1.03-.6h-.02v1.86h-.54v-4.05-.7h.53v.1c0 .05 0 .12.02.23v.22h.02c.1-.2.23-.36.4-.46.15-.1.36-.15.62-.15.4 0 .7.14.9.43.2.28.3.72.3 1.32zm-.57 0c0-.46-.06-.8-.18-1-.13-.2-.33-.3-.6-.3-.22 0-.4.04-.5.13-.13.1-.23.25-.3.45-.06.2-.1.46-.1.78 0 .45.08.77.22 1 .14.2.36.3.68.3.27 0 .47-.1.6-.3.12-.2.18-.56.18-1.05zM981.5 414.03c0 .6-.14 1.05-.4 1.34-.24.3-.62.44-1.1.44-.48 0-.85-.15-1.1-.45-.24-.3-.36-.74-.36-1.32 0-1.17.5-1.76 1.48-1.76.5 0 .88.15 1.1.43.25.3.37.73.37 1.33zm-.58 0c0-.47-.08-.8-.2-1.02-.14-.2-.37-.3-.7-.3-.3 0-.55.1-.7.32-.13.2-.2.55-.2 1 0 .46.06.8.2 1.03.15.23.37.33.67.33.32 0 .56-.1.7-.32.14-.22.22-.56.22-1.03zM984.27 415.2c-.1.2-.24.37-.4.46-.18.1-.4.14-.63.14-.42 0-.73-.14-.93-.43-.18-.3-.28-.73-.28-1.32 0-1.2.4-1.78 1.22-1.78.25 0 .45.05.62.14.17.1.3.26.4.46V411.08h.55v3.96c0 .35.02.6.03.7h-.52v-.23c-.02-.1-.02-.22-.02-.3zm-1.67-1.17c0 .48.06.82.18 1.03.12.2.32.3.6.3.3 0 .53-.1.67-.33.15-.22.22-.57.22-1.03 0-.45-.07-.8-.22-1-.14-.2-.36-.3-.67-.3-.27 0-.47.1-.6.3-.12.22-.18.56-.18 1.03z" stroke="#000" stroke-opacity="0" fill="#fff"/><path d="M971.97 393.4L980 391l8.03 2.4-8.03 2.4zM971.97 394.32v8.8l7.48 4.27.04-10.78zM988.03 394.32v8.8l-7.48 4.27-.04-10.78z" stroke="#000" stroke-opacity="0" stroke-width="3.77" fill="#fff"/><path d="M278.63 70.58h35.57c9.32 0 9.32 0 9.32 8.32v31.73c0 8.32 0 8.32-9.32 8.32h-35.57c-9.33 0-9.33 0-9.33-8.32V78.9c0-8.32 0-8.32 9.33-8.32z" fill="#19486f"/><path d="M278.63 68.3h35.57c9.32 0 9.32 0 9.32 8.33v31.74c0 8.32 0 8.32-9.32 8.32h-35.57c-9.33 0-9.33 0-9.33-8.33V76.63c0-8.32 0-8.32 9.33-8.32z" fill="#2e73b8"/><path d="M306.65 60h4.1v12.46h-4.1V60zM282.1 60h4.08v12.46h-4.08V60zM300.52 60h4.08v12.46h-4.08V60zM288.23 60h4.1v12.46h-4.1V60zM294.37 60h4.1v12.46h-4.1V60zM260 101.63h18.5v3.64H260v-3.64zM260 85.2h18.5v3.64H260V85.2zM260 96.15h18.5v3.64H260v-3.65zM260 90.67h18.5v3.65H260v-3.65zM260 79.7h18.5v3.66H260V79.7zM282.1 110.65h4.08V125h-4.08v-14.35zM306.65 110.65h4.1V125h-4.1v-14.35zM288.23 110.65h4.1V125h-4.1v-14.35zM300.52 110.65h4.08V125h-4.08v-14.35zM294.37 110.65h4.1V125h-4.1v-14.35zM316.54 96.15h16.3v3.64h-16.3v-3.65zM316.54 79.7h16.3v3.66h-16.3V79.7zM316.54 90.67h16.3v3.65h-16.3v-3.65zM316.54 85.2h16.3v3.64h-16.3V85.2zM316.54 101.63h16.3v3.64h-16.3v-3.64z" fill="#2e73b8"/><path d="M317.73 87.72c3.13 10.46-3.84 21.25-15.62 24.08-11.72 2.8-23.8-3.42-26.98-13.93-3.13-10.47 3.83-21.25 15.6-24.08 11.74-2.8 23.83 3.4 27 13.92z" fill="#fff"/><path d="M292.27 80.33c-.7 0-1.3-.4-1.5-1l-.37-1.3c-.2-.72.27-1.47 1.1-1.67.8-.2 1.65.24 1.87.97l.4 1.28c.2.74-.27 1.5-1.1 1.68-.13.04-.26.05-.4.05zM300.57 80.33c-.14 0-.26 0-.4-.04-.8-.2-1.3-.96-1.08-1.7l.38-1.27c.22-.73 1.06-1.16 1.88-.97.82.2 1.3.95 1.1 1.68l-.4 1.28c-.18.6-.78 1.02-1.5 1zM307.75 84.04c-.85 0-1.54-.6-1.55-1.35 0-.4.14-.72.45-1l1.02-.9c.57-.56 1.55-.6 2.17-.07.6.5.65 1.38.07 1.93 0 .03-.04.05-.06.07l-1.03.9c-.28.27-.63.4-1.05.4zM285.08 84.04c-.42 0-.78-.13-1.08-.4l-1.02-.9c-.6-.55-.6-1.43 0-1.97s1.58-.54 2.2 0l1 .9c.6.55.6 1.4 0 1.95-.3.26-.65.4-1.07.4zM301.23 104.5c0 2.38-2.16 4.3-4.82 4.3-2.64 0-4.8-1.92-4.8-4.3 0-2.37 2.16-4.3 4.8-4.3 2.67 0 4.83 1.93 4.83 4.3z" fill="#2e73b8"/><path d="M296.42 105.87c-.85 0-1.54-.6-1.54-1.36v-20c0-.77.7-1.38 1.54-1.38.84 0 1.53.6 1.53 1.37v20c0 .76-.7 1.37-1.53 1.37zM293.6 85.4h-1.72c-.28 0-.5-.2-.5-.45s.22-.46.5-.46h1.73c.3 0 .52.2.52.45s-.23.45-.5.45zM293.6 87.85h-3.17c-.3 0-.5-.2-.5-.46s.2-.46.5-.46h3.2c.28 0 .5.2.5.45 0 .24-.22.45-.5.45zM293.6 90.3h-1.72c-.28 0-.5-.2-.5-.46 0-.25.22-.45.5-.45h1.73c.3 0 .52.2.52.44 0 .25-.23.46-.5.46zM293.6 92.74h-3.17c-.3 0-.5-.2-.5-.45 0-.27.2-.47.5-.47h3.2c.28 0 .5.2.5.46 0 .24-.22.44-.5.44zM293.6 95.18h-1.72c-.28 0-.5-.2-.5-.46 0-.25.22-.45.5-.45h1.73c.3 0 .52.2.52.45s-.23.46-.5.46zM293.6 97.62h-3.17c-.3 0-.5-.2-.5-.45s.2-.46.5-.46h3.2c.28 0 .5.22.5.47 0 .25-.22.45-.5.45zM293.6 100.07h-1.72c-.28 0-.5-.2-.5-.45s.22-.46.5-.46h1.73c.3 0 .52.2.52.46 0 .25-.23.45-.5.45z" fill="#2e73b8"/><use xlink:href="#d" transform="matrix(1,0,0,1,260,125) translate(2.611111111111107 17.77777777777778)"/><path d="M624.07 175.4l3.42.94 2.52 2.53.92 3.4v27.06h-2v-26.8l-.72-2.63-1.77-1.77-2.64-.72h-35.9v-2m-288.62-2.48l1.78 1.78 2.64.7h35.9v2h-36.17l-3.4-.9-2.54-2.54-.93-3.42V126h2v44.28" fill="#333"/><path d="M298.57 126.02h-2V125h1.9v-3h.1M629.94 224.6l-4.64-14.27h9.27z" fill="#333"/><path d="M629.94 227.83l-6-18.5h12m-9.26 2l3.26 10.03 3.26-10.03" fill="#333"/><use xlink:href="#e" transform="matrix(1,0,0,1,339.6039894322131,165.74526263464872) translate(0 14.222222222222223)"/><path d="M650 319.67v32.92c0 3.3 2.7 6 6 6h258c3.3 0 6 2.67 6 6V380" stroke="#5e5e5e" stroke-width="2" fill="none"/><path d="M651 319.7h-2v-1.03h2" fill="#5e5e5e"/><path d="M920 395.26L915.36 381h9.28z" stroke="#5e5e5e" stroke-width="2" fill="#5e5e5e"/><path d="M370 502.5V544c0 3.3 2.7 6 6 6h348c3.3 0 6 2.7 6 6v24" stroke="#5e5e5e" stroke-width="2" fill="none"/><path d="M371 502.53h-2v-1.03h2" fill="#5e5e5e"/><path d="M730 595.26L725.36 581h9.28z" stroke="#5e5e5e" stroke-width="2" fill="#5e5e5e"/><path d="M550 502.5v78.9" stroke="#5e5e5e" stroke-width="2" fill="none"/><path d="M551 502.53h-2v-1.03h2" fill="#5e5e5e"/><path d="M550 596.68l-4.64-14.27h9.28z" stroke="#5e5e5e" stroke-width="2" fill="#5e5e5e"/><path d="M920 502.5V544c0 3.3-2.7 6-6 6H736c-3.3 0-6 2.7-6 6v24" stroke="#5e5e5e" stroke-width="2" fill="none"/><path d="M921 502.53h-2v-1.03h2" fill="#5e5e5e"/><path d="M730 595.26L725.36 581h9.28z" stroke="#5e5e5e" stroke-width="2" fill="#5e5e5e"/><path d="M1101.93 42.74c0 10.28-11.6 18.6-25.87 18.6-14.35 0-25.93-8.32-25.93-18.6 0-10.3 11.58-18.6 25.93-18.6 14.28 0 25.87 8.3 25.87 18.6zM1053.84 63.16h44.96c13.84 0 13.84 0 13.84 10s0 10-13.84 10h-44.96c-13.84 0-13.84 0-13.84-10s0-10 13.84-10z" fill="#29aae1"/><path d="M1056.9 79.92h38.25v41.27h-38.25V79.9z" fill="#29aae1"/><path d="M1056.9 119.64h17.27v45.5h-17.27v-45.5zM1079.12 120.07h16.03v44.8h-16.03v-44.8zM1040.15 70.63h13.1v39.86h-13.1V70.62zM1099.3 71.2h13.27v39.85h-13.26V71.2z" fill="#29aae1"/><use xlink:href="#f" transform="matrix(1,0,0,1,1010,165.00000000000006) translate(43.10493827160494 19.444444444444443)"/><path d="M685 181h-9.07l-2.64.7-1.8 1.8-.7 2.63v23.07h-2v-23.33l.92-3.42 2.53-2.53 3.42-.92H685m354.15-83.43h-13.02l-2.64.72-1.8 1.76-.7 2.64v73.43l-.92 3.42-2.53 2.53-3.42.92h-7.2v-2h6.94l2.64-.7 1.8-1.8.7-2.63v-73.43l.92-3.42 2.53-2.53 3.42-.93h13.28M669.8 224.47l-4.64-14.27h9.27z" fill="#c92d39"/><path d="M669.8 227.7l-6-18.5h12m-9.26 2l3.26 10.03 3.26-10.03M1040.15 95.57h-1.03v-2h1.03" fill="#c92d39"/><use xlink:href="#g" transform="matrix(1,0,0,1,685.0140597092453,169.33333333333334) translate(0 14.222222222222223)"/><path d="M790 708c0 6.63-26.86 12-60 12s-60-5.37-60-12v-96c0-6.63 26.86-12 60-12s60 5.37 60 12z" stroke="#5e5e5e" stroke-width="3" fill="#fff"/><path d="M790 612c0 6.63-26.86 12-60 12s-60-5.37-60-12" stroke="#5e5e5e" stroke-width="3" fill="none"/><path d="M714.16 673.7h-2.53v-10.2h-3.3v-2.06h9.13v2.07h-3.3zM720.98 662.8c-.1.7-.66 1.27-1.43 1.27-.66-.03-1.2-.6-1.2-1.3 0-.7.54-1.27 1.2-1.3h.1c.78 0 1.33.56 1.33 1.33zm-.22 10.9h-2.3v-8.5h2.3zM724.72 665.13v1.06c.55-.96 1.2-1.37 2.3-1.37 1.1 0 2 .5 2.32 1.42.55-.98 1.43-1.42 2.64-1.42.88 0 1.54.27 1.98.8.55.56.77 1.15.77 2.44v5.54h-2.42v-5.12c0-1.14-.32-1.67-1.3-1.67-.78 0-1.33.62-1.33 1.68v5.13h-2.3v-5.03c0-1.18-.45-1.76-1.33-1.76-.88 0-1.32.6-1.32 1.77v5.04h-2.3v-8.47zM761.24 672.8c-.88.87-1.98 1.25-3.2 1.25-2.63 0-4.5-1.9-4.5-4.5 0-2.7 1.87-4.57 4.5-4.57 1.22 0 2.32.44 3.42 1.4l-1.54 1.43c-.55-.52-1.1-.76-1.76-.76-1.32 0-2.3 1.06-2.3 2.45 0 1.43.98 2.5 2.4 2.5.56 0 1-.22 1.66-.75zM768.5 665.27h2.42v8.5h-2.42v-1.2c-.77 1-1.65 1.48-2.97 1.48-2.3 0-4.07-1.85-4.07-4.45 0-2.68 1.87-4.62 4.3-4.62 1.2 0 1.97.38 2.74 1.35zm-4.5 4.3c0 1.48.98 2.6 2.2 2.6 1.3 0 2.4-1.2 2.4-2.68 0-1.52-.98-2.58-2.4-2.58-1.33 0-2.2 1.1-2.2 2.65zM772.46 673.85V661.6h2.3v12.25zM744.63 670.16h-6.93c0 .6.33 1.1.77 1.48.44.35 1 .56 1.65.56.88 0 1.54-.3 2.1-.86l1.86.86c-.44.64-1 1.1-1.65 1.44-.66.3-1.43.47-2.3.47-1.33 0-2.43-.43-3.3-1.28-.9-.86-1.33-1.95-1.33-3.25 0-1.32.44-2.4 1.32-3.3.88-.88 1.98-1.32 3.2-1.32 1.42 0 2.52.44 3.4 1.33.77.88 1.2 2.03 1.2 3.47zm-2.2-1.7c-.1-.5-.33-.9-.77-1.18-.44-.33-1-.47-1.54-.47-.55 0-1.1.15-1.54.5-.33.24-.55.6-.88 1.16zM785 670.25h-7.04c.1.6.33 1.06.88 1.48.44.35 1 .53 1.65.53.76.03 1.53-.27 2.08-.86l1.87.9c-.44.6-1 1.08-1.65 1.4-.66.32-1.43.47-2.3.47-1.33 0-2.43-.4-3.3-1.27-.9-.88-1.33-1.94-1.33-3.24 0-1.32.44-2.44 1.32-3.3.76-.88 1.86-1.32 3.18-1.32s2.53.44 3.3 1.32c.88.86 1.32 2.04 1.32 3.48zm-2.2-1.74c-.1-.5-.44-.87-.88-1.16-.44-.33-.88-.48-1.43-.45-.67-.04-1.1.14-1.66.5-.22.2-.55.58-.77 1.1zM746.28 671.14c0 .06.66.53 1.87.9.55.16 1.1.2 1.76.1.34-.06.56-.15.78-.33.1-.05.22-.13.22-.28 0-.2 0-.4-.22-.56-.1-.2-.44-.3-.66-.35-.55-.17-1.1-.3-1.65-.38-.55-.1-1.1-.23-1.54-.5-.66-.32-1.1-.68-1.32-1.38-.2-.74-.1-1.45.34-2.06.77-1.12 2.2-1.36 2.86-1.42 2.42-.15 4.07 1.3 4.18 1.4l-1.32 1.46s-1.2-1.03-2.64-.9c-.88.02-1.2.34-1.32.46-.1.1-.1.23-.1.38 0 .24.1.44 1.2.7.66.15 1.1.24 1.87.48 1.32.4 2.53 1.27 2.3 2.86-.2 1.76-2.08 2.4-3.62 2.4-.66 0-1.1-.05-1.76-.22-1.66-.53-2.43-1.1-2.54-1.18l1.32-1.6z" stroke="#000" stroke-opacity="0" stroke-width=".52" fill="#333"/><path d="M704.48 667.57c0 8.13-6.6 14.73-14.74 14.73S675 675.7 675 667.57s6.6-14.73 14.74-14.73 14.74 6.6 14.74 14.73z" stroke="#000" stroke-opacity="0" stroke-width=".52" fill="#f8eed0"/><path d="M689.74 657.67c5.4 0 9.9 4.42 9.9 9.87 0 5.45-4.5 9.9-9.9 9.9-5.5 0-9.9-4.45-9.9-9.9s4.4-9.87 9.9-9.87z" stroke="#000" stroke-opacity="0" stroke-width=".52" fill="#fcb415"/><path d="M692.16 664.9c.66-1.45 1.98-2.25 3.2-1.78 1.1.47 1.53 2 .87 3.45-.55 1.44-1.98 2.24-3.08 1.8-1.1-.47-1.54-2.04-1-3.48z" stroke="#000" stroke-opacity="0" stroke-width=".2" fill="#fff"/><path d="M689.74 673.67c1.54 0 2.86 1.35 2.86 3.06 0 1.68-1.32 3.07-2.86 3.07-1.54 0-2.86-1.4-2.86-3.07 0-1.7 1.32-3.06 2.86-3.06z" stroke="#000" stroke-opacity="0" stroke-width=".52" fill="#fff"/><path d="M684.24 663.12c1.1-.47 2.53.33 3.08 1.77.66 1.43.22 3-.88 3.47-1.2.44-2.53-.36-3.2-1.8-.54-1.44-.1-2.98 1-3.45z" stroke="#000" stroke-opacity="0" stroke-width=".48" fill="#fff"/><path d="M694.8 677.06c3.2-1.74 5.17-4.7 5.5-8.34l1.76 1.97c-1 3.97-3.52 6.98-7.26 8.6v-1.06-1.18zm-8.47.7c2.3.8 4.62.77 6.93-.05-.22.92-.55 1.63-1.1 2.4-1.65.32-3.08.35-4.84.02-.44-.76-.77-1.47-1-2.36zm-1.65-.67c-3.2-1.75-5.28-4.76-5.6-8.44l-1.66 2.18c1 3.95 3.52 6.9 7.37 8.5-.12-.4-.12-.72-.12-1.1v-1.15zm13.64-15.83l1.2-1.74c-.98-1.1-1.86-1.9-3.07-2.65l-1.98 1.18c1.54.8 2.75 1.8 3.85 3.2zm-15.18-4.48c-1.32.76-2.3 1.6-3.2 2.73l1.33 1.53c1.1-1.32 2.2-2.27 3.74-3zM682.7 667.57c0-3.18 1.98-5.86 5.06-6.77.1-.36.22-.65.44-.95-2.1.42-3.74 1.5-4.95 3.3-2.42 3.6-1.54 8.5 2.1 10.9l.32-.76c-1.98-1.37-2.97-3.4-2.97-5.73z" stroke="#000" stroke-opacity="0" stroke-width=".52" fill="#333"/><path d="M684.02 665.2l.66.16c.55-1.3 1.43-2.2 2.75-2.8v-.7c-1.54.64-2.64 1.76-3.4 3.35zM684.24 668.43h-.55c.2 1.68.98 3 2.4 4.03 0-.2.12-.35.23-.53-1.1-.88-1.76-2.06-2.1-3.5zM694.8 665.4l.55-.2c-.66-1.78-2.1-3.02-3.96-3.55 0 .24.1.44.1.68 1.54.53 2.64 1.56 3.3 3.06zM695.9 666.78l-.66-.65-2.1.32-.32.97 1 .65 1.75-.65.33-.64zM683.7 666.78l.65-.65 2.1.32.32.97-1 .65-1.75-.65-.33-.64zM695.57 669.43c.1-.36.1-.65.22-1h-.67c0 .2 0 .35-.1.56.2.13.32.28.54.43zM693.6 671.46c-.12.18-.34.3-.45.44l.33.5c.22-.2.44-.4.77-.67l-.66-.27z" stroke="#000" stroke-opacity="0" stroke-width=".52" fill="#333"/><path d="M696.78 667.57c0 .9-.1 1.7-.55 2.6.22.23.44.5.55.8.44-.86.66-1.63.77-2.57.44-4.3-2.64-8.2-6.93-8.64.22.27.33.56.44.9 3.4.64 5.72 3.5 5.72 6.9zM695.13 672.05c-.33.47-.77.82-1.2 1.2.1.24.1.5.2.77.78-.53 1.44-1.1 2-1.85-.34 0-.67-.03-1-.12zM690.4 666.6l-.66-6.9h-.66l-.55 6.93v.36c.1.16.1.25.1.37.12.3.34.5.56.64.1.04.1.1.2.13v.03l6.83 3.77.44-.5zM691.28 676.03c-.55 0-1-.33-1.1-.86l2.53-.97-.65-1.5-2.3.97-2.43-.97-.55 1.5 2.53 1c-.22.5-.66.83-1.1.83h-.1l-.56.73c.77.27 1.65 0 2.2-.67.55.66 1.43.93 2.2.63l-.44-.7h-.22z" stroke="#000" stroke-opacity="0" stroke-width=".52" fill="#333"/><path d="M697.66 661.62l-.88.9c2.75 3.93 1.87 9.32-2.1 12.1-.1.08-.1.14-.2.23.1.4.1.8.2 1.24.34-.22.67-.4 1-.66 4.4-3.27 5.17-9.5 1.98-13.82zM681.05 667.54c0-1.85.55-3.47 1.65-4.98l-.88-.94c-.22.35-.44.65-.66 1.03-2.75 4.74-1.1 10.78 3.63 13.5.1-.48.2-.83.32-1.27-2.64-1.65-4.07-4.27-4.07-7.34zM689.74 657.67c-1.54 0-2.86.3-4.3.95l.67 1.06c2.43-1.1 4.85-1.1 7.27 0l.55-1.06c-1.32-.65-2.64-.95-4.18-.95z" stroke="#000" stroke-opacity="0" stroke-width=".52" fill="#333"/><path d="M730 502.5V580" stroke="#c92d39" stroke-width="2" fill="none"/><path d="M731 502.53h-2v-1.03h2" fill="#c92d39"/><path d="M730 595.26L725.36 581h9.28z" stroke="#c92d39" stroke-width="2" fill="#c92d39"/><path d="M650 319.67v32.92c0 3.3 2.7 6 6 6h67.83c3.3 0 6 2.67 6 6V380" stroke="#c92d39" stroke-width="2" fill="none"/><path d="M651 319.7h-2v-1.03h2" fill="#c92d39"/><path d="M729.83 395.26L725.2 381h9.26z" stroke="#c92d39" stroke-width="2" fill="#c92d39"/><defs><path fill="#333" d="M20 75v-336h95v34H67V41h48v34H20" id="h"/><path fill="#333" d="M23 0v-37h61v-169l-59 37v-38l62-41h46v211h57V0H23" id="i"/><path fill="#333" d="M76-54c-1 42 2 86-19 110H24C36 42 46 24 48 0H25v-54h51" id="j"/><path fill="#333" d="M115-3C79 11 28 4 28-45v-112H4v-33h27l15-45h31v45h36v33H77v99c-1 23 16 31 38 25v30" id="k"/><path fill="#333" d="M101-251c68 0 84 54 84 127C185-50 166 4 99 4S15-52 14-124c-1-75 17-127 87-127zm-1 216c37-5 36-46 36-89s4-89-36-89c-39 0-36 45-36 89 0 43-3 85 36 89" id="l"/><path fill="#333" d="M4 75V41h49v-268H4v-34h96V75H4" id="m"/><path fill="#333" d="M52 0c1-96 47-148 87-207H15v-41h169v40c-36 62-79 113-81 208H52" id="n"/><path fill="#333" d="M182-182c0 78-84 86-111 141h115V0H12c-6-101 99-100 120-180 1-22-12-31-33-32-23 0-32 14-35 34l-49-3c5-45 32-70 84-70 51 0 83 22 83 69" id="o"/><path fill="#333" d="M128-127c34 4 56 21 59 58 7 91-148 94-172 28-4-9-6-17-7-26l51-5c1 24 16 35 40 36 23 0 39-12 38-36-1-31-31-36-65-34v-40c32 2 59-3 59-33 0-20-13-33-34-33s-33 13-35 32l-50-3c6-44 37-68 86-68 50 0 83 20 83 66 0 35-22 52-53 58" id="p"/><g id="a"><use transform="matrix(0.04938271604938272,0,0,0.04938271604938272,0,0)" xlink:href="#h"/><use transform="matrix(0.04938271604938272,0,0,0.04938271604938272,5.8765432098765435,0)" xlink:href="#h"/><use transform="matrix(0.04938271604938272,0,0,0.04938271604938272,11.753086419753087,0)" xlink:href="#i"/><use transform="matrix(0.04938271604938272,0,0,0.04938271604938272,21.629629629629633,0)" xlink:href="#j"/><use transform="matrix(0.04938271604938272,0,0,0.04938271604938272,26.567901234567902,0)" xlink:href="#k"/><use transform="matrix(0.04938271604938272,0,0,0.04938271604938272,32.44444444444445,0)" xlink:href="#l"/><use transform="matrix(0.04938271604938272,0,0,0.04938271604938272,42.320987654320994,0)" xlink:href="#j"/><use transform="matrix(0.04938271604938272,0,0,0.04938271604938272,47.25925925925927,0)" xlink:href="#k"/><use transform="matrix(0.04938271604938272,0,0,0.04938271604938272,53.135802469135804,0)" xlink:href="#i"/><use transform="matrix(0.04938271604938272,0,0,0.04938271604938272,63.01234567901235,0)" xlink:href="#m"/><use transform="matrix(0.04938271604938272,0,0,0.04938271604938272,68.8888888888889,0)" xlink:href="#j"/><use transform="matrix(0.04938271604938272,0,0,0.04938271604938272,73.82716049382717,0)" xlink:href="#h"/><use transform="matrix(0.04938271604938272,0,0,0.04938271604938272,79.70370370370371,0)" xlink:href="#n"/><use transform="matrix(0.04938271604938272,0,0,0.04938271604938272,89.58024691358025,0)" xlink:href="#j"/><use transform="matrix(0.04938271604938272,0,0,0.04938271604938272,94.51851851851853,0)" xlink:href="#k"/><use transform="matrix(0.04938271604938272,0,0,0.04938271604938272,100.39506172839508,0)" xlink:href="#i"/><use transform="matrix(0.04938271604938272,0,0,0.04938271604938272,110.27160493827161,0)" xlink:href="#j"/><use transform="matrix(0.04938271604938272,0,0,0.04938271604938272,115.20987654320992,0)" xlink:href="#k"/><use transform="matrix(0.04938271604938272,0,0,0.04938271604938272,121.08641975308645,0)" xlink:href="#o"/><use transform="matrix(0.04938271604938272,0,0,0.04938271604938272,130.962962962963,0)" xlink:href="#m"/><use transform="matrix(0.04938271604938272,0,0,0.04938271604938272,136.83950617283952,0)" xlink:href="#j"/><use transform="matrix(0.04938271604938272,0,0,0.04938271604938272,141.7777777777778,0)" xlink:href="#h"/><use transform="matrix(0.04938271604938272,0,0,0.04938271604938272,147.65432098765433,0)" xlink:href="#o"/><use transform="matrix(0.04938271604938272,0,0,0.04938271604938272,157.5308641975309,0)" xlink:href="#p"/><use transform="matrix(0.04938271604938272,0,0,0.04938271604938272,167.40740740740745,0)" xlink:href="#j"/><use transform="matrix(0.04938271604938272,0,0,0.04938271604938272,172.34567901234573,0)" xlink:href="#k"/><use transform="matrix(0.04938271604938272,0,0,0.04938271604938272,178.22222222222226,0)" xlink:href="#o"/><use transform="matrix(0.04938271604938272,0,0,0.04938271604938272,188.0987654320988,0)" xlink:href="#j"/><use transform="matrix(0.04938271604938272,0,0,0.04938271604938272,193.03703703703707,0)" xlink:href="#k"/><use transform="matrix(0.04938271604938272,0,0,0.04938271604938272,198.9135802469136,0)" xlink:href="#p"/><use transform="matrix(0.04938271604938272,0,0,0.04938271604938272,208.79012345679016,0)" xlink:href="#m"/><use transform="matrix(0.04938271604938272,0,0,0.04938271604938272,214.66666666666663,0)" xlink:href="#m"/></g><path fill="#333" d="M140-251c81 0 123 46 123 126C263-46 219 4 140 4 59 4 17-45 17-125s42-126 123-126zm0 227c63 0 89-41 89-101s-29-99-89-99c-61 0-89 39-89 99S79-25 140-24" id="q"/><path fill="#333" d="M114-163C36-179 61-72 57 0H25l-1-190h30c1 12-1 29 2 39 6-27 23-49 58-41v29" id="r"/><path fill="#333" d="M24-231v-30h32v30H24zM24 0v-190h32V0H24" id="s"/><path fill="#333" d="M100-194c62-1 85 37 85 99 1 63-27 99-86 99S16-35 15-95c0-66 28-99 85-99zM99-20c44 1 53-31 53-75 0-43-8-75-51-75s-53 32-53 75 10 74 51 75" id="t"/><path fill="#333" d="M117-194c89-4 53 116 60 194h-32v-121c0-31-8-49-39-48C34-167 62-67 57 0H25l-1-190h30c1 10-1 24 2 32 11-22 29-35 61-36" id="u"/><path fill="#333" d="M16-82v-28h88v28H16" id="v"/><path fill="#333" d="M30 0v-248h33v221h125V0H30" id="w"/><path fill="#333" d="M30-248c118-7 216 8 213 122C240-48 200 0 122 0H30v-248zM63-27c89 8 146-16 146-99s-60-101-146-95v194" id="x"/><g id="b"><use transform="matrix(0.06172839506172839,0,0,0.06172839506172839,0,0)" xlink:href="#q"/><use transform="matrix(0.06172839506172839,0,0,0.06172839506172839,17.28395061728395,0)" xlink:href="#r"/><use transform="matrix(0.06172839506172839,0,0,0.06172839506172839,24.629629629629626,0)" xlink:href="#s"/><use transform="matrix(0.06172839506172839,0,0,0.06172839506172839,29.50617283950617,0)" xlink:href="#t"/><use transform="matrix(0.06172839506172839,0,0,0.06172839506172839,41.85185185185185,0)" xlink:href="#u"/><use transform="matrix(0.06172839506172839,0,0,0.06172839506172839,54.197530864197525,0)" xlink:href="#v"/><use transform="matrix(0.06172839506172839,0,0,0.06172839506172839,61.5432098765432,0)" xlink:href="#w"/><use transform="matrix(0.06172839506172839,0,0,0.06172839506172839,73.88888888888889,0)" xlink:href="#x"/></g><path d="M212-179c-10-28-35-45-73-45-59 0-87 40-87 99 0 60 29 101 89 101 43 0 62-24 78-52l27 14C228-24 195 4 139 4 59 4 22-46 18-125c-6-104 99-153 187-111 19 9 31 26 39 46" id="y"/><path d="M24 0v-261h32V0H24" id="z"/><path d="M84 4C-5 8 30-112 23-190h32v120c0 31 7 50 39 49 72-2 45-101 50-169h31l1 190h-30c-1-10 1-25-2-33-11 22-28 36-60 37" id="A"/><path d="M135-143c-3-34-86-38-87 0 15 53 115 12 119 90S17 21 10-45l28-5c4 36 97 45 98 0-10-56-113-15-118-90-4-57 82-63 122-42 12 7 21 19 24 35" id="B"/><path d="M59-47c-2 24 18 29 38 22v24C64 9 27 4 27-40v-127H5v-23h24l9-43h21v43h35v23H59v120" id="C"/><path d="M100-194c63 0 86 42 84 106H49c0 40 14 67 53 68 26 1 43-12 49-29l28 8c-11 28-37 45-77 45C44 4 14-33 15-96c1-61 26-98 85-98zm52 81c6-60-76-77-97-28-3 7-6 17-6 28h103" id="D"/><path d="M114-163C36-179 61-72 57 0H25l-1-190h30c1 12-1 29 2 39 6-27 23-49 58-41v29" id="E"/><g id="c"><use transform="matrix(0.05,0,0,0.05,0,0)" xlink:href="#y"/><use transform="matrix(0.05,0,0,0.05,12.950000000000001,0)" xlink:href="#z"/><use transform="matrix(0.05,0,0,0.05,16.900000000000002,0)" xlink:href="#A"/><use transform="matrix(0.05,0,0,0.05,26.900000000000002,0)" xlink:href="#B"/><use transform="matrix(0.05,0,0,0.05,35.900000000000006,0)" xlink:href="#C"/><use transform="matrix(0.05,0,0,0.05,40.900000000000006,0)" xlink:href="#D"/><use transform="matrix(0.05,0,0,0.05,50.900000000000006,0)" xlink:href="#E"/></g><path fill="#333" d="M100-194c63 0 86 42 84 106H49c0 40 14 67 53 68 26 1 43-12 49-29l28 8c-11 28-37 45-77 45C44 4 14-33 15-96c1-61 26-98 85-98zm52 81c6-60-76-77-97-28-3 7-6 17-6 28h103" id="F"/><path fill="#333" d="M108 0H70L1-190h34L89-25l56-165h34" id="G"/><path fill="#333" d="M96-169c-40 0-48 33-48 73s9 75 48 75c24 0 41-14 43-38l32 2c-6 37-31 61-74 61-59 0-76-41-82-99-10-93 101-131 147-64 4 7 5 14 7 22l-32 3c-4-21-16-35-41-35" id="H"/><g id="d"><use transform="matrix(0.06172839506172839,0,0,0.06172839506172839,0,0)" xlink:href="#x"/><use transform="matrix(0.06172839506172839,0,0,0.06172839506172839,15.987654320987653,0)" xlink:href="#F"/><use transform="matrix(0.06172839506172839,0,0,0.06172839506172839,28.333333333333332,0)" xlink:href="#G"/><use transform="matrix(0.06172839506172839,0,0,0.06172839506172839,39.44444444444444,0)" xlink:href="#s"/><use transform="matrix(0.06172839506172839,0,0,0.06172839506172839,44.32098765432099,0)" xlink:href="#H"/><use transform="matrix(0.06172839506172839,0,0,0.06172839506172839,55.4320987654321,0)" xlink:href="#F"/></g><path fill="#333" d="M35-132v-50h50v50H35zM35 0v-49h50V0H35" id="I"/><path fill="#333" d="M165-50V0h-47v-50H5v-38l105-160h55v161h33v37h-33zm-47-37l2-116L46-87h72" id="J"/><path fill="#333" d="M139-81c0-46-55-55-73-27H18l9-140h149v37H72l-4 63c44-38 133-4 122 66C201 21 21 35 11-62l49-4c5 18 15 30 39 30 26 0 40-18 40-45" id="K"/><path fill="#333" d="M24 0v-54h51V0H24" id="L"/><path fill="#333" d="M135-194c87-1 58 113 63 194h-50c-7-57 23-157-34-157-59 0-34 97-39 157H25l-1-190h47c2 12-1 28 3 38 12-26 28-41 61-42" id="M"/><g id="e"><use transform="matrix(0.04938271604938272,0,0,0.04938271604938272,0,0)" xlink:href="#k"/><use transform="matrix(0.04938271604938272,0,0,0.04938271604938272,5.8765432098765435,0)" xlink:href="#l"/><use transform="matrix(0.04938271604938272,0,0,0.04938271604938272,15.753086419753087,0)" xlink:href="#I"/><use transform="matrix(0.04938271604938272,0,0,0.04938271604938272,21.629629629629633,0)" xlink:href="#i"/><use transform="matrix(0.04938271604938272,0,0,0.04938271604938272,31.506172839506174,0)" xlink:href="#j"/><use transform="matrix(0.04938271604938272,0,0,0.04938271604938272,36.44444444444445,0)" xlink:href="#k"/><use transform="matrix(0.04938271604938272,0,0,0.04938271604938272,42.320987654320994,0)" xlink:href="#i"/><use transform="matrix(0.04938271604938272,0,0,0.04938271604938272,52.19753086419754,0)" xlink:href="#I"/><use transform="matrix(0.04938271604938272,0,0,0.04938271604938272,58.074074074074076,0)" xlink:href="#o"/><use transform="matrix(0.04938271604938272,0,0,0.04938271604938272,67.95061728395063,0)" xlink:href="#j"/><use transform="matrix(0.04938271604938272,0,0,0.04938271604938272,72.88888888888891,0)" xlink:href="#k"/><use transform="matrix(0.04938271604938272,0,0,0.04938271604938272,78.76543209876546,0)" xlink:href="#o"/><use transform="matrix(0.04938271604938272,0,0,0.04938271604938272,88.641975308642,0)" xlink:href="#I"/><use transform="matrix(0.04938271604938272,0,0,0.04938271604938272,94.51851851851855,0)" xlink:href="#i"/><use transform="matrix(0.04938271604938272,0,0,0.04938271604938272,104.39506172839509,0)" xlink:href="#o"/><use transform="matrix(0.04938271604938272,0,0,0.04938271604938272,114.27160493827164,0)" xlink:href="#j"/><use transform="matrix(0.04938271604938272,0,0,0.04938271604938272,119.20987654320992,0)" xlink:href="#k"/><use transform="matrix(0.04938271604938272,0,0,0.04938271604938272,125.08641975308645,0)" xlink:href="#p"/><use transform="matrix(0.04938271604938272,0,0,0.04938271604938272,134.962962962963,0)" xlink:href="#I"/><use transform="matrix(0.04938271604938272,0,0,0.04938271604938272,140.83950617283952,0)" xlink:href="#p"/><use transform="matrix(0.04938271604938272,0,0,0.04938271604938272,150.71604938271605,0)" xlink:href="#J"/><use transform="matrix(0.04938271604938272,0,0,0.04938271604938272,160.5925925925926,0)" xlink:href="#j"/><use transform="matrix(0.04938271604938272,0,0,0.04938271604938272,165.5308641975309,0)" xlink:href="#k"/><use transform="matrix(0.04938271604938272,0,0,0.04938271604938272,171.40740740740742,0)" xlink:href="#J"/><use transform="matrix(0.04938271604938272,0,0,0.04938271604938272,181.28395061728395,0)" xlink:href="#I"/><use transform="matrix(0.04938271604938272,0,0,0.04938271604938272,187.16049382716048,0)" xlink:href="#K"/><use transform="matrix(0.04938271604938272,0,0,0.04938271604938272,197.037037037037,0)" xlink:href="#o"/><use transform="matrix(0.04938271604938272,0,0,0.04938271604938272,206.91358024691354,0)" xlink:href="#L"/><use transform="matrix(0.04938271604938272,0,0,0.04938271604938272,211.85185185185188,0)" xlink:href="#L"/><use transform="matrix(0.04938271604938272,0,0,0.04938271604938272,216.79012345679016,0)" xlink:href="#L"/><use transform="matrix(0.04938271604938272,0,0,0.04938271604938272,221.7283950617284,0)" xlink:href="#L"/><use transform="matrix(0.04938271604938272,0,0,0.04938271604938272,226.66666666666669,0)" xlink:href="#j"/><use transform="matrix(0.04938271604938272,0,0,0.04938271604938272,231.60493827160496,0)" xlink:href="#k"/><use transform="matrix(0.04938271604938272,0,0,0.04938271604938272,237.4814814814815,0)" xlink:href="#M"/></g><path fill="#333" d="M232-93c-1 65-40 97-104 97C67 4 28-28 28-90v-158h33c8 89-33 224 67 224 102 0 64-133 71-224h33v155" id="N"/><path fill="#333" d="M135-143c-3-34-86-38-87 0 15 53 115 12 119 90S17 21 10-45l28-5c4 36 97 45 98 0-10-56-113-15-118-90-4-57 82-63 122-42 12 7 21 19 24 35" id="O"/><g id="f"><use transform="matrix(0.06172839506172839,0,0,0.06172839506172839,0,0)" xlink:href="#N"/><use transform="matrix(0.06172839506172839,0,0,0.06172839506172839,15.987654320987653,0)" xlink:href="#O"/><use transform="matrix(0.06172839506172839,0,0,0.06172839506172839,27.098765432098766,0)" xlink:href="#F"/><use transform="matrix(0.06172839506172839,0,0,0.06172839506172839,39.44444444444444,0)" xlink:href="#r"/></g><path fill="#333" d="M195-6C206 82 75 100 31 46c-4-6-6-13-8-21l49-6c3 16 16 24 34 25 40 0 42-37 40-79-11 22-30 35-61 35-53 0-70-43-70-97 0-56 18-96 73-97 30 0 46 14 59 34l2-30h47zm-90-29c32 0 41-27 41-63 0-35-9-62-40-62-32 0-39 29-40 63 0 36 9 62 39 62" id="P"/><path fill="#333" d="M185-48c-13 30-37 53-82 52C43 2 14-33 14-96s30-98 90-98c62 0 83 45 84 108H66c0 31 8 55 39 56 18 0 30-7 34-22zm-45-69c5-46-57-63-70-21-2 6-4 13-4 21h74" id="Q"/><path fill="#333" d="M199 0l-22-63H83L61 0H9l90-248h61L250 0h-51zm-33-102l-36-108c-10 38-24 72-36 108h72" id="R"/><path fill="#333" d="M128 0H69L1-190h53L99-40l48-150h52" id="S"/><path fill="#333" d="M67-93c0 74 22 123 53 168H70C40 30 18-18 18-93s22-123 52-168h50c-32 44-53 94-53 168" id="T"/><path fill="#333" d="M137-138c1-29-70-34-71-4 15 46 118 7 119 86 1 83-164 76-172 9l43-7c4 19 20 25 44 25 33 8 57-30 24-41C81-84 22-81 20-136c-2-80 154-74 161-7" id="U"/><path fill="#333" d="M133-34C117-15 103 5 69 4 32 3 11-16 11-54c-1-60 55-63 116-61 1-26-3-47-28-47-18 1-26 9-28 27l-52-2c7-38 36-58 82-57s74 22 75 68l1 82c-1 14 12 18 25 15v27c-30 8-71 5-69-32zm-48 3c29 0 43-24 42-57-32 0-66-3-65 30 0 17 8 27 23 27" id="V"/><path fill="#333" d="M135-150c-39-12-60 13-60 57V0H25l-1-190h47c2 13-1 29 3 40 6-28 27-53 61-41v41" id="W"/><path fill="#333" d="M15-148v-39h180v39H15zm0 97v-39h180v39H15" id="X"/><path fill="#333" d="M88-194c31-1 46 15 58 34l-1-101h50l1 261h-48c-2-10 0-23-3-31C134-8 116 4 84 4 32 4 16-41 15-95c0-56 19-97 73-99zm17 164c33 0 40-30 41-66 1-37-9-64-41-64s-38 30-39 65c0 43 13 65 39 65" id="Y"/><path fill="#333" d="M14-72v-43h91v43H14" id="Z"/><path fill="#333" d="M135-194c53 0 70 44 70 98 0 56-19 98-73 100-31 1-45-17-59-34 3 33 2 69 2 105H25l-1-265h48c2 10 0 23 3 31 11-24 29-35 60-35zM114-30c33 0 39-31 40-66 0-38-9-64-40-64-56 0-55 130 0 130" id="aa"/><path fill="#333" d="M25-224v-37h50v37H25zM25 0v-190h50V0H25" id="ab"/><path fill="#333" d="M110-194c64 0 96 36 96 99 0 64-35 99-97 99-61 0-95-36-95-99 0-62 34-99 96-99zm-1 164c35 0 45-28 45-65 0-40-10-65-43-65-34 0-45 26-45 65 0 36 10 65 43 65" id="ac"/><path fill="#333" d="M102-93c0 74-22 123-52 168H0C30 29 54-18 53-93c0-74-22-123-53-168h50c30 45 52 94 52 168" id="ad"/><g id="g"><use transform="matrix(0.04938271604938272,0,0,0.04938271604938272,0,0)" xlink:href="#P"/><use transform="matrix(0.04938271604938272,0,0,0.04938271604938272,10.814814814814815,0)" xlink:href="#Q"/><use transform="matrix(0.04938271604938272,0,0,0.04938271604938272,20.69135802469136,0)" xlink:href="#k"/><use transform="matrix(0.04938271604938272,0,0,0.04938271604938272,26.567901234567902,0)" xlink:href="#R"/><use transform="matrix(0.04938271604938272,0,0,0.04938271604938272,38.71604938271606,0)" xlink:href="#S"/><use transform="matrix(0.04938271604938272,0,0,0.04938271604938272,48.5925925925926,0)" xlink:href="#P"/><use transform="matrix(0.04938271604938272,0,0,0.04938271604938272,59.407407407407426,0)" xlink:href="#T"/><use transform="matrix(0.04938271604938272,0,0,0.04938271604938272,65.28395061728396,0)" xlink:href="#U"/><use transform="matrix(0.04938271604938272,0,0,0.04938271604938272,75.16049382716051,0)" xlink:href="#k"/><use transform="matrix(0.04938271604938272,0,0,0.04938271604938272,81.03703703703705,0)" xlink:href="#V"/><use transform="matrix(0.04938271604938272,0,0,0.04938271604938272,90.9135802469136,0)" xlink:href="#W"/><use transform="matrix(0.04938271604938272,0,0,0.04938271604938272,97.82716049382718,0)" xlink:href="#k"/><use transform="matrix(0.04938271604938272,0,0,0.04938271604938272,103.70370370370371,0)" xlink:href="#X"/><use transform="matrix(0.04938271604938272,0,0,0.04938271604938272,114.07407407407409,0)" xlink:href="#k"/><use transform="matrix(0.04938271604938272,0,0,0.04938271604938272,119.95061728395062,0)" xlink:href="#l"/><use transform="matrix(0.04938271604938272,0,0,0.04938271604938272,129.8271604938272,0)" xlink:href="#j"/><use transform="matrix(0.04938271604938272,0,0,0.04938271604938272,134.76543209876547,0)" xlink:href="#Q"/><use transform="matrix(0.04938271604938272,0,0,0.04938271604938272,144.64197530864203,0)" xlink:href="#M"/><use transform="matrix(0.04938271604938272,0,0,0.04938271604938272,155.45679012345684,0)" xlink:href="#Y"/><use transform="matrix(0.04938271604938272,0,0,0.04938271604938272,166.27160493827165,0)" xlink:href="#X"/><use transform="matrix(0.04938271604938272,0,0,0.04938271604938272,176.64197530864203,0)" xlink:href="#k"/><use transform="matrix(0.04938271604938272,0,0,0.04938271604938272,182.51851851851856,0)" xlink:href="#p"/><use transform="matrix(0.04938271604938272,0,0,0.04938271604938272,192.3950617283951,0)" xlink:href="#j"/><use transform="matrix(0.04938271604938272,0,0,0.04938271604938272,197.33333333333337,0)" xlink:href="#V"/><use transform="matrix(0.04938271604938272,0,0,0.04938271604938272,207.20987654320993,0)" xlink:href="#P"/><use transform="matrix(0.04938271604938272,0,0,0.04938271604938272,218.02469135802477,0)" xlink:href="#P"/><use transform="matrix(0.04938271604938272,0,0,0.04938271604938272,228.83950617283958,0)" xlink:href="#W"/><use transform="matrix(0.04938271604938272,0,0,0.04938271604938272,235.75308641975312,0)" xlink:href="#Z"/><use transform="matrix(0.04938271604938272,0,0,0.04938271604938272,241.62962962962965,0)" xlink:href="#aa"/><use transform="matrix(0.04938271604938272,0,0,0.04938271604938272,252.44444444444446,0)" xlink:href="#Q"/><use transform="matrix(0.04938271604938272,0,0,0.04938271604938272,262.320987654321,0)" xlink:href="#W"/><use transform="matrix(0.04938271604938272,0,0,0.04938271604938272,269.2345679012346,0)" xlink:href="#ab"/><use transform="matrix(0.04938271604938272,0,0,0.04938271604938272,274.17283950617286,0)" xlink:href="#ac"/><use transform="matrix(0.04938271604938272,0,0,0.04938271604938272,284.9876543209877,0)" xlink:href="#Y"/><use transform="matrix(0.04938271604938272,0,0,0.04938271604938272,295.80246913580254,0)" xlink:href="#X"/><use transform="matrix(0.04938271604938272,0,0,0.04938271604938272,306.1728395061729,0)" xlink:href="#i"/><use transform="matrix(0.04938271604938272,0,0,0.04938271604938272,316.0493827160495,0)" xlink:href="#ad"/></g></defs></g></svg>