<svg xmlns="http://www.w3.org/2000/svg" xmlns:xlink="http://www.w3.org/1999/xlink" xmlns:lucid="lucid" width="1240" height="766"><g transform="translate(-220 -20)" lucid:page-tab-id="0_0"><path d="M940 286c0-3.3 2.7-6 6-6h448c3.3 0 6 2.7 6 6v428c0 3.3-2.7 6-6 6H946c-3.3 0-6-2.7-6-6z" stroke="#5e5e5e" stroke-width="3" fill="#fff"/><path d="M1070 502.5v32.16c0 3.32 2.7 6 6 6h168c3.3 0 6 2.7 6 6v14.66" stroke="#5e5e5e" stroke-width="2" fill="none"/><path d="M1071 502.53h-2v-1.03h2" fill="#5e5e5e"/><path d="M1250 576.6l-4.64-14.28h9.28z" stroke="#5e5e5e" stroke-width="2" fill="#5e5e5e"/><path d="M1250 502.5v31.94c0 3.32-2.7 6-6 6h-168c-3.3 0-6 2.7-6 6v14.44" stroke="#5e5e5e" stroke-width="2" fill="none"/><path d="M1251 502.53h-2v-1.03h2" fill="#5e5e5e"/><path d="M1070 576.15l-4.64-14.27h9.28z" stroke="#5e5e5e" stroke-width="2" fill="#5e5e5e"/><path d="M470 106v95.52" stroke="#5e5e5e" stroke-width="2" fill="none"/><path d="M471 106.02h-2V105h2" fill="#5e5e5e"/><path d="M470 216.8l-4.64-14.28h9.28z" stroke="#5e5e5e" stroke-width="2" fill="#5e5e5e"/><path d="M1164.1 118.06h9v6.97h-9v-6.97zM1120.6 55.5h95.2v62.56h-95.2V55.5z" fill="#29aae1"/><path d="M1124.9 59.32h86.9v55.93h-86.9V59.32z" fill="#fff" fill-opacity=".98"/><path d="M1124.3 125.45h86.8l-4.3 14.96H1120l4.3-14.95z" fill="#29aae1"/><path d="M1123.8 124.94h88.8l7.4 15.47h-88.8l-7.4-15.46z" fill="#29aae1"/><path d="M1153.9 136.42h31.6v3.14h-31.6v-3.14zM1136.5 127.4h2.3v1.96h-2.3v-1.95zM1140.6 127.5h2.4v1.95h-2.4v-1.96zM1145.9 131.06h2.4v1.96h-2.4v-1.96zM1145.1 127.24h2.3v2.04h-2.3v-2.04zM1149.1 127.4h2.4v1.96h-2.4v-1.95zM1153 127.24h2.4v2.04h-2.4v-2.04zM1177.5 127.58h2.4v2.04h-2.4v-2.04zM1181.1 127.58h2.4v2.04h-2.4v-2.04zM1184.5 127.58h2.4v2.04h-2.4v-2.04zM1188.6 127.58h2.3v2.04h-2.3v-2.04zM1192.3 127.58h2.3v2.04h-2.3v-2.04zM1187.9 130.9h2.3v1.95h-2.3v-1.96zM1196.5 127.58h2.4v2.04h-2.4v-2.04zM1150.4 130.98h2.3v1.95h-2.3v-1.95zM1154.9 130.98h2.3v1.95h-2.3v-1.95zM1184.2 130.8h2v1.96h-2v-1.95zM1180.1 130.8h2.4v1.96h-2.4v-1.95zM1157.4 127.32h2.4v2.04h-2.4v-2.04zM1161.9 127.4h2.3v2.05h-2.3v-2.04zM1166 127.32h2.3v2.04h-2.3v-2.04zM1170.5 127.32h2.3v2.04h-2.3v-2.04zM1174.2 127.4h2.3v2.05h-2.3v-2.04zM1158.9 130.9h2.4v1.95h-2.4v-1.96zM1163.4 130.9h2.3v1.95h-2.3v-1.96zM1167.5 130.98h2.4v1.95h-2.4v-1.95zM1171.6 130.98h2.3v1.95h-2.3v-1.95zM1175.8 130.8h2.3v1.96h-2.3v-1.95z" fill="#fff"/><path d="M1120.1 140.4l99.9-.33-7.1-15.13-88.5.17-4.3 15.3z" fill="none"/><path d="M1163.6 118.06h9.8v.93h-9.8v-.94zM1164 123.84h9.3v1.1h-9.3v-1.1z" fill="#fff"/><use xlink:href="#a" transform="matrix(1,0,0,1,1090,140.49999999999997) translate(25.80246913580247 19.444444444444443)"/><path d="M452.2 50.58h35.57c9.33 0 9.33 0 9.33 8.32v31.73c0 8.32 0 8.32-9.33 8.32H452.2c-9.32 0-9.32 0-9.32-8.32V58.9c0-8.32 0-8.32 9.32-8.32z" fill="#19486f"/><path d="M452.2 48.3h35.57c9.33 0 9.33 0 9.33 8.33v31.74c0 8.32 0 8.32-9.33 8.32H452.2c-9.32 0-9.32 0-9.32-8.33V56.63c0-8.32 0-8.32 9.32-8.32z" fill="#2e73b8"/><path d="M480.22 40h4.1v12.46h-4.1V40zM455.67 40h4.1v12.46h-4.1V40zM474.1 40h4.07v12.46h-4.08V40zM461.8 40h4.1v12.46h-4.1V40zM467.95 40h4.08v12.46h-4.08V40zM433.57 81.63h18.5v3.64h-18.5v-3.64zM433.57 65.2h18.5v3.64h-18.5V65.2zM433.57 76.15h18.5v3.64h-18.5v-3.65zM433.57 70.67h18.5v3.65h-18.5v-3.65zM433.57 59.7h18.5v3.66h-18.5V59.7zM455.67 90.65h4.1V105h-4.1V90.64zM480.22 90.65h4.1V105h-4.1V90.64zM461.8 90.65h4.1V105h-4.1V90.64zM474.1 90.65h4.07V105h-4.08V90.64zM467.95 90.65h4.08V105h-4.08V90.64zM490.12 76.15h16.3v3.64h-16.3v-3.65zM490.12 59.7h16.3v3.66h-16.3V59.7zM490.12 70.67h16.3v3.65h-16.3v-3.65zM490.12 65.2h16.3v3.64h-16.3V65.2zM490.12 81.63h16.3v3.64h-16.3v-3.64z" fill="#2e73b8"/><path d="M491.3 67.72c3.13 10.46-3.84 21.25-15.62 24.08-11.73 2.8-23.82-3.42-27-13.93-3.12-10.47 3.85-21.25 15.62-24.08 11.74-2.8 23.82 3.4 27 13.92z" fill="#fff"/><path d="M465.84 60.33c-.7 0-1.3-.4-1.48-1l-.38-1.3c-.22-.72.26-1.47 1.08-1.67.82-.2 1.66.24 1.88.97l.4 1.28c.2.74-.27 1.5-1.1 1.68-.13.04-.26.05-.4.05zM474.14 60.33c-.14 0-.26 0-.4-.04-.8-.2-1.3-.96-1.08-1.7l.4-1.27c.2-.73 1.05-1.16 1.87-.97.82.2 1.3.95 1.1 1.68l-.4 1.28c-.18.6-.78 1.02-1.5 1zM481.32 64.04c-.84 0-1.54-.6-1.55-1.35 0-.4.14-.72.45-1l1.02-.9c.58-.56 1.55-.6 2.17-.07.63.5.66 1.38.08 1.93l-.07.07-1.02.9c-.3.27-.64.4-1.06.4zM458.66 64.04c-.43 0-.8-.13-1.1-.4l-1-.9c-.62-.55-.62-1.43-.02-1.97s1.6-.54 2.2 0l1.02.9c.6.55.6 1.4 0 1.95-.3.26-.66.4-1.08.4zM474.8 84.5c0 2.38-2.16 4.3-4.8 4.3-2.67 0-4.83-1.92-4.83-4.3 0-2.37 2.16-4.3 4.82-4.3 2.64 0 4.8 1.93 4.8 4.3z" fill="#2e73b8"/><path d="M470 85.87c-.86 0-1.54-.6-1.54-1.36v-20c0-.77.68-1.38 1.53-1.38.84 0 1.52.6 1.52 1.37v20c0 .76-.68 1.37-1.53 1.37zM467.18 65.4h-1.73c-.28 0-.5-.2-.5-.45s.22-.46.5-.46h1.73c.28 0 .5.2.5.45s-.22.45-.5.45zM467.2 67.85H464c-.3 0-.5-.2-.5-.46s.2-.46.5-.46h3.2c.28 0 .5.2.5.45 0 .24-.22.45-.5.45zM467.18 70.3h-1.73c-.28 0-.5-.2-.5-.46 0-.25.22-.45.5-.45h1.73c.28 0 .5.2.5.44 0 .25-.22.46-.5.46zM467.2 72.74H464c-.3 0-.5-.2-.5-.45 0-.27.2-.47.5-.47h3.2c.28 0 .5.2.5.46 0 .24-.22.44-.5.44zM467.18 75.18h-1.73c-.28 0-.5-.2-.5-.46 0-.25.22-.45.5-.45h1.73c.28 0 .5.2.5.45s-.22.46-.5.46zM467.2 77.62H464c-.3 0-.5-.2-.5-.45s.2-.46.5-.46h3.2c.28 0 .5.22.5.47 0 .25-.22.45-.5.45zM467.18 80.07h-1.73c-.28 0-.5-.2-.5-.45s.22-.46.5-.46h1.73c.28 0 .5.2.5.46 0 .25-.22.45-.5.45z" fill="#2e73b8"/><use xlink:href="#b" transform="matrix(1,0,0,1,433.57142857142856,104.99999999999999) translate(2.611111111111107 17.77777777777778)"/><path d="M1411 55.3c0 8.48-9.54 15.32-21.3 15.32-11.82 0-21.36-6.84-21.36-15.3 0-8.48 9.54-15.32 21.36-15.32 11.76 0 21.3 6.84 21.3 15.3zM1371.4 72.13h37.02c11.4 0 11.4 0 11.4 8.24 0 8.23 0 8.23-11.4 8.23h-37.02c-11.4 0-11.4 0-11.4-8.23 0-8.24 0-8.24 11.4-8.24z" fill="#29aae1"/><path d="M1373.92 85.94h31.5v33.98h-31.5V85.94z" fill="#29aae1"/><path d="M1373.92 118.65h14.22v37.47h-14.22v-37.47zM1392.22 119h13.2v36.88h-13.2V119zM1360.12 78.28h10.8v32.83h-10.8V78.3zM1408.84 78.74h10.92v32.83h-10.92V78.74z" fill="#29aae1"/><use xlink:href="#c" transform="matrix(1,0,0,1,1330,156) translate(36.60493827160494 19.444444444444443)"/><path d="M240 286c0-3.3 2.7-6 6-6h448c3.3 0 6 2.7 6 6v428c0 3.3-2.7 6-6 6H246c-3.3 0-6-2.7-6-6z" stroke="#5e5e5e" stroke-width="3" fill="#fff"/><path d="M310 406c0-3.3 2.7-6 6-6h108c3.3 0 6 2.7 6 6v88c0 3.3-2.7 6-6 6H316c-3.3 0-6-2.7-6-6z" stroke="#5e5e5e" stroke-width="3" fill="#fff"/><use xlink:href="#d" transform="matrix(1,0,0,1,315,405) translate(10.061728395061728 48.71527777777778)"/><path d="M429.9 381.06c-.4.03-.7.1-1 .26l-13.15 6.48c-.72.34-1.2.95-1.36 1.74l-3.27 14.6c-.15.67-.04 1.35.34 1.96.04.08.08.1.15.2l9.1 11.66c.5.64 1.17 1 1.97 1h14.6c.8 0 1.5-.36 1.98-1l9.1-11.67c.5-.65.68-1.4.5-2.2l-3.27-14.56c-.14-.8-.63-1.4-1.35-1.74l-13.15-6.48c-.42-.2-.8-.3-1.2-.26z" stroke="#000" stroke-opacity="0" stroke-width="3.83" fill="#326ce5"/><path d="M429.88 380c-.4.04-.72.12-1.04.28l-13.88 6.84c-.76.36-1.28 1-1.44 1.84l-3.44 15.4c-.16.72-.04 1.44.36 2.08.04.08.08.12.16.2l9.6 12.32c.52.68 1.24 1.04 2.08 1.04h15.44c.84 0 1.56-.36 2.08-1.04l9.6-12.32c.52-.68.72-1.48.52-2.28l-3.44-15.4c-.16-.84-.68-1.48-1.44-1.84l-13.88-6.84c-.44-.2-.84-.32-1.28-.28zm0 1.08c.44-.04.8.04 1.2.24l13.2 6.48c.68.36 1.16.96 1.36 1.76l3.24 14.56c.16.8 0 1.52-.48 2.16l-9.12 11.68c-.48.64-1.16 1-1.96 1h-14.64c-.8 0-1.48-.36-1.96-1l-9.12-11.68c-.04-.04-.08-.12-.12-.2-.4-.6-.52-1.24-.36-1.96l3.24-14.56c.2-.8.64-1.4 1.36-1.76l13.2-6.48c.32-.16.6-.24.96-.28z" stroke="#000" stroke-opacity="0" stroke-width="3.83" fill="#fff"/><path d="M428 414.02c0 1.2-.4 1.8-1.2 1.8-.52 0-.86-.2-1.03-.6h-.02v1.86h-.54v-4.05-.7h.53v.1c0 .05 0 .12.02.23v.22h.02c.1-.2.23-.36.4-.46.15-.1.36-.15.62-.15.4 0 .7.14.9.43.2.28.3.72.3 1.32zm-.57 0c0-.46-.06-.8-.18-1-.13-.2-.33-.3-.6-.3-.22 0-.4.04-.5.13-.13.1-.23.25-.3.45-.06.2-.1.46-.1.78 0 .45.08.77.22 1 .14.2.36.3.68.3.27 0 .47-.1.6-.3.12-.2.18-.56.18-1.05zM431.5 414.03c0 .6-.14 1.05-.4 1.34-.24.3-.62.44-1.1.44-.48 0-.85-.15-1.1-.45-.24-.3-.36-.74-.36-1.32 0-1.17.5-1.76 1.48-1.76.5 0 .88.15 1.1.43.25.3.37.73.37 1.33zm-.58 0c0-.47-.08-.8-.2-1.02-.14-.2-.37-.3-.7-.3-.3 0-.55.1-.7.32-.13.2-.2.55-.2 1 0 .46.06.8.2 1.03.15.23.37.33.67.33.32 0 .56-.1.7-.32.14-.22.22-.56.22-1.03zM434.27 415.2c-.1.2-.24.37-.4.46-.18.1-.4.14-.63.14-.42 0-.73-.14-.93-.43-.18-.3-.28-.73-.28-1.32 0-1.2.4-1.78 1.22-1.78.25 0 .45.05.62.14.17.1.3.26.4.46V411.08h.55v3.96c0 .35.02.6.03.7h-.52v-.23c-.02-.1-.02-.22-.02-.3zm-1.67-1.17c0 .48.06.82.18 1.03.12.2.32.3.6.3.3 0 .53-.1.67-.33.15-.22.22-.57.22-1.03 0-.45-.07-.8-.22-1-.14-.2-.36-.3-.67-.3-.27 0-.47.1-.6.3-.12.22-.18.56-.18 1.03z" stroke="#000" stroke-opacity="0" fill="#fff"/><path d="M421.97 393.4L430 391l8.03 2.4-8.03 2.4zM421.97 394.32v8.8l7.48 4.27.04-10.78zM438.03 394.32v8.8l-7.48 4.27-.04-10.78z" stroke="#000" stroke-opacity="0" stroke-width="3.77" fill="#fff"/><path d="M490 406c0-3.3 2.7-6 6-6h108c3.3 0 6 2.7 6 6v88c0 3.3-2.7 6-6 6H496c-3.3 0-6-2.7-6-6z" stroke="#5e5e5e" stroke-width="3" fill="#fff"/><use xlink:href="#d" transform="matrix(1,0,0,1,495,405) translate(10.061728395061728 48.71527777777778)"/><path d="M609.9 381.06c-.4.03-.7.1-1 .26l-13.15 6.48c-.72.34-1.2.95-1.36 1.74l-3.27 14.6c-.15.67-.04 1.35.34 1.96.04.08.08.1.15.2l9.1 11.66c.5.64 1.17 1 1.97 1h14.6c.8 0 1.5-.36 1.98-1l9.1-11.67c.5-.65.68-1.4.5-2.2l-3.27-14.56c-.14-.8-.63-1.4-1.35-1.74l-13.15-6.48c-.42-.2-.8-.3-1.2-.26z" stroke="#000" stroke-opacity="0" stroke-width="3.83" fill="#326ce5"/><path d="M609.88 380c-.4.04-.72.12-1.04.28l-13.88 6.84c-.76.36-1.28 1-1.44 1.84l-3.44 15.4c-.16.72-.04 1.44.36 2.08.04.08.08.12.16.2l9.6 12.32c.52.68 1.24 1.04 2.08 1.04h15.44c.84 0 1.56-.36 2.08-1.04l9.6-12.32c.52-.68.72-1.48.52-2.28l-3.44-15.4c-.16-.84-.68-1.48-1.44-1.84l-13.88-6.84c-.44-.2-.84-.32-1.28-.28zm0 1.08c.44-.04.8.04 1.2.24l13.2 6.48c.68.36 1.16.96 1.36 1.76l3.24 14.56c.16.8 0 1.52-.48 2.16l-9.12 11.68c-.48.64-1.16 1-1.96 1h-14.64c-.8 0-1.48-.36-1.96-1l-9.12-11.68c-.04-.04-.08-.12-.12-.2-.4-.6-.52-1.24-.36-1.96l3.24-14.56c.2-.8.64-1.4 1.36-1.76l13.2-6.48c.32-.16.6-.24.96-.28z" stroke="#000" stroke-opacity="0" stroke-width="3.83" fill="#fff"/><path d="M608 414.02c0 1.2-.4 1.8-1.2 1.8-.52 0-.86-.2-1.03-.6h-.02v1.86h-.54v-4.05-.7h.53v.1c0 .05 0 .12.02.23v.22h.02c.1-.2.23-.36.4-.46.15-.1.36-.15.62-.15.4 0 .7.14.9.43.2.28.3.72.3 1.32zm-.57 0c0-.46-.06-.8-.18-1-.13-.2-.33-.3-.6-.3-.22 0-.4.04-.5.13-.13.1-.23.25-.3.45-.06.2-.1.46-.1.78 0 .45.08.77.22 1 .14.2.36.3.68.3.27 0 .47-.1.6-.3.12-.2.18-.56.18-1.05zM611.5 414.03c0 .6-.14 1.05-.4 1.34-.24.3-.62.44-1.1.44-.48 0-.85-.15-1.1-.45-.24-.3-.36-.74-.36-1.32 0-1.17.5-1.76 1.48-1.76.5 0 .88.15 1.1.43.25.3.37.73.37 1.33zm-.58 0c0-.47-.08-.8-.2-1.02-.14-.2-.37-.3-.7-.3-.3 0-.55.1-.7.32-.13.2-.2.55-.2 1 0 .46.06.8.2 1.03.15.23.37.33.67.33.32 0 .56-.1.7-.32.14-.22.22-.56.22-1.03zM614.27 415.2c-.1.2-.24.37-.4.46-.18.1-.4.14-.63.14-.42 0-.73-.14-.93-.43-.18-.3-.28-.73-.28-1.32 0-1.2.4-1.78 1.22-1.78.25 0 .45.05.62.14.17.1.3.26.4.46V411.08h.55v3.96c0 .35.02.6.03.7h-.52v-.23c-.02-.1-.02-.22-.02-.3zm-1.67-1.17c0 .48.06.82.18 1.03.12.2.32.3.6.3.3 0 .53-.1.67-.33.15-.22.22-.57.22-1.03 0-.45-.07-.8-.22-1-.14-.2-.36-.3-.67-.3-.27 0-.47.1-.6.3-.12.22-.18.56-.18 1.03z" stroke="#000" stroke-opacity="0" fill="#fff"/><path d="M601.97 393.4L610 391l8.03 2.4-8.03 2.4zM601.97 394.32v8.8l7.48 4.27.04-10.78zM618.03 394.32v8.8l-7.48 4.27-.04-10.78z" stroke="#000" stroke-opacity="0" stroke-width="3.77" fill="#fff"/><path d="M469.7 222.64c-.93.1-1.7.28-2.45.66l-32.87 16.2c-1.8.85-3.03 2.37-3.4 4.36l-8.16 36.47c-.38 1.7-.1 3.4.86 4.92.1.2.2.3.38.48l22.73 29.17c1.22 1.6 2.93 2.46 4.92 2.46h36.56c2 0 3.7-.85 4.93-2.46l22.74-29.17c1.23-1.6 1.7-3.5 1.23-5.5l-8.14-36.37c-.38-2-1.6-3.5-3.4-4.36l-32.88-16.2c-1.05-.47-2-.76-3.04-.66z" stroke="#000" stroke-opacity="0" stroke-width="3.83" fill="#326ce5"/><path d="M469.7 220c-1 .1-1.8.3-2.6.7l-34.7 17.1c-1.9.9-3.2 2.5-3.6 4.6l-8.6 38.5c-.4 1.8-.1 3.6.9 5.2.1.2.2.3.4.5l24 30.8c1.3 1.7 3.1 2.6 5.2 2.6h38.6c2.1 0 3.9-.9 5.2-2.6l24-30.8c1.3-1.7 1.8-3.7 1.3-5.7l-8.6-38.5c-.4-2.1-1.7-3.7-3.6-4.6l-34.7-17.1c-1.1-.5-2.1-.8-3.2-.7zm0 2.7c1.1-.1 2 .1 3 .6l33 16.2c1.7.9 2.9 2.4 3.4 4.4l8.1 36.4c.4 2 0 3.8-1.2 5.4l-22.8 29.2c-1.2 1.6-2.9 2.5-4.9 2.5h-36.6c-2 0-3.7-.9-4.9-2.5L424 285.7c-.1-.1-.2-.3-.3-.5-1-1.5-1.3-3.1-.9-4.9l8.1-36.4c.5-2 1.6-3.5 3.4-4.4l33-16.2c.8-.4 1.5-.6 2.4-.7z" stroke="#000" stroke-opacity="0" stroke-width="3.83" fill="#fff"/><path d="M460.6 299.03v-1.36h1.36v1.36zm0 10.33v-8.52h1.36v8.52zM469.33 309.36v-5.4c0-.56-.05-1-.16-1.3-.1-.32-.28-.55-.5-.68-.25-.14-.6-.2-1.04-.2-.67 0-1.2.23-1.57.7-.38.46-.57 1.1-.57 1.94v4.94h-1.4v-6.7c0-1 0-1.6-.03-1.82h1.3v.2l.02.4c0 .16 0 .44.03.85h.02c.32-.6.68-1 1.1-1.25.4-.25.92-.37 1.54-.37.9 0 1.56.23 1.98.7.42.46.63 1.23.63 2.3v5.68zM475.92 312.7c-.9 0-1.62-.18-2.16-.55-.53-.36-.87-.88-1.03-1.55l1.38-.2c.1.4.3.7.62.9.32.2.73.32 1.24.32 1.37 0 2.05-.83 2.05-2.5v-1.35c-.26.55-.62.96-1.07 1.23-.45.28-1 .4-1.6.4-1 0-1.75-.33-2.23-1.02-.47-.7-.7-1.8-.7-3.28 0-1.5.24-2.6.76-3.32.5-.72 1.28-1.08 2.33-1.08.58 0 1.08.14 1.5.42.44.27.78.66 1 1.17h.03c0-.17 0-.44.03-.83.02-.4.04-.6.06-.64h1.3c-.02.3-.04.88-.04 1.76v6.5c0 2.4-1.15 3.6-3.46 3.6zm2.1-7.6c0-.7-.1-1.3-.28-1.8-.2-.5-.45-.9-.78-1.15-.33-.26-.7-.4-1.13-.4-.7 0-1.22.27-1.54.8-.33.5-.5 1.36-.5 2.54 0 1.15.16 2 .46 2.5.3.5.82.77 1.54.77.44 0 .83-.14 1.16-.4.33-.26.6-.64.78-1.13.18-.5.27-1.07.27-1.75z" stroke="#000" stroke-opacity="0" fill="#fff"/><path d="M485.22 291.64h-12.55l-27.32-35.16h-7.87v-11.53h12.8l27.33 35.23h7.62v-9.13l17.3 14.83-17.3 14.9zM471.5 264.5l6.1-7.9h7.62v9.14l17.3-14.83-17.3-14.88v9.13h-12.55l-8.13 10.42zm-19.9 7.78l-6.25 8.03h-7.87v11.53h12.8l8.2-10.6z" stroke="#000" stroke-opacity="0" stroke-width="3.77" fill="#fff"/><path d="M470 321v32.25c0 3.3-2.7 6-6 6h-88c-3.3 0-6 2.7-6 6V380" stroke="#5e5e5e" stroke-width="2" fill="none"/><path d="M471 321.03h-2V320h2" fill="#5e5e5e"/><path d="M370 395.26L365.36 381h9.28z" stroke="#5e5e5e" stroke-width="2" fill="#5e5e5e"/><path d="M470 321v32.25c0 3.3 2.7 6 6 6h68c3.3 0 6 2.7 6 6V380" stroke="#c92d39" stroke-width="2" fill="none"/><path d="M471 321.03h-2V320h2" fill="#c92d39"/><path d="M550 395.26L545.36 381h9.28z" stroke="#c92d39" stroke-width="2" fill="#c92d39"/><path d="M430 688.88c0 6.63-26.86 12-60 12s-60-5.37-60-12v-96c0-6.62 26.86-12 60-12s60 5.38 60 12z" stroke="#5e5e5e" stroke-width="3" fill="#fff"/><path d="M430 592.88c0 6.63-26.86 12-60 12s-60-5.37-60-12" stroke="#5e5e5e" stroke-width="3" fill="none"/><path d="M326.2 621l1.05 2.05c.2.37.53.7.84 1.02.84.9 1.8 1.88 2.53 2.9 1.8 2.42 3.07 5.12 4.03 8.02.52 1.8.74 3.63.84 5.47 0 5.52-1.9 10.26-5.7 14.18-.65.66-1.28 1.2-2.02 1.72-.32 0-.53-.28-.64-.53-.32-.53-.53-1.06-.63-1.64-.1-.65-.2-1.3-.1-2v-.33c-.1-.04-.42-30.7-.2-30.86z" stroke="#000" stroke-opacity="0" fill="#599636"/><path d="M326.2 620.93c-.12-.1-.12 0-.22.04.1.45-.1.8-.32 1.22-.32.36-.63.65-1.06.97-1.9 1.72-3.5 3.77-4.76 6.1-1.6 3.1-2.54 6.46-2.75 9.97-.12 1.27.4 5.73.84 7.03 1.05 3.44 3.06 6.3 5.6 8.8.64.6 1.27 1.14 1.9 1.67.22 0 .22-.16.33-.3.1-.27.1-.56.2-.85.22-1.15.33-2.25.43-3.36l-.2-31.3z" stroke="#000" stroke-opacity="0" fill="#6cac48"/><path d="M327.25 657.72c0-.5.32-.9.53-1.35-.2-.08-.43-.33-.64-.57-.1-.2-.2-.5-.32-.74-.3-.94-.3-1.92-.42-2.86v-.57c-.1.08-.2.82-.2.94 0 1.02-.12 2.04-.33 3.02-.1.36-.1.77-.42 1.14 0 .04 0 .08.1.16.32 1.2.43 2.37.53 3.6v.45c0 .53 0 .4.43.6.22.05.43.1.54.22.2 0 .2-.12.2-.2l-.1-.74v-2.05c0-.36.1-.7.1-1.06z" stroke="#000" stroke-opacity="0" fill="#c2bfbf"/><path d="M344.18 648.44v2.37c0 .26.2.42.42.46.2.08.43.12.64.12.1.04.1.1.2.2 0 .5-.1.54-.52.54-1.06-.08-2.12-.08-3.28 0h-.1c-.32 0-.32-.04-.32-.37v-.16c0-.13.1-.18.2-.18l.64-.12c.32-.08.43-.24.43-.53.1-.33.1-.65.1-.98v-3.77c0-.2-.1-.4-.33-.53-.2-.13-.52-.25-.74-.33-.1-.04-.2-.04-.3-.08-.23-.1-.23-.3 0-.42.1-.04.2-.04.2-.08.95-.13 1.7-.3 2.54-.62.1-.04.2-.04.2.13v1.03c.12.04.22 0 .22-.04.3-.22.63-.42.94-.63.43-.24.96-.45 1.5-.53.62-.08 1.15.08 1.68.5.2.2.32.36.53.6.1.2.1.2.3.1.54-.42 1.07-.75 1.7-1 .64-.28 1.28-.32 1.9-.07.65.24 1.07.7 1.4 1.3.2.5.3 1.03.3 1.56v3.76c0 .23.1.4.32.52l.85.2c.2.05.2.05.2.2 0 .5-.1.5-.52.5-1.16-.08-2.22-.08-3.38 0-.22 0-.22 0-.22-.2v-.1c0-.35 0-.35.32-.44l.43-.12c.2-.04.42-.28.42-.53V646.93c0-.25-.1-.45-.1-.7-.43-.86-1.17-1.14-1.9-1.06-.54.04-1.07.3-1.5.57-.1.08-.2.17-.2.33.1.86.1 1.76.1 2.66v1.96c0 .32.1.48.42.56l.63.16c.1 0 .2.05.2.17v.07c0 .4-.1.4-.4.4-1.18-.03-2.23-.03-3.4 0-.32.05-.42 0-.32-.4 0-.2 0-.25.23-.3l.42-.07c.42-.08.63-.2.63-.65V646.9c0-.34-.1-.67-.3-1-.23-.53-.75-.77-1.28-.8-.64-.05-1.17.2-1.7.44-.3.2-.42.45-.42.86v2.04zm26.24.08v2.36c.1.22.2.38.43.42.2.04.42.08.74.12.1 0 .1.05.1.17v.1c0 .5 0 .54-.54.5-1.05-.04-2.1-.04-3.17 0l-.43.04c-.1 0-.1-.04-.1-.12v-.57c0-.08.1-.13.1-.13l.63-.12c.32-.08.42-.2.53-.57v-4.62c0-.24-.1-.4-.32-.48-.3-.16-.52-.25-.83-.37l-.22-.08c-.2-.12-.2-.3 0-.45.1-.08.1-.08.22-.12.95-.13 1.8-.33 2.64-.66.12-.04.12 0 .22.08v.95c0 .08-.1.2 0 .2.1.08.1-.04.2-.08.44-.38.86-.63 1.4-.87.4-.2.84-.33 1.37-.33.94.08 1.57.53 2 1.35.2.45.3.94.3 1.4l.12 1v3.12c0 .25.1.37.32.5l.74.15c.2.05.32.1.32.3v.03c-.1.5-.1.5-.53.5-1.17-.1-2.12-.1-3.18 0h-.43c-.1 0-.1 0-.1-.1 0-.2-.1-.36 0-.56 0-.1 0-.13.1-.13l.63-.13c.22-.04.32-.2.43-.4V647.6c0-.32 0-.65-.1-.98-.1-.73-.75-1.23-1.5-1.3-.63-.1-1.15.07-1.68.44-.32.17-.43.4-.43.7v2.04z" stroke="#000" stroke-opacity="0" stroke-width="1.02" fill="#47474a"/><path d="M411.27 644.56c-.1-1.03-.53-1.93-1.16-2.7-.52-.74-1.26-1.27-2.1-1.6-.86-.36-1.8-.5-2.76-.53-.42 0-5.72.08-6.14 0-.1 0-.2.04-.2.12-.12.1-.12.2-.22.33-.1.37-.1.33.2.4.43.05.75.1 1.07.17.2.1.42.25.53.58 0 .16.1 5.07.1 7.36l-.1 1.62c0 .12 0 .25-.1.37 0 .15-.12.28-.33.36-.1.08-.3.16-.53.16-.42.04-.42.04-.52.5l-.1.1c0 .22 0 .22.2.22l4.13.04h1.7l1.05-.16c1.27-.2 2.43-.74 3.4-1.6.62-.53 1.04-1.06 1.36-1.76.42-.77.53-1.63.64-2.5 0-.48 0-1-.1-1.5zm-2 2c0 .86-.22 1.76-.65 2.53-.63 1.02-1.48 1.7-2.64 1.96-.42.12-.95.16-1.48.08-.43-.04-.74-.08-1.06-.2-.64-.2-.95-.62-.95-1.23v-8.4c0-.5.2-.63.62-.63.53-.04 1.06-.04 1.6.04.62.05 1.15.18 1.68.42.43.17.74.37 1.17.66.74.65 1.27 1.47 1.48 2.4.2.8.32 1.56.2 2.34zm13.64 1.35v-.24c-.1-.77-.52-1.35-1.15-1.8-.43-.28-.85-.5-1.38-.6-.1-.05-.1-.1-.2-.1 0-.07.1-.07.1-.07.3-.18.52-.3.74-.54.43-.33.75-.78.96-1.35v-.85c0-.78-.43-1.4-1.06-1.84-.63-.44-1.38-.65-2.12-.7h-4.55c-.42 0-.84.05-1.27-.03-.1 0-.2-.04-.3.08-.12.17-.23.37-.23.58-.1.08 0 .16.1.16l.96.1c.3.1.63.3.63.63 0 .24.1.45.1.7l-.1 2.6v5.16c0 .32 0 .6-.1.9 0 .2-.1.36-.33.44-.3.08-.52.16-.84.16-.2-.04-.32.08-.43.2 0 .13 0 .3-.1.42 0 .16 0 .2.2.2.12 0 4.77.08 5.62 0 .53-.04 1.06-.12 1.48-.25.95-.28 1.7-.7 2.33-1.4.53-.56.84-1.2.95-2v-.56zm-6.76-5.72v-1.1c0-.2.1-.33.32-.37.3-.03.74-.03 1.05 0 .33 0 .65.05.97.18.63.16 1.05.53 1.37 1.1.1.3.2.53.2.86 0 .37 0 .78-.2 1.14-.2.54-.63.86-1.16.94-.53.13-2 .05-2.33.05-.2 0-.2 0-.2-.2v-1.32-1.27zm4.55 7.53c-.22.62-.65 1.07-1.28 1.32-.32.12-.74.2-1.06.16-.42 0-.85 0-1.27-.08-.64-.12-.86-.7-.96-1.1v-3.81c0-.2 0-.3.32-.3h1.27l.84.13c.64.12 1.27.37 1.7.86.3.4.52.85.63 1.38 0 .5 0 .94-.2 1.43z" stroke="#000" stroke-opacity="0" stroke-width="1.02" fill="#c2bfbf"/><path d="M385.24 645.5l.32.04c.42.04.84-.13 1.05-.66v-.77c-.1 0-.2.05-.2.1-.2.15-.42.23-.74.27-.42.05-.95.05-1.48-.16l-.63-.2c-.53-.16-.96-.24-1.5-.2-.73.04-1.36.3-2 .62-.63.36-1.16.9-1.37 1.63-.1.45-.1.9-.1 1.35.1 1.02.63 1.72 1.58 2.1l.2.07c.12.04.12.12 0 .24l-.3.22-.85.53c-.2.12-.2.2-.2.45.1.28.3.5.52.65.1.2.32.3.64.4.1.1.1.1 0 .22l-.85.57c-.2.2-.52.4-.73.7-.32.32-.42.77-.32 1.22.1.53.32.94.74 1.27.3.36.74.57 1.26.7.75.24 1.6.24 2.44.07 1.06-.2 2.1-.7 2.86-1.55.52-.57.84-1.27.95-2.04 0-.98-.63-1.83-1.58-2.04l-.74-.12-2.22-.2c-.32-.05-.53-.1-.74-.2-.32-.17-.32-.5-.2-.7.1-.17.3-.25.5-.25l.44-.05c.95-.12 1.7-.45 2.33-1.1.4-.33.62-.7.73-1.2.2-.56.2-1.22 0-1.83 0-.12 0-.16.2-.12zm-3.4 6.95h.22c.53.04 1.17.08 1.7.2.2.08.42.12.63.25.52.28.73.8.63 1.4-.1.6-.43 1.05-.96 1.38-.3.2-.74.28-1.16.32h-.4c-.54 0-1.07-.04-1.5-.24-.3-.12-.52-.33-.84-.57-.42-.5-.64-1.4 0-2.1.53-.4.95-.7 1.7-.65zm1.6-4.34c-.32.75-.95.95-1.6.87-.62-.08-1.05-.4-1.36-.94-.32-.73-.43-1.47-.22-2.2.1-.58.53-1.03 1.17-1.1.74-.17 1.48.1 1.9.9.22.36.32.85.32 1.5-.1.25-.1.62-.2.94zm-17.67-.97c-.1-.73-.32-1.43-.85-2-.85-.86-1.8-1.23-2.86-1.23-.95 0-1.9.3-2.75.78-.73.5-1.26 1.18-1.58 2.12-.2.82-.2 1.64 0 2.46.43 2.2 2.12 3.15 4.24 3.02.53-.04 1.16-.24 1.7-.5.73-.4 1.37-.97 1.8-1.8.3-.64.4-1.34.4-2.1l-.1-.75zm-1.9 3.1c-.22.66-.75 1.1-1.5 1.2-.62.08-1.15-.1-1.68-.45-.44-.3-.65-.62-.86-1.03-.63-1.18-.74-2.4-.42-3.68.1-.4.32-.73.63-1.02.53-.45 1.06-.57 1.8-.45.64.17 1.06.5 1.48 1.02.43.54.64 1.15.74 1.8v.86c0 .66 0 1.23-.2 1.76zm32.48-2.98c-.1-.8-.42-1.55-1.06-2.16-.75-.83-1.7-1.2-2.76-1.2-.95 0-1.8.25-2.65.74-.85.5-1.5 1.27-1.7 2.3-.32 1.13-.2 2.24.32 3.3.42.98 1.27 1.6 2.22 1.88 1.16.33 2.22.16 3.28-.33.95-.46 1.6-1.15 2-2.13.22-.53.33-1.15.33-1.84v-.58zm-2 2.83c-.22.73-.65 1.22-1.5 1.34-.52.1-1.16-.08-1.58-.4-.42-.3-.74-.7-.95-1.15-.32-.5-.43-.98-.53-1.5 0-.67 0-1.32.1-1.97 0-.13.1-.25.1-.37.42-.98 1.27-1.43 2.33-1.23.63.17 1.16.53 1.6 1.1.3.58.5 1.2.62 1.85v.77c0 .57 0 1.07-.2 1.56z" stroke="#000" stroke-opacity="0" stroke-width="1.02" fill="#47474a"/><path d="M1010 406c0-3.3 2.7-6 6-6h108c3.3 0 6 2.7 6 6v88c0 3.3-2.7 6-6 6h-108c-3.3 0-6-2.7-6-6z" stroke="#5e5e5e" stroke-width="3" fill="#fff"/><use xlink:href="#d" transform="matrix(1,0,0,1,1015,405) translate(10.061728395061728 48.71527777777778)"/><path d="M1129.9 381.06c-.4.03-.7.1-1 .26l-13.15 6.48c-.72.34-1.2.95-1.36 1.74l-3.27 14.6c-.15.67-.04 1.35.34 1.96.04.08.08.1.15.2l9.1 11.66c.5.64 1.17 1 1.97 1h14.6c.8 0 1.5-.36 1.98-1l9.1-11.67c.5-.65.68-1.4.5-2.2l-3.27-14.56c-.14-.8-.63-1.4-1.35-1.74l-13.15-6.48c-.42-.2-.8-.3-1.2-.26z" stroke="#000" stroke-opacity="0" stroke-width="3.83" fill="#326ce5"/><path d="M1129.88 380c-.4.04-.72.12-1.04.28l-13.88 6.84c-.76.36-1.28 1-1.44 1.84l-3.44 15.4c-.16.72-.04 1.44.36 2.08.04.08.08.12.16.2l9.6 12.32c.52.68 1.24 1.04 2.08 1.04h15.44c.84 0 1.56-.36 2.08-1.04l9.6-12.32c.52-.68.72-1.48.52-2.28l-3.44-15.4c-.16-.84-.68-1.48-1.44-1.84l-13.88-6.84c-.44-.2-.84-.32-1.28-.28zm0 1.08c.44-.04.8.04 1.2.24l13.2 6.48c.68.36 1.16.96 1.36 1.76l3.24 14.56c.16.8 0 1.52-.48 2.16l-9.12 11.68c-.48.64-1.16 1-1.96 1h-14.64c-.8 0-1.48-.36-1.96-1l-9.12-11.68c-.04-.04-.08-.12-.12-.2-.4-.6-.52-1.24-.36-1.96l3.24-14.56c.2-.8.64-1.4 1.36-1.76l13.2-6.48c.32-.16.6-.24.96-.28z" stroke="#000" stroke-opacity="0" stroke-width="3.83" fill="#fff"/><path d="M1128 414.02c0 1.2-.4 1.8-1.2 1.8-.52 0-.86-.2-1.03-.6h-.02v1.86h-.54v-4.05-.7h.53v.1c0 .05 0 .12.02.23v.22h.02c.1-.2.23-.36.4-.46.15-.1.36-.15.62-.15.4 0 .7.14.9.43.2.28.3.72.3 1.32zm-.57 0c0-.46-.06-.8-.18-1-.13-.2-.33-.3-.6-.3-.22 0-.4.04-.5.13-.13.1-.23.25-.3.45-.06.2-.1.46-.1.78 0 .45.08.77.22 1 .14.2.36.3.68.3.27 0 .47-.1.6-.3.12-.2.18-.56.18-1.05zM1131.5 414.03c0 .6-.14 1.05-.4 1.34-.24.3-.62.44-1.1.44-.48 0-.85-.15-1.1-.45-.24-.3-.36-.74-.36-1.32 0-1.17.5-1.76 1.48-1.76.5 0 .88.15 1.1.43.25.3.37.73.37 1.33zm-.58 0c0-.47-.08-.8-.2-1.02-.14-.2-.37-.3-.7-.3-.3 0-.55.1-.7.32-.13.2-.2.55-.2 1 0 .46.06.8.2 1.03.15.23.37.33.67.33.32 0 .56-.1.7-.32.14-.22.22-.56.22-1.03zM1134.27 415.2c-.1.2-.24.37-.4.46-.18.1-.4.14-.63.14-.42 0-.73-.14-.93-.43-.18-.3-.28-.73-.28-1.32 0-1.2.4-1.78 1.22-1.78.25 0 .45.05.62.14.17.1.3.26.4.46V411.08h.55v3.96c0 .35.02.6.03.7h-.52v-.23c-.02-.1-.02-.22-.02-.3zm-1.67-1.17c0 .48.06.82.18 1.03.12.2.32.3.6.3.3 0 .53-.1.67-.33.15-.22.22-.57.22-1.03 0-.45-.07-.8-.22-1-.14-.2-.36-.3-.67-.3-.27 0-.47.1-.6.3-.12.22-.18.56-.18 1.03z" stroke="#000" stroke-opacity="0" fill="#fff"/><path d="M1121.97 393.4l8.03-2.4 8.03 2.4-8.03 2.4zM1121.97 394.32v8.8l7.48 4.27.04-10.78zM1138.03 394.32v8.8l-7.48 4.27-.04-10.78z" stroke="#000" stroke-opacity="0" stroke-width="3.77" fill="#fff"/><path d="M610 689.33c0 6.62-26.86 12-60 12s-60-5.38-60-12v-96c0-6.63 26.86-12 60-12s60 5.37 60 12z" stroke="#5e5e5e" stroke-width="3" fill="#fff"/><path d="M610 593.33c0 6.62-26.86 12-60 12s-60-5.38-60-12" stroke="#5e5e5e" stroke-width="3" fill="none"/><path d="M535.6 654.83h-2.3v-9.26h-3v-1.88h8.3v1.87h-3zM541.8 644.92c-.1.65-.6 1.15-1.3 1.15-.6-.02-1.1-.53-1.1-1.17 0-.65.5-1.16 1.1-1.18h.1c.7 0 1.2.5 1.2 1.2zm-.2 9.9h-2.1v-7.73h2.1zM545.2 647.04v.96c.5-.85 1.1-1.23 2.1-1.23s1.8.46 2.1 1.3c.5-.9 1.3-1.3 2.4-1.3.8 0 1.4.24 1.8.72.5.5.7 1.04.7 2.22v5.03h-2.2v-4.66c0-1.05-.3-1.53-1.2-1.53-.7 0-1.2.56-1.2 1.52v4.65h-2.1v-4.58c0-1.07-.4-1.6-1.2-1.6-.8 0-1.2.53-1.2 1.6v4.58h-2.1v-7.7zM578.4 654c-.8.8-1.8 1.15-2.9 1.15-2.4 0-4.1-1.74-4.1-4.1 0-2.43 1.7-4.14 4.1-4.14 1.1 0 2.1.4 3.1 1.3l-1.4 1.28c-.5-.5-1-.7-1.6-.7-1.2 0-2.1.96-2.1 2.22 0 1.3.9 2.28 2.2 2.28.5 0 .9-.2 1.5-.67zM585 647.17h2.2v7.72H585v-1.1c-.7.93-1.5 1.35-2.7 1.35-2.1 0-3.7-1.68-3.7-4.04 0-2.43 1.7-4.2 3.9-4.2 1.1 0 1.8.35 2.5 1.24zm-4.1 3.9c0 1.35.9 2.37 2 2.37 1.2 0 2.2-1.1 2.2-2.44 0-1.36-.9-2.33-2.2-2.33-1.2 0-2 1-2 2.4zM588.6 654.97v-11.14h2.1v11.14zM563.3 651.62H557c0 .53.3 1 .7 1.34.4.32.9.5 1.5.5.8 0 1.4-.26 1.9-.77l1.7.77c-.4.6-.9 1-1.5 1.3-.6.28-1.3.44-2.1.44-1.2 0-2.2-.4-3-1.17-.8-.78-1.2-1.77-1.2-2.95 0-1.2.4-2.2 1.2-3 .8-.8 1.8-1.2 2.9-1.2 1.3 0 2.3.4 3.1 1.2.7.8 1.1 1.85 1.1 3.16zm-2-1.55c-.1-.46-.3-.8-.7-1.08-.4-.3-.9-.43-1.4-.43-.5 0-1 .13-1.4.45-.3.22-.5.54-.8 1.05zM600 651.7h-6.4c.1.53.3.96.8 1.34.4.32.9.48 1.5.48.7.03 1.4-.24 1.9-.78l1.7.8c-.4.57-.9 1-1.5 1.3-.6.3-1.3.42-2.1.42-1.2 0-2.2-.37-3-1.15-.8-.8-1.2-1.76-1.2-2.94 0-1.2.4-2.22 1.2-3 .7-.8 1.7-1.2 2.9-1.2s2.3.4 3 1.2c.8.78 1.2 1.85 1.2 3.16zm-2-1.58c-.1-.46-.4-.8-.8-1.07-.4-.3-.8-.43-1.3-.4-.6-.03-1 .13-1.5.45-.2.2-.5.54-.7 1.02zM564.8 652.5c0 .06.6.48 1.7.83.5.14 1 .16 1.6.08.3-.04.5-.12.7-.28.1-.06.2-.14.2-.27 0-.2 0-.37-.2-.5-.1-.2-.4-.28-.6-.33-.5-.16-1-.27-1.5-.35-.5-.1-1-.2-1.4-.45-.6-.3-1-.62-1.2-1.26-.2-.67-.1-1.3.3-1.88.7-1 2-1.23 2.6-1.28 2.2-.14 3.7 1.18 3.8 1.26l-1.2 1.34s-1.1-.94-2.4-.83c-.8.02-1.1.32-1.2.42-.1.1-.1.2-.1.34 0 .22.1.4 1.1.64.6.14 1 .22 1.7.43 1.2.4 2.3 1.17 2.1 2.6-.2 1.62-1.9 2.2-3.3 2.2-.6 0-1-.05-1.6-.2-1.5-.5-2.2-1-2.3-1.08l1.2-1.44z" stroke="#000" stroke-opacity="0" stroke-width=".52" fill="#333"/><path d="M526.8 649.26c0 7.4-6 13.4-13.4 13.4s-13.4-6-13.4-13.4 6-13.4 13.4-13.4 13.4 6 13.4 13.4z" stroke="#000" stroke-opacity="0" stroke-width=".52" fill="#f8eed0"/><path d="M513.4 640.26c4.9 0 9 4.02 9 8.98 0 4.95-4.1 9-9 9-5 0-9-4.05-9-9 0-4.96 4-8.98 9-8.98z" stroke="#000" stroke-opacity="0" stroke-width=".52" fill="#fcb415"/><path d="M515.6 646.82c.6-1.3 1.8-2.03 2.9-1.6 1 .43 1.4 1.82.8 3.13-.5 1.3-1.8 2.04-2.8 1.63-1-.42-1.4-1.84-.9-3.16z" stroke="#000" stroke-opacity="0" stroke-width=".2" fill="#fff"/><path d="M513.4 654.8c1.4 0 2.6 1.24 2.6 2.8 0 1.52-1.2 2.78-2.6 2.78-1.4 0-2.6-1.26-2.6-2.8 0-1.54 1.2-2.77 2.6-2.77z" stroke="#000" stroke-opacity="0" stroke-width=".52" fill="#fff"/><path d="M508.4 645.22c1-.43 2.3.3 2.8 1.6.6 1.32.2 2.74-.8 3.16-1.1.4-2.3-.32-2.9-1.63-.5-1.3-.1-2.7.9-3.13z" stroke="#000" stroke-opacity="0" stroke-width=".48" fill="#fff"/><path d="M518 657.9c2.9-1.6 4.7-4.27 5-7.6l1.6 1.8c-.9 3.62-3.2 6.35-6.6 7.82v-.96-1.07zm-7.7.63c2.1.72 4.2.7 6.3-.06-.2.84-.5 1.48-1 2.17-1.5.3-2.8.33-4.4.03-.4-.7-.7-1.34-.9-2.14zm-1.5-.62c-2.9-1.57-4.8-4.3-5.1-7.65l-1.5 1.98c.9 3.6 3.2 6.27 6.7 7.72-.1-.35-.1-.64-.1-1v-1.04zm12.4-14.37l1.1-1.58c-.9-1-1.7-1.7-2.8-2.4l-1.8 1.06c1.4.73 2.5 1.65 3.5 2.93zm-13.8-4.07c-1.2.7-2.1 1.47-2.9 2.5l1.2 1.38c1-1.2 2-2.06 3.4-2.73zM507 649.26c0-2.9 1.8-5.33 4.6-6.16.1-.32.2-.6.4-.85-1.9.37-3.4 1.36-4.5 3-2.2 3.26-1.4 7.7 1.9 9.9l.3-.7c-1.8-1.22-2.7-3.07-2.7-5.2z" stroke="#000" stroke-opacity="0" stroke-width=".52" fill="#333"/><path d="M508.2 647.12l.6.13c.5-1.18 1.3-2 2.5-2.54v-.63c-1.4.6-2.4 1.6-3.1 3.05zM508.4 650.04h-.5c.2 1.53.9 2.73 2.2 3.67 0-.18.1-.3.2-.47-1-.8-1.6-1.88-1.9-3.2zM518 647.28l.5-.16c-.6-1.63-1.9-2.76-3.6-3.24 0 .2.1.4.1.6 1.4.5 2.4 1.43 3 2.8zM519 648.54l-.6-.6-1.9.3-.3.9.9.58 1.6-.6.3-.58zM507.9 648.54l.6-.6 1.9.3.3.9-.9.58-1.6-.6-.3-.58zM518.7 650.95c.1-.32.1-.6.2-.9h-.6c0 .18 0 .3-.1.5.2.13.3.27.5.4zM516.9 652.8c-.1.16-.3.26-.4.4.1.13.2.3.3.45.2-.18.4-.37.7-.6-.2-.1-.4-.17-.6-.25z" stroke="#000" stroke-opacity="0" stroke-width=".52" fill="#333"/><path d="M519.8 649.26c0 .83-.1 1.56-.5 2.36.2.2.4.45.5.72.4-.77.6-1.47.7-2.33.4-3.9-2.4-7.43-6.3-7.84.2.25.3.5.4.8 3.1.6 5.2 3.2 5.2 6.3zM518.3 653.33c-.3.43-.7.75-1.1 1.1.1.22.1.46.2.7.7-.48 1.3-1 1.8-1.7-.3 0-.6-.02-.9-.1zM514 648.38l-.6-6.27h-.6l-.5 6.3v.36c.1.13.1.2.1.3.1.28.3.47.5.6.1.03.1.08.2.1v.04l6.2 3.43.4-.46zM514.8 656.95c-.5 0-.9-.3-1-.78l2.3-.88-.6-1.38-2.1.9-2.2-.9-.5 1.37 2.3.9c-.2.45-.6.75-1 .75h-.1l-.5.67c.7.24 1.5 0 2-.62.5.62 1.3.86 2 .6l-.4-.65h-.2z" stroke="#000" stroke-opacity="0" stroke-width=".52" fill="#333"/><path d="M520.6 643.85l-.8.83c2.5 3.56 1.7 8.47-1.9 10.98-.1.08-.1.14-.2.22.1.37.1.72.2 1.12.3-.2.6-.35.9-.6 4-2.96 4.7-8.6 1.8-12.55zM505.5 649.24c0-1.7.5-3.17 1.5-4.53l-.8-.85c-.2.32-.4.6-.6.94-2.5 4.3-1 9.8 3.3 12.26.1-.43.2-.75.3-1.16-2.4-1.5-3.7-3.88-3.7-6.66zM513.4 640.26c-1.4 0-2.6.27-3.9.86l.6.96c2.2-1 4.4-1 6.6 0l.5-.96c-1.2-.6-2.4-.86-3.8-.86z" stroke="#000" stroke-opacity="0" stroke-width=".52" fill="#333"/><path d="M689.7 640c-1 .1-1.8.3-2.6.7l-34.7 17.1c-1.9.9-3.2 2.5-3.6 4.6l-8.6 38.5c-.4 1.8-.1 3.6.9 5.2.1.2.2.3.4.5l24 30.8c1.3 1.7 3.1 2.6 5.2 2.6h38.6c2.1 0 3.9-.9 5.2-2.6l24-30.8c1.3-1.7 1.8-3.7 1.3-5.8l-8.6-38.4c-.4-2.1-1.7-3.7-3.6-4.6l-34.7-17.1c-1.1-.5-2.1-.8-3.2-.7z" stroke="#fff" stroke-width="0" fill="#326ce5"/><path d="M690 653.1c-1.17 0-2.05 1.03-2.05 2.36V656.13c0 .73.14 1.32.22 2 .22 1.46.36 2.72.3 3.9-.16.44-.45.8-.74 1.1v.9c-1.25.14-2.5.3-3.8.58-5.36 1.27-10.05 4.14-13.57 8.06-.22-.15-.66-.45-.73-.6-.37.08-.74.23-1.25-.07-.95-.67-1.76-1.56-2.8-2.67-.5-.5-.8-.95-1.38-1.47-.14-.15-.3-.3-.44-.37-.44-.38-.95-.6-1.46-.6-.66 0-1.25.22-1.7.74-.72.96-.43 2.36.52 3.17l.08.08c.07.08.3.23.36.3.66.44 1.18.74 1.76 1.03 1.25.82 2.27 1.5 3.08 2.3.37.37.37.96.44 1.26l.66.6c-3.6 5.52-5.2 12.4-4.25 19.32l-.88.3c-.22.3-.5.74-.88.88-1.1.37-2.28.52-3.75.67-.66.07-1.24 0-1.98.15-.14 0-.36.07-.58.14-1.26.3-2.06 1.48-1.77 2.6.22 1.17 1.4 1.83 2.64 1.6 0 0 .07 0 .07-.06.22 0 .44-.08.6-.08.65-.22 1.16-.5 1.82-.73 1.4-.52 2.5-.96 3.66-1.1.44-.1.96.28 1.18.43l.88-.22c2.12 6.72 6.44 12.1 12 15.5l-.35.9c.14.35.3.87.14 1.24-.36 1.03-1.1 2.2-1.83 3.47-.44.6-.8 1.03-1.17 1.7-.07.14-.15.44-.22.6-.6 1.17-.15 2.5.88 3 1.03.53 2.27 0 2.86-1.17.06-.15.2-.37.28-.6.3-.65.37-1.24.6-1.9.5-1.4.8-2.96 1.6-3.85.22-.3.5-.36.88-.44l.44-.87c4.84 1.92 10.26 2.36 15.68 1.1 1.18-.3 2.42-.66 3.52-1.1.15.3.44.73.44.8.37.16.8.23 1.1.67.6 1.04.95 2.22 1.4 3.62.2.66.36 1.33.65 2 .07.14.14.36.2.5.6 1.2 1.84 1.78 2.87 1.26 1.03-.5 1.47-1.84.88-3.02-.07-.22-.15-.45-.22-.6-.37-.66-.73-1.1-1.1-1.7-.8-1.32-1.47-2.35-1.9-3.46-.15-.52.07-.9.22-1.25-.15-.08-.3-.6-.37-.82 5.72-3.54 9.97-9.15 11.94-15.57.3 0 .74.15.96.15.3-.2.58-.5 1.1-.44 1.17.15 2.27.6 3.66 1.1.66.23 1.17.53 1.83.75.15.08.37.08.6.16h.06c1.25.3 2.42-.45 2.64-1.55.3-1.17-.5-2.35-1.76-2.65-.13 0-.43-.07-.57-.15-.74-.14-1.32-.07-1.98-.14-1.47-.15-2.64-.3-3.74-.67-.43-.16-.72-.67-.87-.9l-.88-.3c.44-3.24.37-6.56-.44-9.95-.72-3.4-2.04-6.57-3.87-9.3.22-.23.66-.6.73-.67.07-.44 0-.8.44-1.25.8-.74 1.83-1.4 3.08-2.22.58-.36 1.1-.58 1.68-1.02.15-.15.37-.3.52-.37.95-.8 1.17-2.28.5-3.16-.72-.96-2.12-1.04-3.14-.22-.15.14-.3.3-.44.36-.6.52-.88 1.04-1.4 1.55-1.02 1.04-1.83 1.92-2.78 2.6-.44.2-1.03.14-1.25.14l-.8.6c-4.55-4.9-10.63-8-17.3-8.65v-.96c-.3-.22-.66-.44-.73-1.03-.07-1.18.07-2.44.3-3.9.07-.68.2-1.27.2-2v-.67c0-1.33-.87-2.36-2.04-2.36zm-2.64 16.6l-.58 11.3h-.08c0 1.03-.8 1.84-1.83 1.84-.37 0-.73-.15-1.03-.37h-.07l-8.94-6.57c2.78-2.8 6.3-4.8 10.33-5.75.74-.22 1.47-.3 2.2-.45zm5.28 0c4.7.6 9.1 2.8 12.46 6.2l-8.94 6.5c-.8.6-1.9.44-2.5-.37-.3-.3-.44-.66-.44-1.03zm-21.04 10.4l8.2 7.54-.06.07c.73.68.88 1.78.3 2.6-.3.37-.6.5-.96.66H679l-10.4 3.17c-.6-5 .6-9.96 3-14.02zm36.72 0c1.25 2.08 2.13 4.3 2.7 6.8.53 2.44.67 4.8.45 7.16l-10.55-3.1v-.07c-.95-.23-1.54-1.27-1.32-2.23.15-.44.3-.74.6-1.03l8.12-7.53zm-20 8.13h3.37l2.04 2.66-.73 3.38-3 1.48-3-1.48-.74-3.4zm10.77 9.15c.06 0 .2 0 .35.08h.08l10.77 1.84c-1.54 4.58-4.62 8.56-8.65 11.22l-4.17-10.48c-.37-.9 0-2 .88-2.44.22-.14.43-.14.73-.22zm-18.26.08c.88 0 1.6.6 1.76 1.47.14.37.07.8-.08 1.18l-4.1 10.42c-3.96-2.58-7.04-6.42-8.65-11.15l10.7-1.9h.37zm9.1 4.57c.28-.07.57 0 .87.15.37.22.67.44.8.8h.1l5.26 9.9c-.73.22-1.4.44-2.12.6-4.03.95-8.06.66-11.73-.67l5.3-9.8c.28-.6.87-.97 1.53-.97z" stroke="#fff" stroke-width=".05" fill="#fff"/><use xlink:href="#e" transform="matrix(1,0,0,1,610,749) translate(42.599999999999994 14.4)"/><path d="M370 502.5v58.38" stroke="#5e5e5e" stroke-width="2" fill="none"/><path d="M371 502.53h-2v-1.03h2" fill="#5e5e5e"/><path d="M370 576.15l-4.64-14.27h9.28z" stroke="#5e5e5e" stroke-width="2" fill="#5e5e5e"/><path d="M550 502.5v58.82" stroke="#5e5e5e" stroke-width="2" fill="none"/><path d="M551 502.53h-2v-1.03h2" fill="#5e5e5e"/><path d="M550 576.6l-4.64-14.28h9.28z" stroke="#5e5e5e" stroke-width="2" fill="#5e5e5e"/><path d="M1190 406c0-3.3 2.7-6 6-6h108c3.3 0 6 2.7 6 6v88c0 3.3-2.7 6-6 6h-108c-3.3 0-6-2.7-6-6z" stroke="#5e5e5e" stroke-width="3" fill="#fff"/><use xlink:href="#d" transform="matrix(1,0,0,1,1195,405) translate(10.061728395061728 48.71527777777778)"/><path d="M1309.9 381.06c-.4.03-.7.1-1 .26l-13.15 6.48c-.72.34-1.2.95-1.36 1.74l-3.27 14.6c-.15.67-.04 1.35.34 1.96.04.08.08.1.15.2l9.1 11.66c.5.64 1.17 1 1.97 1h14.6c.8 0 1.5-.36 1.98-1l9.1-11.67c.5-.65.68-1.4.5-2.2l-3.27-14.56c-.14-.8-.63-1.4-1.35-1.74l-13.15-6.48c-.42-.2-.8-.3-1.2-.26z" stroke="#000" stroke-opacity="0" stroke-width="3.83" fill="#326ce5"/><path d="M1309.88 380c-.4.04-.72.12-1.04.28l-13.88 6.84c-.76.36-1.28 1-1.44 1.84l-3.44 15.4c-.16.72-.04 1.44.36 2.08.04.08.08.12.16.2l9.6 12.32c.52.68 1.24 1.04 2.08 1.04h15.44c.84 0 1.56-.36 2.08-1.04l9.6-12.32c.52-.68.72-1.48.52-2.28l-3.44-15.4c-.16-.84-.68-1.48-1.44-1.84l-13.88-6.84c-.44-.2-.84-.32-1.28-.28zm0 1.08c.44-.04.8.04 1.2.24l13.2 6.48c.68.36 1.16.96 1.36 1.76l3.24 14.56c.16.8 0 1.52-.48 2.16l-9.12 11.68c-.48.64-1.16 1-1.96 1h-14.64c-.8 0-1.48-.36-1.96-1l-9.12-11.68c-.04-.04-.08-.12-.12-.2-.4-.6-.52-1.24-.36-1.96l3.24-14.56c.2-.8.64-1.4 1.36-1.76l13.2-6.48c.32-.16.6-.24.96-.28z" stroke="#000" stroke-opacity="0" stroke-width="3.83" fill="#fff"/><path d="M1308 414.02c0 1.2-.4 1.8-1.2 1.8-.52 0-.86-.2-1.03-.6h-.02v1.86h-.54v-4.05-.7h.53v.1c0 .05 0 .12.02.23v.22h.02c.1-.2.23-.36.4-.46.15-.1.36-.15.62-.15.4 0 .7.14.9.43.2.28.3.72.3 1.32zm-.57 0c0-.46-.06-.8-.18-1-.13-.2-.33-.3-.6-.3-.22 0-.4.04-.5.13-.13.1-.23.25-.3.45-.06.2-.1.46-.1.78 0 .45.08.77.22 1 .14.2.36.3.68.3.27 0 .47-.1.6-.3.12-.2.18-.56.18-1.05zM1311.5 414.03c0 .6-.14 1.05-.4 1.34-.24.3-.62.44-1.1.44-.48 0-.85-.15-1.1-.45-.24-.3-.36-.74-.36-1.32 0-1.17.5-1.76 1.48-1.76.5 0 .88.15 1.1.43.25.3.37.73.37 1.33zm-.58 0c0-.47-.08-.8-.2-1.02-.14-.2-.37-.3-.7-.3-.3 0-.55.1-.7.32-.13.2-.2.55-.2 1 0 .46.06.8.2 1.03.15.23.37.33.67.33.32 0 .56-.1.7-.32.14-.22.22-.56.22-1.03zM1314.27 415.2c-.1.2-.24.37-.4.46-.18.1-.4.14-.63.14-.42 0-.73-.14-.93-.43-.18-.3-.28-.73-.28-1.32 0-1.2.4-1.78 1.22-1.78.25 0 .45.05.62.14.17.1.3.26.4.46V411.08h.55v3.96c0 .35.02.6.03.7h-.52v-.23c-.02-.1-.02-.22-.02-.3zm-1.67-1.17c0 .48.06.82.18 1.03.12.2.32.3.6.3.3 0 .53-.1.67-.33.15-.22.22-.57.22-1.03 0-.45-.07-.8-.22-1-.14-.2-.36-.3-.67-.3-.27 0-.47.1-.6.3-.12.22-.18.56-.18 1.03z" stroke="#000" stroke-opacity="0" fill="#fff"/><path d="M1301.97 393.4l8.03-2.4 8.03 2.4-8.03 2.4zM1301.97 394.32v8.8l7.48 4.27.04-10.78zM1318.03 394.32v8.8l-7.48 4.27-.04-10.78z" stroke="#000" stroke-opacity="0" stroke-width="3.77" fill="#fff"/><path d="M370 502.5v32.16c0 3.32 2.7 6 6 6h168c3.3 0 6 2.7 6 6v14.66" stroke="#5e5e5e" stroke-width="2" fill="none"/><path d="M371 502.53h-2v-1.03h2" fill="#5e5e5e"/><path d="M550 576.6l-4.64-14.28h9.28z" stroke="#5e5e5e" stroke-width="2" fill="#5e5e5e"/><path d="M550 502.5v31.94c0 3.32-2.7 6-6 6H376c-3.3 0-6 2.7-6 6v14.44" stroke="#c92d39" stroke-width="2" fill="none"/><path d="M551 502.53h-2v-1.03h2" fill="#c92d39"/><path d="M370 576.15l-4.64-14.27h9.28z" stroke="#c92d39" stroke-width="2" fill="#c92d39"/><path d="M1169.7 222.64c-.93.1-1.7.28-2.45.66l-32.87 16.2c-1.8.85-3.03 2.37-3.4 4.36l-8.16 36.47c-.38 1.7-.1 3.4.86 4.92.1.2.2.3.38.48l22.73 29.17c1.22 1.6 2.93 2.46 4.92 2.46h36.56c2 0 3.7-.85 4.93-2.46l22.74-29.17c1.23-1.6 1.7-3.5 1.23-5.5l-8.14-36.37c-.38-2-1.6-3.5-3.4-4.36l-32.88-16.2c-1.05-.47-2-.76-3.04-.66z" stroke="#000" stroke-opacity="0" stroke-width="3.83" fill="#326ce5"/><path d="M1169.7 220c-1 .1-1.8.3-2.6.7l-34.7 17.1c-1.9.9-3.2 2.5-3.6 4.6l-8.6 38.5c-.4 1.8-.1 3.6.9 5.2.1.2.2.3.4.5l24 30.8c1.3 1.7 3.1 2.6 5.2 2.6h38.6c2.1 0 3.9-.9 5.2-2.6l24-30.8c1.3-1.7 1.8-3.7 1.3-5.7l-8.6-38.5c-.4-2.1-1.7-3.7-3.6-4.6l-34.7-17.1c-1.1-.5-2.1-.8-3.2-.7zm0 2.7c1.1-.1 2 .1 3 .6l33 16.2c1.7.9 2.9 2.4 3.4 4.4l8.1 36.4c.4 2 0 3.8-1.2 5.4l-22.8 29.2c-1.2 1.6-2.9 2.5-4.9 2.5h-36.6c-2 0-3.7-.9-4.9-2.5l-22.8-29.2c-.1-.1-.2-.3-.3-.5-1-1.5-1.3-3.1-.9-4.9l8.1-36.4c.5-2 1.6-3.5 3.4-4.4l33-16.2c.8-.4 1.5-.6 2.4-.7z" stroke="#000" stroke-opacity="0" stroke-width="3.83" fill="#fff"/><path d="M1160.6 299.03v-1.36h1.36v1.36zm0 10.33v-8.52h1.36v8.52zM1169.33 309.36v-5.4c0-.56-.05-1-.16-1.3-.1-.32-.28-.55-.5-.68-.25-.14-.6-.2-1.04-.2-.67 0-1.2.23-1.57.7-.38.46-.57 1.1-.57 1.94v4.94h-1.4v-6.7c0-1 0-1.6-.03-1.82h1.3v.2l.02.4c0 .16 0 .44.03.85h.02c.32-.6.68-1 1.1-1.25.4-.25.92-.37 1.54-.37.9 0 1.56.23 1.98.7.42.46.63 1.23.63 2.3v5.68zM1175.92 312.7c-.9 0-1.62-.18-2.16-.55-.53-.36-.87-.88-1.03-1.55l1.38-.2c.1.4.3.7.62.9.32.2.73.32 1.24.32 1.37 0 2.05-.83 2.05-2.5v-1.35c-.26.55-.62.96-1.07 1.23-.45.28-1 .4-1.6.4-1 0-1.75-.33-2.23-1.02-.47-.7-.7-1.8-.7-3.28 0-1.5.24-2.6.76-3.32.5-.72 1.28-1.08 2.33-1.08.58 0 1.08.14 1.5.42.44.27.78.66 1 1.17h.03c0-.17 0-.44.03-.83.02-.4.04-.6.06-.64h1.3c-.02.3-.04.88-.04 1.76v6.5c0 2.4-1.15 3.6-3.46 3.6zm2.1-7.6c0-.7-.1-1.3-.28-1.8-.2-.5-.45-.9-.78-1.15-.33-.26-.7-.4-1.13-.4-.7 0-1.22.27-1.54.8-.33.5-.5 1.36-.5 2.54 0 1.15.16 2 .46 2.5.3.5.82.77 1.54.77.44 0 .83-.14 1.16-.4.33-.26.6-.64.78-1.13.18-.5.27-1.07.27-1.75z" stroke="#000" stroke-opacity="0" fill="#fff"/><path d="M1185.22 291.64h-12.55l-27.32-35.16h-7.87v-11.53h12.8l27.33 35.23h7.62v-9.13l17.3 14.83-17.3 14.9zm-13.72-27.13l6.1-7.9h7.62v9.14l17.3-14.83-17.3-14.88v9.13h-12.55l-8.13 10.42zm-19.9 7.78l-6.25 8.03h-7.87v11.53h12.8l8.2-10.6z" stroke="#000" stroke-opacity="0" stroke-width="3.77" fill="#fff"/><path d="M1170 321v32.25c0 3.3-2.7 6-6 6h-88c-3.3 0-6 2.7-6 6V380" stroke="#c92d39" stroke-width="2" fill="none"/><path d="M1171 321.03h-2V320h2" fill="#c92d39"/><path d="M1070 395.26l-4.64-14.26h9.28z" stroke="#c92d39" stroke-width="2" fill="#c92d39"/><path d="M1170 321v32.25c0 3.3 2.7 6 6 6h68c3.3 0 6 2.7 6 6V380" stroke="#5e5e5e" stroke-width="2" fill="none"/><path d="M1171 321.03h-2V320h2" fill="#5e5e5e"/><path d="M1250 395.26l-4.64-14.26h9.28z" stroke="#5e5e5e" stroke-width="2" fill="#5e5e5e"/><path d="M1130 688.88c0 6.63-26.86 12-60 12s-60-5.37-60-12v-96c0-6.62 26.86-12 60-12s60 5.38 60 12z" stroke="#5e5e5e" stroke-width="3" fill="#fff"/><path d="M1130 592.88c0 6.63-26.86 12-60 12s-60-5.37-60-12" stroke="#5e5e5e" stroke-width="3" fill="none"/><path d="M1026.2 621l1.05 2.05c.2.37.53.7.84 1.02.84.9 1.8 1.88 2.53 2.9 1.8 2.42 3.07 5.12 4.03 8.02.52 1.8.74 3.63.84 5.47 0 5.52-1.9 10.26-5.7 14.18-.65.66-1.28 1.2-2.02 1.72-.32 0-.53-.28-.64-.53-.32-.53-.53-1.06-.63-1.64-.1-.65-.2-1.3-.1-2v-.33c-.1-.04-.42-30.7-.2-30.86z" stroke="#000" stroke-opacity="0" fill="#599636"/><path d="M1026.2 620.93c-.12-.1-.12 0-.22.04.1.45-.1.8-.32 1.22-.32.36-.63.65-1.06.97-1.9 1.72-3.5 3.77-4.76 6.1-1.6 3.1-2.54 6.46-2.75 9.97-.12 1.27.4 5.73.84 7.03 1.05 3.44 3.06 6.3 5.6 8.8.64.6 1.27 1.14 1.9 1.67.22 0 .22-.16.33-.3.1-.27.1-.56.2-.85.22-1.15.33-2.25.43-3.36l-.2-31.3z" stroke="#000" stroke-opacity="0" fill="#6cac48"/><path d="M1027.25 657.72c0-.5.32-.9.53-1.35-.2-.08-.43-.33-.64-.57-.1-.2-.2-.5-.32-.74-.3-.94-.3-1.92-.42-2.86v-.57c-.1.08-.2.82-.2.94 0 1.02-.12 2.04-.33 3.02-.1.36-.1.77-.42 1.14 0 .04 0 .08.1.16.32 1.2.43 2.37.53 3.6v.45c0 .53 0 .4.43.6.22.05.43.1.54.22.2 0 .2-.12.2-.2l-.1-.74v-2.05c0-.36.1-.7.1-1.06z" stroke="#000" stroke-opacity="0" fill="#c2bfbf"/><path d="M1044.18 648.44v2.37c0 .26.2.42.42.46.2.08.43.12.64.12.1.04.1.1.2.2 0 .5-.1.54-.52.54-1.06-.08-2.12-.08-3.28 0h-.1c-.32 0-.32-.04-.32-.37v-.16c0-.13.1-.18.2-.18l.64-.12c.32-.08.43-.24.43-.53.1-.33.1-.65.1-.98v-3.77c0-.2-.1-.4-.33-.53-.2-.13-.52-.25-.74-.33-.1-.04-.2-.04-.3-.08-.23-.1-.23-.3 0-.42.1-.04.2-.04.2-.08.95-.13 1.7-.3 2.54-.62.1-.04.2-.04.2.13v1.03c.12.04.22 0 .22-.04.3-.22.63-.42.94-.63.43-.24.96-.45 1.5-.53.62-.08 1.15.08 1.68.5.2.2.32.36.53.6.1.2.1.2.3.1.54-.42 1.07-.75 1.7-1 .64-.28 1.28-.32 1.9-.07.65.24 1.07.7 1.4 1.3.2.5.3 1.03.3 1.56v3.76c0 .23.1.4.32.52l.85.2c.2.05.2.05.2.2 0 .5-.1.5-.52.5-1.16-.08-2.22-.08-3.38 0-.22 0-.22 0-.22-.2v-.1c0-.35 0-.35.32-.44l.43-.12c.2-.04.42-.28.42-.53V646.93c0-.25-.1-.45-.1-.7-.43-.86-1.17-1.14-1.9-1.06-.54.04-1.07.3-1.5.57-.1.08-.2.17-.2.33.1.86.1 1.76.1 2.66v1.96c0 .32.1.48.42.56l.63.16c.1 0 .2.05.2.17v.07c0 .4-.1.4-.4.4-1.18-.03-2.23-.03-3.4 0-.32.05-.42 0-.32-.4 0-.2 0-.25.23-.3l.42-.07c.42-.08.63-.2.63-.65V646.9c0-.34-.1-.67-.3-1-.23-.53-.75-.77-1.28-.8-.64-.05-1.17.2-1.7.44-.3.2-.42.45-.42.86v2.04zm26.24.08v2.36c.1.22.2.38.43.42.2.04.42.08.74.12.1 0 .1.05.1.17v.1c0 .5 0 .54-.54.5-1.05-.04-2.1-.04-3.17 0l-.43.04c-.1 0-.1-.04-.1-.12v-.57c0-.08.1-.13.1-.13l.63-.12c.32-.08.42-.2.53-.57v-4.62c0-.24-.1-.4-.32-.48-.3-.16-.52-.25-.83-.37l-.22-.08c-.2-.12-.2-.3 0-.45.1-.08.1-.08.22-.12.95-.13 1.8-.33 2.64-.66.12-.04.12 0 .22.08v.95c0 .08-.1.2 0 .2.1.08.1-.04.2-.08.44-.38.86-.63 1.4-.87.4-.2.84-.33 1.37-.33.94.08 1.57.53 2 1.35.2.45.3.94.3 1.4l.12 1v3.12c0 .25.1.37.32.5l.74.15c.2.05.32.1.32.3v.03c-.1.5-.1.5-.53.5-1.17-.1-2.12-.1-3.18 0h-.43c-.1 0-.1 0-.1-.1 0-.2-.1-.36 0-.56 0-.1 0-.13.1-.13l.63-.13c.22-.04.32-.2.43-.4V647.6c0-.32 0-.65-.1-.98-.1-.73-.75-1.23-1.5-1.3-.63-.1-1.15.07-1.68.44-.32.17-.43.4-.43.7v2.04z" stroke="#000" stroke-opacity="0" stroke-width="1.02" fill="#47474a"/><path d="M1111.27 644.56c-.1-1.03-.53-1.93-1.16-2.7-.52-.74-1.26-1.27-2.1-1.6-.86-.36-1.8-.5-2.76-.53-.42 0-5.72.08-6.14 0-.1 0-.2.04-.2.12-.12.1-.12.2-.22.33-.1.37-.1.33.2.4.43.05.75.1 1.07.17.2.1.42.25.53.58 0 .16.1 5.07.1 7.36l-.1 1.62c0 .12 0 .25-.1.37 0 .15-.12.28-.33.36-.1.08-.3.16-.53.16-.42.04-.42.04-.52.5l-.1.1c0 .22 0 .22.2.22l4.13.04h1.7l1.05-.16c1.27-.2 2.43-.74 3.4-1.6.62-.53 1.04-1.06 1.36-1.76.42-.77.53-1.63.64-2.5 0-.48 0-1-.1-1.5zm-2 2c0 .86-.22 1.76-.65 2.53-.63 1.02-1.48 1.7-2.64 1.96-.42.12-.95.16-1.48.08-.43-.04-.74-.08-1.06-.2-.64-.2-.95-.62-.95-1.23v-8.4c0-.5.2-.63.62-.63.53-.04 1.06-.04 1.6.04.62.05 1.15.18 1.68.42.43.17.74.37 1.17.66.74.65 1.27 1.47 1.48 2.4.2.8.32 1.56.2 2.34zm13.64 1.35v-.24c-.1-.77-.52-1.35-1.15-1.8-.43-.28-.85-.5-1.38-.6-.1-.05-.1-.1-.2-.1 0-.07.1-.07.1-.07.3-.18.52-.3.74-.54.43-.33.75-.78.96-1.35v-.85c0-.78-.43-1.4-1.06-1.84-.63-.44-1.38-.65-2.12-.7h-4.55c-.42 0-.84.05-1.27-.03-.1 0-.2-.04-.3.08-.12.17-.23.37-.23.58-.1.08 0 .16.1.16l.96.1c.3.1.63.3.63.63 0 .24.1.45.1.7l-.1 2.6v5.16c0 .32 0 .6-.1.9 0 .2-.1.36-.33.44-.3.08-.52.16-.84.16-.2-.04-.32.08-.43.2 0 .13 0 .3-.1.42 0 .16 0 .2.2.2.12 0 4.77.08 5.62 0 .53-.04 1.06-.12 1.48-.25.95-.28 1.7-.7 2.33-1.4.53-.56.84-1.2.95-2v-.56zm-6.76-5.72v-1.1c0-.2.1-.33.32-.37.3-.03.74-.03 1.05 0 .33 0 .65.05.97.18.63.16 1.05.53 1.37 1.1.1.3.2.53.2.86 0 .37 0 .78-.2 1.14-.2.54-.63.86-1.16.94-.53.13-2 .05-2.33.05-.2 0-.2 0-.2-.2v-1.32-1.27zm4.55 7.53c-.22.62-.65 1.07-1.28 1.32-.32.12-.74.2-1.06.16-.42 0-.85 0-1.27-.08-.64-.12-.86-.7-.96-1.1v-3.81c0-.2 0-.3.32-.3h1.27l.84.13c.64.12 1.27.37 1.7.86.3.4.52.85.63 1.38 0 .5 0 .94-.2 1.43z" stroke="#000" stroke-opacity="0" stroke-width="1.02" fill="#c2bfbf"/><path d="M1085.24 645.5l.32.04c.42.04.84-.13 1.05-.66v-.77c-.1 0-.2.05-.2.1-.2.15-.42.23-.74.27-.42.05-.95.05-1.48-.16l-.63-.2c-.53-.16-.96-.24-1.5-.2-.73.04-1.36.3-2 .62-.63.36-1.16.9-1.37 1.63-.1.45-.1.9-.1 1.35.1 1.02.63 1.72 1.58 2.1l.2.07c.12.04.12.12 0 .24l-.3.22-.85.53c-.2.12-.2.2-.2.45.1.28.3.5.52.65.1.2.32.3.64.4.1.1.1.1 0 .22l-.85.57c-.2.2-.52.4-.73.7-.32.32-.42.77-.32 1.22.1.53.32.94.74 1.27.3.36.74.57 1.26.7.75.24 1.6.24 2.44.07 1.06-.2 2.1-.7 2.86-1.55.52-.57.84-1.27.95-2.04 0-.98-.63-1.83-1.58-2.04l-.74-.12-2.22-.2c-.32-.05-.53-.1-.74-.2-.32-.17-.32-.5-.2-.7.1-.17.3-.25.5-.25l.44-.05c.95-.12 1.7-.45 2.33-1.1.4-.33.62-.7.73-1.2.2-.56.2-1.22 0-1.83 0-.12 0-.16.2-.12zm-3.4 6.95h.22c.53.04 1.17.08 1.7.2.2.08.42.12.63.25.52.28.73.8.63 1.4-.1.6-.43 1.05-.96 1.38-.3.2-.74.28-1.16.32h-.4c-.54 0-1.07-.04-1.5-.24-.3-.12-.52-.33-.84-.57-.42-.5-.64-1.4 0-2.1.53-.4.95-.7 1.7-.65zm1.6-4.34c-.32.75-.95.95-1.6.87-.62-.08-1.05-.4-1.36-.94-.32-.73-.43-1.47-.22-2.2.1-.58.53-1.03 1.17-1.1.74-.17 1.48.1 1.9.9.22.36.32.85.32 1.5-.1.25-.1.62-.2.94zm-17.67-.97c-.1-.73-.32-1.43-.85-2-.85-.86-1.8-1.23-2.86-1.23-.95 0-1.9.3-2.75.78-.73.5-1.26 1.18-1.58 2.12-.2.82-.2 1.64 0 2.46.43 2.2 2.12 3.15 4.24 3.02.53-.04 1.16-.24 1.7-.5.73-.4 1.37-.97 1.8-1.8.3-.64.4-1.34.4-2.1l-.1-.75zm-1.9 3.1c-.22.66-.75 1.1-1.5 1.2-.62.08-1.15-.1-1.68-.45-.44-.3-.65-.62-.86-1.03-.63-1.18-.74-2.4-.42-3.68.1-.4.32-.73.63-1.02.53-.45 1.06-.57 1.8-.45.64.17 1.06.5 1.48 1.02.43.54.64 1.15.74 1.8v.86c0 .66 0 1.23-.2 1.76zm32.48-2.98c-.1-.8-.42-1.55-1.06-2.16-.75-.83-1.7-1.2-2.76-1.2-.95 0-1.8.25-2.65.74-.85.5-1.5 1.27-1.7 2.3-.32 1.13-.2 2.24.32 3.3.42.98 1.27 1.6 2.22 1.88 1.16.33 2.22.16 3.28-.33.95-.46 1.6-1.15 2-2.13.22-.53.33-1.15.33-1.84v-.58zm-2 2.83c-.22.73-.65 1.22-1.5 1.34-.52.1-1.16-.08-1.58-.4-.42-.3-.74-.7-.95-1.15-.32-.5-.43-.98-.53-1.5 0-.67 0-1.32.1-1.97 0-.13.1-.25.1-.37.42-.98 1.27-1.43 2.33-1.23.63.17 1.16.53 1.6 1.1.3.58.5 1.2.62 1.85v.77c0 .57 0 1.07-.2 1.56z" stroke="#000" stroke-opacity="0" stroke-width="1.02" fill="#47474a"/><path d="M1310 689.33c0 6.62-26.86 12-60 12s-60-5.38-60-12v-96c0-6.63 26.86-12 60-12s60 5.37 60 12z" stroke="#5e5e5e" stroke-width="3" fill="#fff"/><path d="M1310 593.33c0 6.62-26.86 12-60 12s-60-5.38-60-12" stroke="#5e5e5e" stroke-width="3" fill="none"/><path d="M1235.6 654.83h-2.3v-9.26h-3v-1.88h8.3v1.87h-3zM1241.8 644.92c-.1.65-.6 1.15-1.3 1.15-.6-.02-1.1-.53-1.1-1.17 0-.65.5-1.16 1.1-1.18h.1c.7 0 1.2.5 1.2 1.2zm-.2 9.9h-2.1v-7.73h2.1zM1245.2 647.04v.96c.5-.85 1.1-1.23 2.1-1.23s1.8.46 2.1 1.3c.5-.9 1.3-1.3 2.4-1.3.8 0 1.4.24 1.8.72.5.5.7 1.04.7 2.22v5.03h-2.2v-4.66c0-1.05-.3-1.53-1.2-1.53-.7 0-1.2.56-1.2 1.52v4.65h-2.1v-4.58c0-1.07-.4-1.6-1.2-1.6-.8 0-1.2.53-1.2 1.6v4.58h-2.1v-7.7zM1278.4 654c-.8.8-1.8 1.15-2.9 1.15-2.4 0-4.1-1.74-4.1-4.1 0-2.43 1.7-4.14 4.1-4.14 1.1 0 2.1.4 3.1 1.3l-1.4 1.28c-.5-.5-1-.7-1.6-.7-1.2 0-2.1.96-2.1 2.22 0 1.3.9 2.28 2.2 2.28.5 0 .9-.2 1.5-.67zM1285 647.17h2.2v7.72h-2.2v-1.1c-.7.93-1.5 1.35-2.7 1.35-2.1 0-3.7-1.68-3.7-4.04 0-2.43 1.7-4.2 3.9-4.2 1.1 0 1.8.35 2.5 1.24zm-4.1 3.9c0 1.35.9 2.37 2 2.37 1.2 0 2.2-1.1 2.2-2.44 0-1.36-.9-2.33-2.2-2.33-1.2 0-2 1-2 2.4zM1288.6 654.97v-11.14h2.1v11.14zM1263.3 651.62h-6.3c0 .53.3 1 .7 1.34.4.32.9.5 1.5.5.8 0 1.4-.26 1.9-.77l1.7.77c-.4.6-.9 1-1.5 1.3-.6.28-1.3.44-2.1.44-1.2 0-2.2-.4-3-1.17-.8-.78-1.2-1.77-1.2-2.95 0-1.2.4-2.2 1.2-3 .8-.8 1.8-1.2 2.9-1.2 1.3 0 2.3.4 3.1 1.2.7.8 1.1 1.85 1.1 3.16zm-2-1.55c-.1-.46-.3-.8-.7-1.08-.4-.3-.9-.43-1.4-.43-.5 0-1 .13-1.4.45-.3.22-.5.54-.8 1.05zM1300 651.7h-6.4c.1.53.3.96.8 1.34.4.32.9.48 1.5.48.7.03 1.4-.24 1.9-.78l1.7.8c-.4.57-.9 1-1.5 1.3-.6.3-1.3.42-2.1.42-1.2 0-2.2-.37-3-1.15-.8-.8-1.2-1.76-1.2-2.94 0-1.2.4-2.22 1.2-3 .7-.8 1.7-1.2 2.9-1.2s2.3.4 3 1.2c.8.78 1.2 1.85 1.2 3.16zm-2-1.58c-.1-.46-.4-.8-.8-1.07-.4-.3-.8-.43-1.3-.4-.6-.03-1 .13-1.5.45-.2.2-.5.54-.7 1.02zM1264.8 652.5c0 .06.6.48 1.7.83.5.14 1 .16 1.6.08.3-.04.5-.12.7-.28.1-.06.2-.14.2-.27 0-.2 0-.37-.2-.5-.1-.2-.4-.28-.6-.33-.5-.16-1-.27-1.5-.35-.5-.1-1-.2-1.4-.45-.6-.3-1-.62-1.2-1.26-.2-.67-.1-1.3.3-1.88.7-1 2-1.23 2.6-1.28 2.2-.14 3.7 1.18 3.8 1.26l-1.2 1.34s-1.1-.94-2.4-.83c-.8.02-1.1.32-1.2.42-.1.1-.1.2-.1.34 0 .22.1.4 1.1.64.6.14 1 .22 1.7.43 1.2.4 2.3 1.17 2.1 2.6-.2 1.62-1.9 2.2-3.3 2.2-.6 0-1-.05-1.6-.2-1.5-.5-2.2-1-2.3-1.08l1.2-1.44z" stroke="#000" stroke-opacity="0" stroke-width=".52" fill="#333"/><path d="M1226.8 649.26c0 7.4-6 13.4-13.4 13.4s-13.4-6-13.4-13.4 6-13.4 13.4-13.4 13.4 6 13.4 13.4z" stroke="#000" stroke-opacity="0" stroke-width=".52" fill="#f8eed0"/><path d="M1213.4 640.26c4.9 0 9 4.02 9 8.98 0 4.95-4.1 9-9 9-5 0-9-4.05-9-9 0-4.96 4-8.98 9-8.98z" stroke="#000" stroke-opacity="0" stroke-width=".52" fill="#fcb415"/><path d="M1215.6 646.82c.6-1.3 1.8-2.03 2.9-1.6 1 .43 1.4 1.82.8 3.13-.5 1.3-1.8 2.04-2.8 1.63-1-.42-1.4-1.84-.9-3.16z" stroke="#000" stroke-opacity="0" stroke-width=".2" fill="#fff"/><path d="M1213.4 654.8c1.4 0 2.6 1.24 2.6 2.8 0 1.52-1.2 2.78-2.6 2.78-1.4 0-2.6-1.26-2.6-2.8 0-1.54 1.2-2.77 2.6-2.77z" stroke="#000" stroke-opacity="0" stroke-width=".52" fill="#fff"/><path d="M1208.4 645.22c1-.43 2.3.3 2.8 1.6.6 1.32.2 2.74-.8 3.16-1.1.4-2.3-.32-2.9-1.63-.5-1.3-.1-2.7.9-3.13z" stroke="#000" stroke-opacity="0" stroke-width=".48" fill="#fff"/><path d="M1218 657.9c2.9-1.6 4.7-4.27 5-7.6l1.6 1.8c-.9 3.62-3.2 6.35-6.6 7.82v-.96-1.07zm-7.7.63c2.1.72 4.2.7 6.3-.06-.2.84-.5 1.48-1 2.17-1.5.3-2.8.33-4.4.03-.4-.7-.7-1.34-.9-2.14zm-1.5-.62c-2.9-1.57-4.8-4.3-5.1-7.65l-1.5 1.98c.9 3.6 3.2 6.27 6.7 7.72-.1-.35-.1-.64-.1-1v-1.04zm12.4-14.37l1.1-1.58c-.9-1-1.7-1.7-2.8-2.4l-1.8 1.06c1.4.73 2.5 1.65 3.5 2.93zm-13.8-4.07c-1.2.7-2.1 1.47-2.9 2.5l1.2 1.38c1-1.2 2-2.06 3.4-2.73zM1207 649.26c0-2.9 1.8-5.33 4.6-6.16.1-.32.2-.6.4-.85-1.9.37-3.4 1.36-4.5 3-2.2 3.26-1.4 7.7 1.9 9.9l.3-.7c-1.8-1.22-2.7-3.07-2.7-5.2z" stroke="#000" stroke-opacity="0" stroke-width=".52" fill="#333"/><path d="M1208.2 647.12l.6.13c.5-1.18 1.3-2 2.5-2.54v-.63c-1.4.6-2.4 1.6-3.1 3.05zM1208.4 650.04h-.5c.2 1.53.9 2.73 2.2 3.67 0-.18.1-.3.2-.47-1-.8-1.6-1.88-1.9-3.2zM1218 647.28l.5-.16c-.6-1.63-1.9-2.76-3.6-3.24 0 .2.1.4.1.6 1.4.5 2.4 1.43 3 2.8zM1219 648.54l-.6-.6-1.9.3-.3.9.9.58 1.6-.6.3-.58zM1207.9 648.54l.6-.6 1.9.3.3.9-.9.58-1.6-.6-.3-.58zM1218.7 650.95c.1-.32.1-.6.2-.9h-.6c0 .18 0 .3-.1.5.2.13.3.27.5.4zM1216.9 652.8c-.1.16-.3.26-.4.4.1.13.2.3.3.45.2-.18.4-.37.7-.6-.2-.1-.4-.17-.6-.25z" stroke="#000" stroke-opacity="0" stroke-width=".52" fill="#333"/><path d="M1219.8 649.26c0 .83-.1 1.56-.5 2.36.2.2.4.45.5.72.4-.77.6-1.47.7-2.33.4-3.9-2.4-7.43-6.3-7.84.2.25.3.5.4.8 3.1.6 5.2 3.2 5.2 6.3zM1218.3 653.33c-.3.43-.7.75-1.1 1.1.1.22.1.46.2.7.7-.48 1.3-1 1.8-1.7-.3 0-.6-.02-.9-.1zM1214 648.38l-.6-6.27h-.6l-.5 6.3v.36c.1.13.1.2.1.3.1.28.3.47.5.6.1.03.1.08.2.1v.04l6.2 3.43.4-.46zM1214.8 656.95c-.5 0-.9-.3-1-.78l2.3-.88-.6-1.38-2.1.9-2.2-.9-.5 1.37 2.3.9c-.2.45-.6.75-1 .75h-.1l-.5.67c.7.24 1.5 0 2-.62.5.62 1.3.86 2 .6l-.4-.65h-.2z" stroke="#000" stroke-opacity="0" stroke-width=".52" fill="#333"/><path d="M1220.6 643.85l-.8.83c2.5 3.56 1.7 8.47-1.9 10.98-.1.08-.1.14-.2.22.1.37.1.72.2 1.12.3-.2.6-.35.9-.6 4-2.96 4.7-8.6 1.8-12.55zM1205.5 649.24c0-1.7.5-3.17 1.5-4.53l-.8-.85c-.2.32-.4.6-.6.94-2.5 4.3-1 9.8 3.3 12.26.1-.43.2-.75.3-1.16-2.4-1.5-3.7-3.88-3.7-6.66zM1213.4 640.26c-1.4 0-2.6.27-3.9.86l.6.96c2.2-1 4.4-1 6.6 0l.5-.96c-1.2-.6-2.4-.86-3.8-.86z" stroke="#000" stroke-opacity="0" stroke-width=".52" fill="#333"/><path d="M1389.7 640c-1 .1-1.8.3-2.6.7l-34.7 17.1c-1.9.9-3.2 2.5-3.6 4.6l-8.6 38.5c-.4 1.8-.1 3.6.9 5.2.1.2.2.3.4.5l24 30.8c1.3 1.7 3.1 2.6 5.2 2.6h38.6c2.1 0 3.9-.9 5.2-2.6l24-30.8c1.3-1.7 1.8-3.7 1.3-5.8l-8.6-38.4c-.4-2.1-1.7-3.7-3.6-4.6l-34.7-17.1c-1.1-.5-2.1-.8-3.2-.7z" stroke="#fff" stroke-width="0" fill="#326ce5"/><path d="M1390 653.1c-1.17 0-2.05 1.03-2.05 2.36V656.13c0 .73.14 1.32.22 2 .22 1.46.36 2.72.3 3.9-.16.44-.45.8-.74 1.1v.9c-1.25.14-2.5.3-3.8.58-5.36 1.27-10.05 4.14-13.57 8.06-.22-.15-.66-.45-.73-.6-.37.08-.74.23-1.25-.07-.95-.67-1.76-1.56-2.8-2.67-.5-.5-.8-.95-1.38-1.47-.14-.15-.3-.3-.44-.37-.44-.38-.95-.6-1.46-.6-.66 0-1.25.22-1.7.74-.72.96-.43 2.36.52 3.17l.08.08c.07.08.3.23.36.3.66.44 1.18.74 1.76 1.03 1.25.82 2.27 1.5 3.08 2.3.37.37.37.96.44 1.26l.66.6c-3.6 5.52-5.2 12.4-4.25 19.32l-.88.3c-.22.3-.5.74-.88.88-1.1.37-2.28.52-3.75.67-.66.07-1.24 0-1.98.15-.14 0-.36.07-.58.14-1.26.3-2.06 1.48-1.77 2.6.22 1.17 1.4 1.83 2.64 1.6 0 0 .07 0 .07-.06.22 0 .44-.08.6-.08.65-.22 1.16-.5 1.82-.73 1.4-.52 2.5-.96 3.66-1.1.44-.1.96.28 1.18.43l.88-.22c2.12 6.72 6.44 12.1 12 15.5l-.35.9c.14.35.3.87.14 1.24-.36 1.03-1.1 2.2-1.83 3.47-.44.6-.8 1.03-1.17 1.7-.07.14-.15.44-.22.6-.6 1.17-.15 2.5.88 3 1.03.53 2.27 0 2.86-1.17.06-.15.2-.37.28-.6.3-.65.37-1.24.6-1.9.5-1.4.8-2.96 1.6-3.85.22-.3.5-.36.88-.44l.44-.87c4.84 1.92 10.26 2.36 15.68 1.1 1.18-.3 2.42-.66 3.52-1.1.15.3.44.73.44.8.37.16.8.23 1.1.67.6 1.04.95 2.22 1.4 3.62.2.66.36 1.33.65 2 .07.14.14.36.2.5.6 1.2 1.84 1.78 2.87 1.26 1.03-.5 1.47-1.84.88-3.02-.07-.22-.15-.45-.22-.6-.37-.66-.73-1.1-1.1-1.7-.8-1.32-1.47-2.35-1.9-3.46-.15-.52.07-.9.22-1.25-.15-.08-.3-.6-.37-.82 5.72-3.54 9.97-9.15 11.94-15.57.3 0 .74.15.96.15.3-.2.58-.5 1.1-.44 1.17.15 2.27.6 3.66 1.1.66.23 1.17.53 1.83.75.15.08.37.08.6.16h.06c1.25.3 2.42-.45 2.64-1.55.3-1.17-.5-2.35-1.76-2.65-.13 0-.43-.07-.57-.15-.74-.14-1.32-.07-1.98-.14-1.47-.15-2.64-.3-3.74-.67-.43-.16-.72-.67-.87-.9l-.88-.3c.44-3.24.37-6.56-.44-9.95-.72-3.4-2.04-6.57-3.87-9.3.22-.23.66-.6.73-.67.07-.44 0-.8.44-1.25.8-.74 1.83-1.4 3.08-2.22.58-.36 1.1-.58 1.68-1.02.15-.15.37-.3.52-.37.95-.8 1.17-2.28.5-3.16-.72-.96-2.12-1.04-3.14-.22-.15.14-.3.3-.44.36-.6.52-.88 1.04-1.4 1.55-1.02 1.04-1.83 1.92-2.78 2.6-.44.2-1.03.14-1.25.14l-.8.6c-4.55-4.9-10.63-8-17.3-8.65v-.96c-.3-.22-.66-.44-.73-1.03-.07-1.18.07-2.44.3-3.9.07-.68.2-1.27.2-2v-.67c0-1.33-.87-2.36-2.04-2.36zm-2.64 16.6l-.58 11.3h-.08c0 1.03-.8 1.84-1.83 1.84-.37 0-.73-.15-1.03-.37h-.07l-8.94-6.57c2.78-2.8 6.3-4.8 10.33-5.75.74-.22 1.47-.3 2.2-.45zm5.28 0c4.7.6 9.1 2.8 12.46 6.2l-8.94 6.5c-.8.6-1.9.44-2.5-.37-.3-.3-.44-.66-.44-1.03zm-21.04 10.4l8.2 7.54-.06.07c.73.68.88 1.78.3 2.6-.3.37-.6.5-.96.66h-.07l-10.4 3.17c-.6-5 .6-9.96 3-14.02zm36.72 0c1.25 2.08 2.13 4.3 2.7 6.8.53 2.44.67 4.8.45 7.16l-10.55-3.1v-.07c-.95-.23-1.54-1.27-1.32-2.23.15-.44.3-.74.6-1.03l8.12-7.53zm-20 8.13h3.37l2.04 2.66-.73 3.38-3 1.48-3-1.48-.74-3.4zm10.77 9.15c.06 0 .2 0 .35.08h.08l10.77 1.84c-1.54 4.58-4.62 8.56-8.65 11.22l-4.17-10.48c-.37-.9 0-2 .88-2.44.22-.14.43-.14.73-.22zm-18.26.08c.88 0 1.6.6 1.76 1.47.14.37.07.8-.08 1.18l-4.1 10.42c-3.96-2.58-7.04-6.42-8.65-11.15l10.7-1.9h.37zm9.1 4.57c.28-.07.57 0 .87.15.37.22.67.44.8.8h.1l5.26 9.9c-.73.22-1.4.44-2.12.6-4.03.95-8.06.66-11.73-.67l5.3-9.8c.28-.6.87-.97 1.53-.97z" stroke="#fff" stroke-width=".05" fill="#fff"/><use xlink:href="#f" transform="matrix(1,0,0,1,1310,749) translate(42.599999999999994 14.4)"/><path d="M1070 502.5v58.38" stroke="#c92d39" stroke-width="2" fill="none"/><path d="M1071 502.53h-2v-1.03h2" fill="#c92d39"/><path d="M1070 576.15l-4.64-14.27h9.28z" stroke="#c92d39" stroke-width="2" fill="#c92d39"/><path d="M1250 502.5v58.82" stroke="#5e5e5e" stroke-width="2" fill="none"/><path d="M1251 502.53h-2v-1.03h2" fill="#5e5e5e"/><path d="M1250 576.6l-4.64-14.28h9.28z" stroke="#5e5e5e" stroke-width="2" fill="#5e5e5e"/><path d="M1171 201.52h-2v-60.1h2" fill="#5e5e5e"/><path d="M1171 141.44h-2v-1.03h2M1170 216.8l-4.64-14.28h9.28z" fill="#5e5e5e"/><path d="M1170 220.02l-6-18.5h12m-9.26 2l3.26 10.03 3.26-10.03" fill="#5e5e5e"/><path d="M1188.48 181h-12.35l-2.64.7-1.8 1.8-.7 2.63v15.4h-2v-15.66l.92-3.42 2.53-2.53 3.42-.92h12.6m170.65-80h-14.87l-2.64.7-1.77 1.8-.7 2.63v70l-.78 2.83v-7.63h-1.23v-65.46l.92-3.42 2.53-2.53L1344 97h15.12" fill="#c92d39"/><path d="M1360.12 99h-1.03v-2h1.02M1170 216.8l-4.64-14.28h9.28z" fill="#c92d39"/><path d="M1170 220.02l-6-18.5h12m-9.26 2l3.26 10.03 3.26-10.03" fill="#c92d39"/><use xlink:href="#g" transform="matrix(1,0,0,1,1188.4776281923773,169.33333333333334) translate(0 14.222222222222223)"/><use xlink:href="#h" transform="matrix(1,0,0,1,1188.4776281923773,169.33333333333334) translate(88.19753086419755 14.222222222222223)"/><path d="M1007.5 450h-33c-3.3 0-6-2.7-6-6V186.02c0-3.3-2.7-6-6-6H476c-3.3 0-6 2.7-6 6v15.5" stroke="#c92d39" stroke-width="2" fill="none"/><path d="M1008.5 451h-1.03v-2h1.03" fill="#c92d39"/><path d="M470 216.8l-4.64-14.28h9.28z" stroke="#c92d39" stroke-width="2" fill="#c92d39"/><defs><path fill="#333" d="M63-220v92h138v28H63V0H30v-248h175v28H63" id="i"/><path fill="#333" d="M100-194c62-1 85 37 85 99 1 63-27 99-86 99S16-35 15-95c0-66 28-99 85-99zM99-20c44 1 53-31 53-75 0-43-8-75-51-75s-53 32-53 75 10 74 51 75" id="j"/><path fill="#333" d="M114-163C36-179 61-72 57 0H25l-1-190h30c1 12-1 29 2 39 6-27 23-49 58-41v29" id="k"/><path fill="#333" d="M210-169c-67 3-38 105-44 169h-31v-121c0-29-5-50-35-48C34-165 62-65 56 0H25l-1-190h30c1 10-1 24 2 32 10-44 99-50 107 0 11-21 27-35 58-36 85-2 47 119 55 194h-31v-121c0-29-5-49-35-48" id="l"/><path fill="#333" d="M16-82v-28h88v28H16" id="m"/><path fill="#333" d="M33 0v-248h34V0H33" id="n"/><path fill="#333" d="M117-194c89-4 53 116 60 194h-32v-121c0-31-8-49-39-48C34-167 62-67 57 0H25l-1-190h30c1 10-1 24 2 32 11-22 29-35 61-36" id="o"/><path fill="#333" d="M115-194c55 1 70 41 70 98S169 2 115 4C84 4 66-9 55-30l1 105H24l-1-265h31l2 30c10-21 28-34 59-34zm-8 174c40 0 45-34 45-75s-6-73-45-74c-42 0-51 32-51 76 0 43 10 73 51 73" id="p"/><path fill="#333" d="M84 4C-5 8 30-112 23-190h32v120c0 31 7 50 39 49 72-2 45-101 50-169h31l1 190h-30c-1-10 1-25-2-33-11 22-28 36-60 37" id="q"/><path fill="#333" d="M59-47c-2 24 18 29 38 22v24C64 9 27 4 27-40v-127H5v-23h24l9-43h21v43h35v23H59v120" id="r"/><g id="a"><use transform="matrix(0.06172839506172839,0,0,0.06172839506172839,0,0)" xlink:href="#i"/><use transform="matrix(0.06172839506172839,0,0,0.06172839506172839,13.518518518518517,0)" xlink:href="#j"/><use transform="matrix(0.06172839506172839,0,0,0.06172839506172839,25.864197530864196,0)" xlink:href="#k"/><use transform="matrix(0.06172839506172839,0,0,0.06172839506172839,33.20987654320987,0)" xlink:href="#l"/><use transform="matrix(0.06172839506172839,0,0,0.06172839506172839,51.66666666666666,0)" xlink:href="#m"/><use transform="matrix(0.06172839506172839,0,0,0.06172839506172839,59.012345679012334,0)" xlink:href="#n"/><use transform="matrix(0.06172839506172839,0,0,0.06172839506172839,65.18518518518518,0)" xlink:href="#o"/><use transform="matrix(0.06172839506172839,0,0,0.06172839506172839,77.53086419753086,0)" xlink:href="#p"/><use transform="matrix(0.06172839506172839,0,0,0.06172839506172839,89.87654320987654,0)" xlink:href="#q"/><use transform="matrix(0.06172839506172839,0,0,0.06172839506172839,102.22222222222223,0)" xlink:href="#r"/></g><path fill="#333" d="M30-248c118-7 216 8 213 122C240-48 200 0 122 0H30v-248zM63-27c89 8 146-16 146-99s-60-101-146-95v194" id="s"/><path fill="#333" d="M100-194c63 0 86 42 84 106H49c0 40 14 67 53 68 26 1 43-12 49-29l28 8c-11 28-37 45-77 45C44 4 14-33 15-96c1-61 26-98 85-98zm52 81c6-60-76-77-97-28-3 7-6 17-6 28h103" id="t"/><path fill="#333" d="M108 0H70L1-190h34L89-25l56-165h34" id="u"/><path fill="#333" d="M24-231v-30h32v30H24zM24 0v-190h32V0H24" id="v"/><path fill="#333" d="M96-169c-40 0-48 33-48 73s9 75 48 75c24 0 41-14 43-38l32 2c-6 37-31 61-74 61-59 0-76-41-82-99-10-93 101-131 147-64 4 7 5 14 7 22l-32 3c-4-21-16-35-41-35" id="w"/><g id="b"><use transform="matrix(0.06172839506172839,0,0,0.06172839506172839,0,0)" xlink:href="#s"/><use transform="matrix(0.06172839506172839,0,0,0.06172839506172839,15.987654320987653,0)" xlink:href="#t"/><use transform="matrix(0.06172839506172839,0,0,0.06172839506172839,28.333333333333332,0)" xlink:href="#u"/><use transform="matrix(0.06172839506172839,0,0,0.06172839506172839,39.44444444444444,0)" xlink:href="#v"/><use transform="matrix(0.06172839506172839,0,0,0.06172839506172839,44.32098765432099,0)" xlink:href="#w"/><use transform="matrix(0.06172839506172839,0,0,0.06172839506172839,55.4320987654321,0)" xlink:href="#t"/></g><path fill="#333" d="M232-93c-1 65-40 97-104 97C67 4 28-28 28-90v-158h33c8 89-33 224 67 224 102 0 64-133 71-224h33v155" id="x"/><path fill="#333" d="M135-143c-3-34-86-38-87 0 15 53 115 12 119 90S17 21 10-45l28-5c4 36 97 45 98 0-10-56-113-15-118-90-4-57 82-63 122-42 12 7 21 19 24 35" id="y"/><g id="c"><use transform="matrix(0.06172839506172839,0,0,0.06172839506172839,0,0)" xlink:href="#x"/><use transform="matrix(0.06172839506172839,0,0,0.06172839506172839,15.987654320987653,0)" xlink:href="#y"/><use transform="matrix(0.06172839506172839,0,0,0.06172839506172839,27.098765432098766,0)" xlink:href="#t"/><use transform="matrix(0.06172839506172839,0,0,0.06172839506172839,39.44444444444444,0)" xlink:href="#k"/></g><path fill="#333" d="M140-251c81 0 123 46 123 126C263-46 219 4 140 4 59 4 17-45 17-125s42-126 123-126zm0 227c63 0 89-41 89-101s-29-99-89-99c-61 0-89 39-89 99S79-25 140-24" id="z"/><path fill="#333" d="M30 0v-248h33v221h125V0H30" id="A"/><g id="d"><use transform="matrix(0.06172839506172839,0,0,0.06172839506172839,0,0)" xlink:href="#z"/><use transform="matrix(0.06172839506172839,0,0,0.06172839506172839,17.28395061728395,0)" xlink:href="#k"/><use transform="matrix(0.06172839506172839,0,0,0.06172839506172839,24.629629629629626,0)" xlink:href="#v"/><use transform="matrix(0.06172839506172839,0,0,0.06172839506172839,29.50617283950617,0)" xlink:href="#j"/><use transform="matrix(0.06172839506172839,0,0,0.06172839506172839,41.85185185185185,0)" xlink:href="#o"/><use transform="matrix(0.06172839506172839,0,0,0.06172839506172839,54.197530864197525,0)" xlink:href="#m"/><use transform="matrix(0.06172839506172839,0,0,0.06172839506172839,61.5432098765432,0)" xlink:href="#A"/><use transform="matrix(0.06172839506172839,0,0,0.06172839506172839,73.88888888888889,0)" xlink:href="#s"/></g><path d="M212-179c-10-28-35-45-73-45-59 0-87 40-87 99 0 60 29 101 89 101 43 0 62-24 78-52l27 14C228-24 195 4 139 4 59 4 22-46 18-125c-6-104 99-153 187-111 19 9 31 26 39 46" id="B"/><path d="M24 0v-261h32V0H24" id="C"/><path d="M84 4C-5 8 30-112 23-190h32v120c0 31 7 50 39 49 72-2 45-101 50-169h31l1 190h-30c-1-10 1-25-2-33-11 22-28 36-60 37" id="D"/><path d="M135-143c-3-34-86-38-87 0 15 53 115 12 119 90S17 21 10-45l28-5c4 36 97 45 98 0-10-56-113-15-118-90-4-57 82-63 122-42 12 7 21 19 24 35" id="E"/><path d="M59-47c-2 24 18 29 38 22v24C64 9 27 4 27-40v-127H5v-23h24l9-43h21v43h35v23H59v120" id="F"/><path d="M100-194c63 0 86 42 84 106H49c0 40 14 67 53 68 26 1 43-12 49-29l28 8c-11 28-37 45-77 45C44 4 14-33 15-96c1-61 26-98 85-98zm52 81c6-60-76-77-97-28-3 7-6 17-6 28h103" id="G"/><path d="M114-163C36-179 61-72 57 0H25l-1-190h30c1 12-1 29 2 39 6-27 23-49 58-41v29" id="H"/><path d="M16-82v-28h88v28H16" id="I"/><path d="M205 0l-28-72H64L36 0H1l101-248h38L239 0h-34zm-38-99l-47-123c-12 45-31 82-46 123h93" id="J"/><g id="e"><use transform="matrix(0.05,0,0,0.05,0,0)" xlink:href="#B"/><use transform="matrix(0.05,0,0,0.05,12.950000000000001,0)" xlink:href="#C"/><use transform="matrix(0.05,0,0,0.05,16.900000000000002,0)" xlink:href="#D"/><use transform="matrix(0.05,0,0,0.05,26.900000000000002,0)" xlink:href="#E"/><use transform="matrix(0.05,0,0,0.05,35.900000000000006,0)" xlink:href="#F"/><use transform="matrix(0.05,0,0,0.05,40.900000000000006,0)" xlink:href="#G"/><use transform="matrix(0.05,0,0,0.05,50.900000000000006,0)" xlink:href="#H"/><use transform="matrix(0.05,0,0,0.05,56.85,0)" xlink:href="#I"/><use transform="matrix(0.05,0,0,0.05,62.80000000000001,0)" xlink:href="#J"/></g><path d="M160-131c35 5 61 23 61 61C221 17 115-2 30 0v-248c76 3 177-17 177 60 0 33-19 50-47 57zm-97-11c50-1 110 9 110-42 0-47-63-36-110-37v79zm0 115c55-2 124 14 124-45 0-56-70-42-124-44v89" id="K"/><g id="f"><use transform="matrix(0.05,0,0,0.05,0,0)" xlink:href="#B"/><use transform="matrix(0.05,0,0,0.05,12.950000000000001,0)" xlink:href="#C"/><use transform="matrix(0.05,0,0,0.05,16.900000000000002,0)" xlink:href="#D"/><use transform="matrix(0.05,0,0,0.05,26.900000000000002,0)" xlink:href="#E"/><use transform="matrix(0.05,0,0,0.05,35.900000000000006,0)" xlink:href="#F"/><use transform="matrix(0.05,0,0,0.05,40.900000000000006,0)" xlink:href="#G"/><use transform="matrix(0.05,0,0,0.05,50.900000000000006,0)" xlink:href="#H"/><use transform="matrix(0.05,0,0,0.05,56.85,0)" xlink:href="#I"/><use transform="matrix(0.05,0,0,0.05,62.80000000000001,0)" xlink:href="#K"/></g><path fill="#333" d="M15-91v-56l181-69v40L49-119l147 57v40" id="L"/><path fill="#333" d="M175 0L67-191c6 58 2 128 3 191H24v-248h59L193-55c-6-58-2-129-3-193h46V0h-61" id="M"/><path fill="#333" d="M67-125c0 54 23 88 75 88 28 0 53-7 68-21v-34h-60v-39h108v91C232-14 192 4 140 4 58 4 20-42 15-125 8-236 126-280 215-234c19 10 29 26 37 47l-47 15c-11-23-29-39-63-39-53 1-75 33-75 86" id="N"/><path fill="#333" d="M169-182c-1-43-94-46-97-3 18 66 151 10 154 114 3 95-165 93-204 36-6-8-10-19-12-30l50-8c3 46 112 56 116 5-17-69-150-10-154-114-4-87 153-88 188-35 5 8 8 18 10 28" id="O"/><path fill="#333" d="M24 0v-248h52V0H24" id="P"/><path fill="#333" d="M14-72v-43h91v43H14" id="Q"/><path fill="#333" d="M24 0v-248h52v208h133V0H24" id="R"/><path fill="#333" d="M24-248c120-7 223 5 221 122C244-46 201 0 124 0H24v-248zM76-40c74 7 117-18 117-86 0-67-45-88-117-82v168" id="S"/><g id="g"><use transform="matrix(0.04938271604938272,0,0,0.04938271604938272,0,0)" xlink:href="#L"/><use transform="matrix(0.04938271604938272,0,0,0.04938271604938272,10.370370370370372,0)" xlink:href="#M"/><use transform="matrix(0.04938271604938272,0,0,0.04938271604938272,23.160493827160497,0)" xlink:href="#N"/><use transform="matrix(0.04938271604938272,0,0,0.04938271604938272,36.98765432098766,0)" xlink:href="#O"/><use transform="matrix(0.04938271604938272,0,0,0.04938271604938272,48.83950617283951,0)" xlink:href="#P"/><use transform="matrix(0.04938271604938272,0,0,0.04938271604938272,53.777777777777786,0)" xlink:href="#Q"/><use transform="matrix(0.04938271604938272,0,0,0.04938271604938272,59.65432098765432,0)" xlink:href="#R"/><use transform="matrix(0.04938271604938272,0,0,0.04938271604938272,70.46913580246914,0)" xlink:href="#S"/></g><path fill="#333" d="M140-251c80 0 125 45 125 126 0 70-33 111-92 124 6 28 34 38 68 31l-1 36C177 83 129 55 120 2 51-6 15-50 15-125c0-81 44-126 125-126zm-1 214c52 0 73-35 73-88 0-50-21-86-72-86-52 0-73 35-73 86s22 88 72 88" id="T"/><path fill="#333" d="M85 4C-2 5 27-109 22-190h50c7 57-23 150 33 157 60-5 35-97 40-157h50l1 190h-47c-2-12 1-28-3-38-12 25-28 42-61 42" id="U"/><path fill="#333" d="M185-48c-13 30-37 53-82 52C43 2 14-33 14-96s30-98 90-98c62 0 83 45 84 108H66c0 31 8 55 39 56 18 0 30-7 34-22zm-45-69c5-46-57-63-70-21-2 6-4 13-4 21h74" id="V"/><path fill="#333" d="M135-150c-39-12-60 13-60 57V0H25l-1-190h47c2 13-1 29 3 40 6-28 27-53 61-41v41" id="W"/><path fill="#333" d="M123 10C108 53 80 86 19 72V37c35 8 53-11 59-39L3-190h52l48 148c12-52 28-100 44-148h51" id="X"/><path fill="#333" d="M15-22v-40l146-57-146-57v-40l181 69v56" id="Y"/><g id="h"><use transform="matrix(0.04938271604938272,0,0,0.04938271604938272,0,0)" xlink:href="#T"/><use transform="matrix(0.04938271604938272,0,0,0.04938271604938272,13.827160493827162,0)" xlink:href="#U"/><use transform="matrix(0.04938271604938272,0,0,0.04938271604938272,24.641975308641975,0)" xlink:href="#V"/><use transform="matrix(0.04938271604938272,0,0,0.04938271604938272,34.51851851851852,0)" xlink:href="#W"/><use transform="matrix(0.04938271604938272,0,0,0.04938271604938272,41.4320987654321,0)" xlink:href="#X"/><use transform="matrix(0.04938271604938272,0,0,0.04938271604938272,51.308641975308646,0)" xlink:href="#Y"/></g></defs></g></svg>